%FSLAX25Y25*%
%MOIN*%
G70*
G01*
G75*
G04 Layer_Color=32768*
%ADD10O,0.02756X0.09843*%
%ADD11R,0.05118X0.05906*%
%ADD12R,0.05906X0.05118*%
%ADD13R,0.05118X0.06299*%
%ADD14R,0.05906X0.01063*%
%ADD15R,0.01063X0.05906*%
%ADD16O,0.05906X0.02362*%
%ADD17O,0.02362X0.05906*%
%ADD18C,0.04000*%
%ADD19C,0.01000*%
%ADD20C,0.02000*%
%ADD21C,0.03000*%
%ADD22C,0.06299*%
%ADD23R,0.07000X0.07000*%
%ADD24C,0.07000*%
%ADD25C,0.07087*%
%ADD26R,0.07087X0.07087*%
%ADD27C,0.08661*%
%ADD28C,0.02400*%
%ADD29R,0.12598X0.08268*%
%ADD30R,0.03543X0.08268*%
%ADD31C,0.01500*%
%ADD32C,0.00984*%
%ADD33C,0.02362*%
%ADD34C,0.00787*%
%ADD35C,0.00500*%
%ADD36C,0.00055*%
%ADD37C,0.00073*%
%ADD38C,0.00614*%
%ADD39C,0.00400*%
%ADD40O,0.03556X0.10642*%
%ADD41R,0.05918X0.06706*%
%ADD42R,0.06706X0.05918*%
%ADD43R,0.05918X0.07099*%
%ADD44R,0.06706X0.01863*%
%ADD45R,0.01863X0.06706*%
%ADD46O,0.06706X0.03162*%
%ADD47O,0.03162X0.06706*%
%ADD48C,0.07099*%
%ADD49R,0.07800X0.07800*%
%ADD50C,0.07800*%
%ADD51C,0.07887*%
%ADD52R,0.07887X0.07887*%
%ADD53C,0.09461*%
%ADD54C,0.03200*%
%ADD55R,0.13398X0.09068*%
%ADD56R,0.04343X0.09068*%
%ADD57C,0.00394*%
%ADD58C,0.00600*%
%ADD59C,0.00197*%
D57*
X72539Y119587D02*
X76476D01*
X74508Y117618D02*
Y121555D01*
X28150Y109055D02*
X32087D01*
X30118Y107087D02*
Y111024D01*
X30413Y58563D02*
Y62500D01*
X28445Y60532D02*
X32382D01*
X150394Y75591D02*
Y79528D01*
X148425Y77559D02*
X152362D01*
X152953Y36024D02*
X156890D01*
X154921Y34055D02*
Y37992D01*
X141339Y20276D02*
Y51772D01*
X168504Y20276D02*
Y51772D01*
X141339D02*
X168504D01*
X141339Y20276D02*
X168504D01*
D59*
X55216Y103051D02*
Y136122D01*
X93799Y103051D02*
Y136122D01*
X55216Y103051D02*
X93799D01*
X55216Y136122D02*
X93799D01*
X16732Y98819D02*
Y119291D01*
X43504Y98819D02*
Y119291D01*
X16732D02*
X43504D01*
X16732Y98819D02*
X43504D01*
X20177Y47146D02*
X40650D01*
X20177Y73917D02*
X40650D01*
X20177Y47146D02*
Y73917D01*
X40650Y47146D02*
Y73917D01*
X140157Y64173D02*
X160630D01*
X140157Y90945D02*
X160630D01*
Y64173D02*
Y90945D01*
X140157Y64173D02*
Y90945D01*
M02*
