%FSLAX25Y25*%
%MOIN*%
G70*
G01*
G75*
G04 Layer_Color=255*
%ADD10O,0.02756X0.09843*%
%ADD11R,0.05118X0.05906*%
%ADD12R,0.05906X0.05118*%
%ADD13R,0.05118X0.06299*%
%ADD14R,0.05906X0.01063*%
%ADD15R,0.01063X0.05906*%
%ADD16O,0.05906X0.02362*%
%ADD17O,0.02362X0.05906*%
%ADD18C,0.04000*%
%ADD19C,0.01000*%
%ADD20C,0.02000*%
%ADD21C,0.03000*%
%ADD22C,0.06299*%
%ADD23R,0.07000X0.07000*%
%ADD24C,0.07000*%
%ADD25C,0.07087*%
%ADD26R,0.07087X0.07087*%
%ADD27C,0.08661*%
%ADD28C,0.02400*%
%ADD29R,0.12598X0.08268*%
%ADD30R,0.03543X0.08268*%
%ADD31C,0.01500*%
D11*
X149311Y101378D02*
D03*
X156791D02*
D03*
X160039Y12992D02*
D03*
X167520D02*
D03*
X19193Y93209D02*
D03*
X26673D02*
D03*
X74311Y124311D02*
D03*
X66831D02*
D03*
X19980Y77067D02*
D03*
X27461D02*
D03*
X67126Y96457D02*
D03*
X74606D02*
D03*
X134055Y166339D02*
D03*
X126575D02*
D03*
D12*
X139862Y213091D02*
D03*
Y205610D02*
D03*
X139764Y175394D02*
D03*
Y182874D02*
D03*
X132677Y69095D02*
D03*
Y61614D02*
D03*
X135433Y31299D02*
D03*
Y23819D02*
D03*
X41043Y115847D02*
D03*
Y108366D02*
D03*
D17*
X157894Y67520D02*
D03*
X152894D02*
D03*
X147894D02*
D03*
X142894D02*
D03*
X157894Y87598D02*
D03*
X152894D02*
D03*
X147894D02*
D03*
X142894D02*
D03*
D22*
X168504Y98524D02*
D03*
X137008D02*
D03*
X125197D02*
D03*
X180315D02*
D03*
X124213Y6988D02*
D03*
X181299D02*
D03*
X75197Y37598D02*
D03*
X94882D02*
D03*
X85039Y27756D02*
D03*
X75197Y80905D02*
D03*
X94882D02*
D03*
X85039Y71063D02*
D03*
D23*
X183071Y216220D02*
D03*
D24*
X173071D02*
D03*
X183071Y226220D02*
D03*
X173071D02*
D03*
X183071Y236221D02*
D03*
X173071D02*
D03*
X183071Y246220D02*
D03*
X173071D02*
D03*
X183071Y256221D02*
D03*
X173071D02*
D03*
D25*
X16496Y151575D02*
D03*
X46496D02*
D03*
X36496D02*
D03*
X26496D02*
D03*
X6496D02*
D03*
X84665Y11713D02*
D03*
X69567D02*
D03*
X24724Y11811D02*
D03*
X34724D02*
D03*
X44724D02*
D03*
X185118Y187795D02*
D03*
X185315Y167323D02*
D03*
X152362Y114173D02*
D03*
Y124173D02*
D03*
Y134173D02*
D03*
Y144173D02*
D03*
X142520Y114173D02*
D03*
Y124173D02*
D03*
Y134173D02*
D03*
Y144173D02*
D03*
X80512Y267717D02*
D03*
X90512D02*
D03*
X100512D02*
D03*
X110512D02*
D03*
X120512D02*
D03*
X130512D02*
D03*
X140512D02*
D03*
D26*
X56496Y151575D02*
D03*
X94665Y11713D02*
D03*
X59567D02*
D03*
X14724Y11811D02*
D03*
X175118Y187795D02*
D03*
X175315Y167323D02*
D03*
X70512Y267717D02*
D03*
D27*
X111024Y113386D02*
D03*
X151575Y222441D02*
D03*
D29*
X154921Y47244D02*
D03*
D30*
X145866Y24803D02*
D03*
X154921D02*
D03*
X163976D02*
D03*
M02*
