%FSLAX25Y25*%
%MOIN*%
G70*
G01*
G75*
G04 Layer_Color=16711935*
%ADD10O,0.02756X0.09843*%
%ADD11R,0.05118X0.05906*%
%ADD12R,0.05906X0.05118*%
%ADD13R,0.05118X0.06299*%
%ADD14R,0.05906X0.01063*%
%ADD15R,0.01063X0.05906*%
%ADD16O,0.05906X0.02362*%
%ADD17O,0.02362X0.05906*%
%ADD18C,0.04000*%
%ADD19C,0.01000*%
%ADD20C,0.02000*%
%ADD21C,0.03000*%
%ADD22C,0.06299*%
%ADD23R,0.07000X0.07000*%
%ADD24C,0.07000*%
%ADD25C,0.07087*%
%ADD26R,0.07087X0.07087*%
%ADD27C,0.08661*%
%ADD28C,0.02400*%
%ADD29R,0.12598X0.08268*%
%ADD30R,0.03543X0.08268*%
%ADD31C,0.01500*%
%ADD32C,0.00984*%
%ADD33C,0.02362*%
%ADD34C,0.00787*%
%ADD35C,0.00500*%
%ADD36C,0.00055*%
%ADD37C,0.00073*%
%ADD38C,0.00614*%
%ADD39C,0.00400*%
%ADD40O,0.03556X0.10642*%
%ADD41R,0.05918X0.06706*%
%ADD42R,0.06706X0.05918*%
%ADD43R,0.05918X0.07099*%
%ADD44R,0.06706X0.01863*%
%ADD45R,0.01863X0.06706*%
%ADD46O,0.06706X0.03162*%
%ADD47O,0.03162X0.06706*%
%ADD48C,0.07099*%
%ADD49R,0.07800X0.07800*%
%ADD50C,0.07800*%
%ADD51C,0.07887*%
%ADD52R,0.07887X0.07887*%
%ADD53C,0.09461*%
%ADD54C,0.03200*%
%ADD55R,0.13398X0.09068*%
%ADD56R,0.04343X0.09068*%
%ADD57C,0.00394*%
%ADD58C,0.00600*%
D19*
X194291Y-11180D02*
Y-9181D01*
X-2560Y-11180D02*
Y-9181D01*
X188291Y-12180D02*
X194291Y-10181D01*
X188291Y-8180D02*
X194291Y-10181D01*
X-2560D02*
X3441Y-12180D01*
X-2560Y-10181D02*
X3441Y-8180D01*
X115960Y-10181D02*
X194291D01*
X-2560D02*
X75772D01*
X-12795Y574D02*
Y118277D01*
Y158465D02*
Y276167D01*
X-14795Y6574D02*
X-12795Y574D01*
X-10795Y6574D01*
X-14795Y270167D02*
X-12795Y276167D01*
X-10795Y270167D01*
X-13795Y574D02*
X-11795D01*
X-13795Y276167D02*
X-11795D01*
D57*
X90138Y123937D02*
X89874Y124921D01*
X89153Y125642D01*
X88169Y125906D01*
X87185Y125642D01*
X86465Y124921D01*
X86201Y123937D01*
X86465Y122953D01*
X87185Y122232D01*
X88169Y121968D01*
X89153Y122232D01*
X89874Y122953D01*
X90138Y123937D01*
X27756Y115354D02*
X27492Y116339D01*
X26772Y117059D01*
X25787Y117323D01*
X24803Y117059D01*
X24083Y116339D01*
X23819Y115354D01*
X24083Y114370D01*
X24803Y113650D01*
X25787Y113386D01*
X26772Y113650D01*
X27492Y114370D01*
X27756Y115354D01*
X26083Y56201D02*
X25819Y57185D01*
X25098Y57906D01*
X24114Y58169D01*
X23130Y57906D01*
X22409Y57185D01*
X22146Y56201D01*
X22409Y55216D01*
X23130Y54496D01*
X24114Y54232D01*
X25098Y54496D01*
X25819Y55216D01*
X26083Y56201D01*
X158661Y73228D02*
X158398Y74213D01*
X157677Y74933D01*
X156693Y75197D01*
X155709Y74933D01*
X154988Y74213D01*
X154724Y73228D01*
X154988Y72244D01*
X155709Y71524D01*
X156693Y71260D01*
X157677Y71524D01*
X158398Y72244D01*
X158661Y73228D01*
X57303Y111693D02*
Y127480D01*
X91713Y111693D02*
Y127480D01*
X57303Y111693D02*
X91713D01*
X57303Y127480D02*
X91713D01*
X22244Y99213D02*
Y118898D01*
X37992Y99213D02*
Y118898D01*
X22244D02*
X37992D01*
X22244Y99213D02*
X37992D01*
X20571Y52658D02*
X40256D01*
X20571Y68405D02*
X40256D01*
X20571Y52658D02*
Y68405D01*
X40256Y52658D02*
Y68405D01*
X140551Y69685D02*
X160236D01*
X140551Y85433D02*
X160236D01*
Y69685D02*
Y85433D01*
X140551Y69685D02*
Y85433D01*
X141732Y28740D02*
Y43307D01*
X168110Y28740D02*
Y43307D01*
X141732D02*
X168110D01*
X141732Y28740D02*
X168110D01*
D58*
X80770Y-7782D02*
X76772D01*
Y-10780D01*
X78771Y-9781D01*
X79771D01*
X80770Y-10780D01*
Y-12780D01*
X79771Y-13780D01*
X77771D01*
X76772Y-12780D01*
X82770Y-8781D02*
X83769Y-7782D01*
X85769D01*
X86768Y-8781D01*
Y-12780D01*
X85769Y-13780D01*
X83769D01*
X82770Y-12780D01*
Y-8781D01*
X96765Y-13780D02*
X94766Y-11780D01*
Y-9781D01*
X96765Y-7782D01*
X99764Y-13780D02*
Y-9781D01*
X100764D01*
X101764Y-10780D01*
Y-13780D01*
Y-10780D01*
X102763Y-9781D01*
X103763Y-10780D01*
Y-13780D01*
X105762D02*
Y-9781D01*
X106762D01*
X107762Y-10780D01*
Y-13780D01*
Y-10780D01*
X108761Y-9781D01*
X109761Y-10780D01*
Y-13780D01*
X111760D02*
X113760Y-11780D01*
Y-9781D01*
X111760Y-7782D01*
X-15194Y119276D02*
Y123275D01*
X-14195D01*
X-10196Y119276D01*
X-9196D01*
X-14195Y125275D02*
X-15194Y126274D01*
Y128274D01*
X-14195Y129273D01*
X-10196D01*
X-9196Y128274D01*
Y126274D01*
X-10196Y125275D01*
X-14195D01*
X-9196Y139270D02*
X-11196Y137271D01*
X-13195D01*
X-15194Y139270D01*
X-9196Y142269D02*
X-13195D01*
Y143269D01*
X-12195Y144268D01*
X-9196D01*
X-12195D01*
X-13195Y145268D01*
X-12195Y146268D01*
X-9196D01*
Y148267D02*
X-13195D01*
Y149267D01*
X-12195Y150267D01*
X-9196D01*
X-12195D01*
X-13195Y151266D01*
X-12195Y152266D01*
X-9196D01*
Y154265D02*
X-11196Y156265D01*
X-13195D01*
X-15194Y154265D01*
M02*
