%FSLAX25Y25*%
%MOIN*%
G70*
G01*
G75*
%ADD10O,0.02756X0.09843*%
%ADD11R,0.05118X0.05906*%
%ADD12R,0.05906X0.05118*%
%ADD13R,0.05118X0.06299*%
%ADD14R,0.05906X0.01063*%
%ADD15R,0.01063X0.05906*%
%ADD16O,0.05906X0.02362*%
%ADD17O,0.02362X0.05906*%
%ADD18C,0.04000*%
%ADD19C,0.01000*%
%ADD20C,0.02000*%
%ADD21C,0.03000*%
%ADD22C,0.06299*%
%ADD23R,0.07000X0.07000*%
%ADD24C,0.07000*%
%ADD25C,0.07087*%
%ADD26R,0.07087X0.07087*%
%ADD27C,0.08661*%
%ADD28C,0.02400*%
%ADD29R,0.12598X0.08268*%
%ADD30R,0.03543X0.08268*%
%ADD31C,0.01500*%
D10*
X59508Y107579D02*
D03*
X64508D02*
D03*
X69508D02*
D03*
X74508D02*
D03*
X79508D02*
D03*
X84508D02*
D03*
X89508D02*
D03*
X59508Y131988D02*
D03*
X64508D02*
D03*
X69508D02*
D03*
X74508D02*
D03*
X79508D02*
D03*
X84508D02*
D03*
X89508D02*
D03*
D11*
X100787Y143898D02*
D03*
X108268D02*
D03*
X44390Y126279D02*
D03*
X36909D02*
D03*
X16831Y81791D02*
D03*
X9350D02*
D03*
X28740Y126279D02*
D03*
X21260D02*
D03*
X117224Y143898D02*
D03*
X124705D02*
D03*
X67618Y185138D02*
D03*
X75098D02*
D03*
X68898Y151378D02*
D03*
X76378D02*
D03*
X163583Y168110D02*
D03*
X156102D02*
D03*
X156201Y188583D02*
D03*
X163681D02*
D03*
X26280Y93209D02*
D03*
X33760D02*
D03*
X44390Y136516D02*
D03*
X36909D02*
D03*
X33366Y81791D02*
D03*
X25886D02*
D03*
X16831Y93209D02*
D03*
X9350D02*
D03*
X21161Y136122D02*
D03*
X28642D02*
D03*
X69095Y141732D02*
D03*
X76575D02*
D03*
X26280Y41240D02*
D03*
X33760D02*
D03*
X58465Y41339D02*
D03*
X50984D02*
D03*
D12*
X9350Y102067D02*
D03*
Y109547D02*
D03*
X24902Y31988D02*
D03*
Y24508D02*
D03*
X35138D02*
D03*
Y31988D02*
D03*
X99213Y232874D02*
D03*
Y225394D02*
D03*
X122835D02*
D03*
Y232874D02*
D03*
X130118Y255315D02*
D03*
Y247835D02*
D03*
X79921D02*
D03*
Y255315D02*
D03*
X70079D02*
D03*
Y247835D02*
D03*
X46457Y64370D02*
D03*
Y56890D02*
D03*
X9350Y126083D02*
D03*
Y118602D02*
D03*
X15059Y31988D02*
D03*
Y24508D02*
D03*
X98032Y122933D02*
D03*
Y115453D02*
D03*
X44980Y31988D02*
D03*
Y24508D02*
D03*
X58661Y72638D02*
D03*
Y80118D02*
D03*
X154429Y244291D02*
D03*
Y251772D02*
D03*
X140945Y247835D02*
D03*
Y255315D02*
D03*
X119685Y255118D02*
D03*
Y247638D02*
D03*
X109843Y247835D02*
D03*
Y255315D02*
D03*
X99606D02*
D03*
Y247835D02*
D03*
X89764D02*
D03*
Y255315D02*
D03*
X74508Y229626D02*
D03*
Y222146D02*
D03*
X13878Y56791D02*
D03*
Y64272D02*
D03*
X154429Y259646D02*
D03*
Y267126D02*
D03*
D13*
X67224Y175295D02*
D03*
X76279Y160335D02*
D03*
X67224D02*
D03*
X76279Y175295D02*
D03*
D14*
X84153Y169783D02*
D03*
X146161Y187500D02*
D03*
X84153Y163878D02*
D03*
X146161Y175689D02*
D03*
Y179626D02*
D03*
Y173721D02*
D03*
Y209154D02*
D03*
Y207185D02*
D03*
Y205217D02*
D03*
Y201279D02*
D03*
Y199311D02*
D03*
Y197343D02*
D03*
Y195374D02*
D03*
Y193405D02*
D03*
Y191437D02*
D03*
Y189469D02*
D03*
Y185531D02*
D03*
Y183563D02*
D03*
Y177657D02*
D03*
Y171752D02*
D03*
Y167815D02*
D03*
Y163878D02*
D03*
X84153Y161909D02*
D03*
Y165847D02*
D03*
Y167815D02*
D03*
Y171752D02*
D03*
Y173721D02*
D03*
Y175689D02*
D03*
Y177657D02*
D03*
Y179626D02*
D03*
Y181595D02*
D03*
Y183563D02*
D03*
Y185531D02*
D03*
Y187500D02*
D03*
Y189469D02*
D03*
Y191437D02*
D03*
Y193405D02*
D03*
Y195374D02*
D03*
Y201279D02*
D03*
Y203248D02*
D03*
Y205217D02*
D03*
Y207185D02*
D03*
Y209154D02*
D03*
X146161Y169783D02*
D03*
Y203248D02*
D03*
Y181595D02*
D03*
X84153Y199311D02*
D03*
Y197343D02*
D03*
X146161Y161909D02*
D03*
Y165847D02*
D03*
D15*
X97441Y154528D02*
D03*
X99410D02*
D03*
X132874D02*
D03*
X130905D02*
D03*
X95472Y216535D02*
D03*
X93504D02*
D03*
X128937Y154528D02*
D03*
X91535Y216535D02*
D03*
X99410D02*
D03*
X101378D02*
D03*
X103347D02*
D03*
X105315D02*
D03*
X107283D02*
D03*
X109252D02*
D03*
X111221D02*
D03*
X113189D02*
D03*
X115157D02*
D03*
X117126D02*
D03*
X119095D02*
D03*
X121063D02*
D03*
X123031D02*
D03*
X126969D02*
D03*
X128937D02*
D03*
X132874D02*
D03*
X134843D02*
D03*
X136811D02*
D03*
X138779D02*
D03*
Y154528D02*
D03*
X136811D02*
D03*
X134843D02*
D03*
X126969D02*
D03*
X125000D02*
D03*
X123031D02*
D03*
X119095D02*
D03*
X117126D02*
D03*
X115157D02*
D03*
X113189D02*
D03*
X111221D02*
D03*
X109252D02*
D03*
X107283D02*
D03*
X105315D02*
D03*
X103347D02*
D03*
X95473D02*
D03*
X93504D02*
D03*
X91535D02*
D03*
X97441Y216535D02*
D03*
X101378Y154528D02*
D03*
X121063D02*
D03*
X125000Y216535D02*
D03*
X130905D02*
D03*
D16*
X20079Y116555D02*
D03*
Y111555D02*
D03*
Y106555D02*
D03*
Y101555D02*
D03*
X40157Y116555D02*
D03*
Y111555D02*
D03*
Y106555D02*
D03*
Y101555D02*
D03*
D17*
X22913Y50492D02*
D03*
X27913D02*
D03*
X32913D02*
D03*
X37913D02*
D03*
X22913Y70571D02*
D03*
X27913D02*
D03*
X32913D02*
D03*
X37913D02*
D03*
D22*
X168504Y98524D02*
D03*
X137008D02*
D03*
X125197D02*
D03*
X180315D02*
D03*
X124213Y6988D02*
D03*
X181299D02*
D03*
X75197Y37598D02*
D03*
X94882D02*
D03*
X85039Y27756D02*
D03*
X75197Y80905D02*
D03*
X94882D02*
D03*
X85039Y71063D02*
D03*
D23*
X183071Y216220D02*
D03*
D24*
X173071D02*
D03*
X183071Y226220D02*
D03*
X173071D02*
D03*
X183071Y236221D02*
D03*
X173071D02*
D03*
X183071Y246220D02*
D03*
X173071D02*
D03*
X183071Y256221D02*
D03*
X173071D02*
D03*
D25*
X16496Y151575D02*
D03*
X46496D02*
D03*
X36496D02*
D03*
X26496D02*
D03*
X6496D02*
D03*
X84665Y11713D02*
D03*
X69567D02*
D03*
X24724Y11811D02*
D03*
X34724D02*
D03*
X44724D02*
D03*
X185118Y187795D02*
D03*
X185315Y167323D02*
D03*
X152362Y114173D02*
D03*
Y124173D02*
D03*
Y134173D02*
D03*
Y144173D02*
D03*
X142520Y114173D02*
D03*
Y124173D02*
D03*
Y134173D02*
D03*
Y144173D02*
D03*
X80512Y267717D02*
D03*
X90512D02*
D03*
X100512D02*
D03*
X110512D02*
D03*
X120512D02*
D03*
X130512D02*
D03*
X140512D02*
D03*
D26*
X56496Y151575D02*
D03*
X94665Y11713D02*
D03*
X59567D02*
D03*
X14724Y11811D02*
D03*
X175118Y187795D02*
D03*
X175315Y167323D02*
D03*
X70512Y267717D02*
D03*
D27*
X111024Y113386D02*
D03*
X151575Y222441D02*
D03*
M02*
