%FSLAX25Y25*%
%MOIN*%
G70*
G01*
G75*
G04 Layer_Physical_Order=2*
G04 Layer_Color=16711680*
%ADD10O,0.02756X0.09843*%
%ADD11R,0.05118X0.05906*%
%ADD12R,0.05906X0.05118*%
%ADD13R,0.05118X0.06299*%
%ADD14R,0.05906X0.01063*%
%ADD15R,0.01063X0.05906*%
%ADD16O,0.05906X0.02362*%
%ADD17O,0.02362X0.05906*%
%ADD18C,0.04000*%
%ADD19C,0.01000*%
%ADD20C,0.02000*%
%ADD21C,0.03000*%
%ADD22C,0.06299*%
%ADD23R,0.07000X0.07000*%
%ADD24C,0.07000*%
%ADD25C,0.07087*%
%ADD26R,0.07087X0.07087*%
%ADD27C,0.08661*%
%ADD28C,0.02400*%
%ADD29R,0.12598X0.08268*%
%ADD30R,0.03543X0.08268*%
%ADD31C,0.01500*%
G36*
X82097Y85854D02*
Y75296D01*
X81367Y74736D01*
X80541Y73660D01*
X80022Y72407D01*
X79845Y71063D01*
X80022Y69719D01*
X80541Y68466D01*
X80565Y68435D01*
X80344Y67987D01*
X71924D01*
Y76361D01*
X72372Y76582D01*
X72600Y76407D01*
X73852Y75889D01*
X75197Y75712D01*
X76541Y75889D01*
X77794Y76407D01*
X78870Y77233D01*
X79695Y78308D01*
X80214Y79561D01*
X80391Y80905D01*
X80214Y82250D01*
X79695Y83503D01*
X78870Y84578D01*
X77794Y85404D01*
X76541Y85923D01*
Y85923D01*
X76543Y85950D01*
X80709D01*
X81492Y86054D01*
X81681Y86132D01*
X82097Y85854D01*
D02*
G37*
G36*
X177571Y212273D02*
Y210720D01*
X187808D01*
Y193131D01*
X187393Y192853D01*
X186565Y193196D01*
X185618Y193321D01*
Y187794D01*
Y182270D01*
X186565Y182395D01*
X187393Y182737D01*
X187808Y182460D01*
Y172740D01*
X187393Y172462D01*
X186762Y172723D01*
X185815Y172848D01*
Y167322D01*
Y161797D01*
X186762Y161922D01*
X187393Y162183D01*
X187808Y161906D01*
Y154613D01*
X171545D01*
Y161779D01*
X180858D01*
Y163247D01*
X181332Y163408D01*
X181361Y163369D01*
X182519Y162481D01*
X183868Y161922D01*
X184815Y161797D01*
Y167322D01*
Y172848D01*
X183868Y172723D01*
X182519Y172165D01*
X181361Y171276D01*
X181332Y171238D01*
X180858Y171398D01*
Y172866D01*
X171545D01*
Y176191D01*
X175118D01*
X176094Y176385D01*
X176920Y176938D01*
X177473Y177765D01*
X177667Y178740D01*
X177667Y178740D01*
X177667Y178740D01*
Y178740D01*
Y182252D01*
X180661D01*
Y183720D01*
X181135Y183880D01*
X181165Y183842D01*
X182323Y182953D01*
X183671Y182395D01*
X184618Y182270D01*
Y187794D01*
Y193321D01*
X183671Y193196D01*
X182323Y192637D01*
X181165Y191749D01*
X181135Y191710D01*
X180661Y191871D01*
Y193339D01*
X169575D01*
Y193339D01*
X169536D01*
X169183Y193692D01*
Y211706D01*
X169631Y211927D01*
X170297Y211416D01*
X171635Y210862D01*
X173071Y210673D01*
X174507Y210862D01*
X175845Y211416D01*
X176994Y212298D01*
X177097Y212433D01*
X177571Y212273D01*
D02*
G37*
G36*
X31509Y119377D02*
X12205D01*
Y128347D01*
X31509D01*
Y119377D01*
D02*
G37*
G36*
X89764Y81482D02*
X89688Y80905D01*
X89764Y80329D01*
Y74143D01*
X89290Y73982D01*
X88712Y74736D01*
X87636Y75561D01*
X87195Y75744D01*
Y106693D01*
X87001Y107668D01*
X86448Y108495D01*
X85621Y109048D01*
X84646Y109242D01*
X57645D01*
X57292Y109597D01*
X57342Y117340D01*
X57601Y117677D01*
X57923Y118456D01*
X58033Y119291D01*
X57923Y120127D01*
X57601Y120905D01*
X57088Y121574D01*
X56419Y122087D01*
X55641Y122409D01*
X54806Y122519D01*
X53970Y122409D01*
X53192Y122087D01*
X52523Y121574D01*
X52011Y120905D01*
X51688Y120127D01*
X51578Y119291D01*
X51688Y118456D01*
X52011Y117677D01*
X52244Y117373D01*
X52188Y108644D01*
X51929Y108307D01*
X51607Y107528D01*
X51497Y106693D01*
X51607Y105858D01*
X51929Y105079D01*
X52442Y104411D01*
X53111Y103898D01*
X53889Y103575D01*
X54724Y103465D01*
X55560Y103575D01*
X56338Y103898D01*
X56659Y104144D01*
X71464D01*
X71742Y103728D01*
X71685Y103591D01*
X71575Y102756D01*
X71685Y101920D01*
X71725Y101825D01*
X71447Y101409D01*
X67626D01*
Y96456D01*
X66626D01*
Y101409D01*
X62567D01*
Y99483D01*
X60112D01*
X59891Y99574D01*
X59555Y99619D01*
Y96456D01*
Y93295D01*
X59891Y93339D01*
X60112Y93431D01*
X62567D01*
Y91504D01*
X66490D01*
X66712Y91056D01*
X66277Y90489D01*
X65975Y89759D01*
X65872Y88976D01*
Y67987D01*
X41215D01*
Y93209D01*
X41112Y93992D01*
X40810Y94722D01*
X40329Y95348D01*
X39702Y95829D01*
X38972Y96131D01*
X38189Y96235D01*
X31232D01*
Y98161D01*
X29859D01*
X29530Y98537D01*
X29606Y99114D01*
X29496Y99950D01*
X29173Y100728D01*
X28660Y101396D01*
X27992Y101909D01*
X27213Y102232D01*
X26378Y102342D01*
X25543Y102232D01*
X24764Y101909D01*
X24096Y101396D01*
X23583Y100728D01*
X23260Y99950D01*
X23150Y99114D01*
X23226Y98537D01*
X22897Y98161D01*
X19693D01*
Y93208D01*
Y88256D01*
X31232D01*
Y90183D01*
X35163D01*
Y80724D01*
X34747Y80446D01*
X34674Y80477D01*
X33760Y80597D01*
X32020D01*
Y82020D01*
X20480D01*
Y77066D01*
Y72114D01*
X30230D01*
Y67211D01*
X27421D01*
X26673Y67310D01*
X13373D01*
Y72509D01*
X13749Y72838D01*
X13870Y72822D01*
Y75983D01*
Y79146D01*
X13749Y79130D01*
X13373Y79460D01*
Y112316D01*
X22496D01*
X22826Y111940D01*
X22757Y111417D01*
X22867Y110582D01*
X23189Y109803D01*
X23702Y109135D01*
X24370Y108622D01*
X24404Y108608D01*
X24533Y108125D01*
X24370Y107913D01*
X24048Y107135D01*
X24004Y106799D01*
X27166D01*
Y106300D01*
X27665D01*
Y103137D01*
X28001Y103182D01*
X28779Y103504D01*
X29439Y104010D01*
X30127Y103551D01*
X31102Y103357D01*
X31136D01*
X31457Y103110D01*
X32236Y102788D01*
X33071Y102678D01*
X33906Y102788D01*
X34685Y103110D01*
X35353Y103623D01*
X35494Y103807D01*
X36091Y103807D01*
Y103807D01*
X40543D01*
Y108367D01*
X41543D01*
Y103807D01*
X45996D01*
Y105045D01*
X46778D01*
X46999Y104953D01*
X47335Y104909D01*
Y108070D01*
Y111233D01*
X46999Y111188D01*
X46778Y111097D01*
X45996D01*
Y111287D01*
Y120405D01*
X44982D01*
X44665Y120768D01*
X44555Y121603D01*
X44232Y122381D01*
X43719Y123050D01*
X43051Y123563D01*
X42272Y123885D01*
X41437Y123995D01*
X40602Y123885D01*
X39823Y123563D01*
X39155Y123050D01*
X39043Y122904D01*
X38570Y123065D01*
Y126883D01*
X62272D01*
Y124811D01*
X66832D01*
Y124312D01*
X67331D01*
Y119358D01*
X70781D01*
Y118799D01*
X70901Y117885D01*
X71254Y117034D01*
X71815Y116303D01*
X72546Y115742D01*
X73397Y115389D01*
X74311Y115269D01*
X75225Y115389D01*
X76076Y115742D01*
X76807Y116303D01*
X77368Y117034D01*
X77721Y117885D01*
X77841Y118799D01*
Y119358D01*
X78870D01*
Y128347D01*
X89764D01*
Y81482D01*
D02*
G37*
G36*
X187808Y85420D02*
X161424D01*
Y87992D01*
X161304Y88906D01*
X161098Y89402D01*
X160993Y90201D01*
X160672Y90974D01*
X160162Y91639D01*
X159498Y92149D01*
X158724Y92469D01*
X157894Y92579D01*
X157063Y92469D01*
X156289Y92149D01*
X155625Y91639D01*
X155163D01*
X154498Y92149D01*
X153724Y92469D01*
X152894Y92579D01*
X152063Y92469D01*
X151289Y92149D01*
X150625Y91639D01*
X150162D01*
X149498Y92149D01*
X148724Y92469D01*
X148394Y92513D01*
Y87597D01*
Y82684D01*
X148724Y82728D01*
X149498Y83048D01*
X150162Y83558D01*
X150625D01*
X151289Y83048D01*
X152063Y82728D01*
X152894Y82618D01*
X153724Y82728D01*
X153948Y82820D01*
X154364Y82542D01*
Y81890D01*
X154484Y80976D01*
X154836Y80125D01*
X155397Y79394D01*
X156129Y78833D01*
X156980Y78480D01*
X157894Y78360D01*
X187808D01*
Y50774D01*
X163221D01*
Y53378D01*
X146622D01*
Y50774D01*
X98412D01*
Y60630D01*
X98292Y61544D01*
X98553Y61935D01*
X108268D01*
X109051Y62038D01*
X109781Y62340D01*
X110407Y62821D01*
X110888Y63448D01*
X111190Y64178D01*
X111294Y64961D01*
Y74533D01*
X129644D01*
X129974Y74157D01*
X129911Y73678D01*
X129908Y73654D01*
X127724D01*
Y64535D01*
Y57055D01*
X129655D01*
X129754Y56303D01*
X130057Y55574D01*
X130537Y54947D01*
D01*
X130537D01*
X130537Y54947D01*
X130537Y54947D01*
X130537D01*
D01*
X130537D01*
X130538Y54947D01*
Y54947D01*
X130538Y54947D01*
Y54947D01*
X131164Y54466D01*
X131894Y54164D01*
X132677Y54061D01*
X152894D01*
X153677Y54164D01*
X154407Y54466D01*
X155033Y54947D01*
X155514Y55574D01*
X155816Y56303D01*
X155920Y57087D01*
Y62673D01*
X156335Y62950D01*
X157063Y62649D01*
X157894Y62539D01*
X158724Y62649D01*
X159498Y62969D01*
X160162Y63479D01*
X160672Y64144D01*
X160993Y64918D01*
X161102Y65748D01*
Y69291D01*
X160993Y70122D01*
X160672Y70896D01*
X160162Y71560D01*
X159498Y72070D01*
X158724Y72391D01*
X157894Y72500D01*
X157063Y72391D01*
X156289Y72070D01*
X155625Y71560D01*
X155163D01*
X154498Y72070D01*
X153724Y72391D01*
X152894Y72500D01*
X152063Y72391D01*
X151289Y72070D01*
X150625Y71560D01*
X150162D01*
X149498Y72070D01*
X148724Y72391D01*
X148394Y72434D01*
Y67519D01*
Y62605D01*
X148724Y62649D01*
X149452Y62950D01*
X149868Y62673D01*
Y60113D01*
X137630D01*
Y64535D01*
Y70848D01*
X139645D01*
X139923Y70433D01*
X139795Y70122D01*
X139685Y69291D01*
Y65748D01*
X139795Y64918D01*
X140115Y64144D01*
X140625Y63479D01*
X141289Y62969D01*
X142063Y62649D01*
X142894Y62539D01*
X143724Y62649D01*
X144498Y62969D01*
X145162Y63479D01*
X145625D01*
X146289Y62969D01*
X147063Y62649D01*
X147394Y62605D01*
Y67519D01*
Y72434D01*
X147063Y72391D01*
X146289Y72070D01*
X146116Y71937D01*
X145667Y72158D01*
Y73622D01*
X145573Y74340D01*
X145296Y75009D01*
X145076Y75296D01*
X145026Y75361D01*
X145033Y75419D01*
X145033Y75419D01*
X145033Y75419D01*
D01*
Y75419D01*
X145514Y76046D01*
X145817Y76776D01*
X145920Y77559D01*
Y82751D01*
X146335Y83029D01*
X147063Y82728D01*
X147394Y82684D01*
Y87597D01*
Y92513D01*
X147063Y92469D01*
X146335Y92168D01*
X145920Y92446D01*
Y96425D01*
X156291D01*
Y101377D01*
Y106331D01*
X144752D01*
Y104699D01*
X142894D01*
X142111Y104596D01*
X141381Y104294D01*
X140754Y103813D01*
X140273Y103186D01*
X140217Y103052D01*
X139734Y102922D01*
X139605Y103022D01*
X138352Y103541D01*
X137008Y103718D01*
X135664Y103541D01*
X134411Y103022D01*
X133335Y102196D01*
X132510Y101121D01*
X131991Y99868D01*
X131814Y98524D01*
X131991Y97179D01*
X132510Y95927D01*
X133335Y94851D01*
X134411Y94025D01*
X135664Y93507D01*
X137008Y93330D01*
X138352Y93507D01*
X139452Y93962D01*
X139868Y93684D01*
Y90377D01*
X139795Y90201D01*
X139685Y89370D01*
Y85827D01*
X139795Y84996D01*
X139868Y84819D01*
Y80585D01*
X108268D01*
X107485Y80482D01*
X106755Y80180D01*
X106128Y79699D01*
X105647Y79072D01*
X105345Y78342D01*
X105242Y77559D01*
Y67987D01*
X89735D01*
X89514Y68435D01*
X89538Y68466D01*
X90056Y69719D01*
X90233Y71063D01*
X90097Y72102D01*
X90419Y72212D01*
X90478Y72246D01*
X90544Y72259D01*
X90820Y72444D01*
X91108Y72610D01*
X91149Y72663D01*
X91206Y72701D01*
X91390Y72977D01*
X91593Y73241D01*
X91610Y73306D01*
X91648Y73363D01*
X91713Y73689D01*
X91799Y74010D01*
X91790Y74077D01*
X91803Y74143D01*
Y76212D01*
X92251Y76433D01*
X92285Y76407D01*
X93538Y75889D01*
X94882Y75712D01*
X96226Y75889D01*
X97479Y76407D01*
X98555Y77233D01*
X99380Y78308D01*
X99899Y79561D01*
X100076Y80905D01*
X99899Y82250D01*
X99380Y83503D01*
X98555Y84578D01*
X97479Y85404D01*
X96226Y85923D01*
X94882Y86099D01*
X93538Y85923D01*
X92285Y85404D01*
X92251Y85378D01*
X91803Y85599D01*
Y121641D01*
X92244Y121877D01*
X92332Y121818D01*
X93307Y121624D01*
X109245D01*
X109318Y121130D01*
X107984Y120725D01*
X106610Y119991D01*
X105406Y119003D01*
X104419Y117799D01*
X103684Y116426D01*
X103233Y114936D01*
X103080Y113386D01*
X103233Y111836D01*
X103684Y110346D01*
X104419Y108973D01*
X105406Y107769D01*
X106610Y106781D01*
X107984Y106047D01*
X109474Y105595D01*
X111024Y105442D01*
X112573Y105595D01*
X114064Y106047D01*
X115437Y106781D01*
X116641Y107769D01*
X117629Y108973D01*
X118363Y110346D01*
X118815Y111836D01*
X118967Y113386D01*
X118815Y114936D01*
X118363Y116426D01*
X117629Y117799D01*
X116641Y119003D01*
X115437Y119991D01*
X114064Y120725D01*
X112729Y121130D01*
X112803Y121624D01*
X137575D01*
X137678Y121378D01*
X138566Y120220D01*
X139604Y119423D01*
Y118923D01*
X138566Y118127D01*
X137678Y116969D01*
X137119Y115620D01*
X136929Y114173D01*
X137119Y112726D01*
X137678Y111378D01*
X138566Y110220D01*
X139724Y109331D01*
X141073Y108773D01*
X142520Y108582D01*
X143967Y108773D01*
X145315Y109331D01*
X146473Y110220D01*
X147191Y111155D01*
X147691D01*
X148409Y110220D01*
X149567Y109331D01*
X150915Y108773D01*
X151862Y108648D01*
Y114174D01*
X152361D01*
Y114673D01*
X157887D01*
X157763Y115620D01*
X157204Y116969D01*
X156316Y118127D01*
X155158Y119015D01*
Y119331D01*
X156316Y120220D01*
X157204Y121378D01*
X157763Y122726D01*
X157953Y124173D01*
X157763Y125620D01*
X157204Y126969D01*
X156316Y128127D01*
X155158Y129015D01*
Y129331D01*
X156316Y130220D01*
X157204Y131378D01*
X157763Y132726D01*
X157953Y134173D01*
X157763Y135620D01*
X157204Y136969D01*
X156316Y138127D01*
X155158Y139015D01*
Y139331D01*
X156316Y140220D01*
X157204Y141378D01*
X157763Y142726D01*
X157953Y144173D01*
X157763Y145620D01*
X157204Y146969D01*
X157100Y147104D01*
X157322Y147553D01*
X187808D01*
Y85420D01*
D02*
G37*
G36*
X192530Y271469D02*
X192154Y271139D01*
X191339Y271247D01*
X153543D01*
X152630Y271127D01*
X151778Y270774D01*
X151047Y270213D01*
X150653Y269699D01*
X150157Y269634D01*
X150039Y269724D01*
X149261Y270047D01*
X148925Y270091D01*
Y266928D01*
Y263767D01*
X149261Y263811D01*
X149597Y263951D01*
X150013Y263673D01*
Y250774D01*
X146850D01*
X145937Y250654D01*
X145085Y250301D01*
X144354Y249740D01*
X143793Y249009D01*
X143440Y248158D01*
X143320Y247244D01*
X143440Y246330D01*
X143793Y245479D01*
X144354Y244748D01*
X145085Y244187D01*
X145937Y243834D01*
X146850Y243714D01*
X153543D01*
X154457Y243834D01*
X155308Y244187D01*
X156040Y244748D01*
X156600Y245479D01*
X156953Y246330D01*
X157073Y247244D01*
Y264186D01*
X187808D01*
Y259859D01*
X187335Y259698D01*
X186994Y260143D01*
X185845Y261025D01*
X184507Y261579D01*
X183571Y261702D01*
Y256220D01*
X182571D01*
Y261702D01*
X181635Y261579D01*
X180297Y261025D01*
X179148Y260143D01*
X178321Y259065D01*
X177821D01*
X176994Y260143D01*
X175845Y261025D01*
X174507Y261579D01*
X173071Y261768D01*
X171635Y261579D01*
X170297Y261025D01*
X169148Y260143D01*
X168267Y258994D01*
X167712Y257656D01*
X167523Y256221D01*
X167712Y254785D01*
X168267Y253447D01*
X169148Y252298D01*
X170226Y251470D01*
Y250971D01*
X169148Y250143D01*
X168267Y248994D01*
X167712Y247656D01*
X167523Y246220D01*
X167712Y244785D01*
X168267Y243447D01*
X169148Y242298D01*
X170226Y241471D01*
Y240970D01*
X169148Y240143D01*
X168267Y238994D01*
X167712Y237656D01*
X167523Y236221D01*
X167712Y234785D01*
X168267Y233447D01*
X169148Y232298D01*
X170226Y231470D01*
Y230971D01*
X169148Y230143D01*
X168267Y228994D01*
X168174Y228769D01*
X161221D01*
X160245Y228575D01*
X159418Y228023D01*
X158865Y227196D01*
X158775Y226740D01*
X158280Y226666D01*
X158180Y226854D01*
X157192Y228058D01*
X155988Y229046D01*
X154615Y229780D01*
X153124Y230232D01*
X151575Y230385D01*
X150025Y230232D01*
X148535Y229780D01*
X147161Y229046D01*
X145958Y228058D01*
X144970Y226854D01*
X144236Y225481D01*
X143784Y223991D01*
X143631Y222441D01*
X143784Y220891D01*
X144236Y219401D01*
X144943Y218078D01*
X144898Y218004D01*
X144898D01*
X144856Y217934D01*
D01*
X144606Y217729D01*
X144606D01*
X144509Y217650D01*
X140362D01*
Y213591D01*
X144815D01*
Y217474D01*
X144998Y217540D01*
D01*
X145215Y217617D01*
D01*
X145286Y217643D01*
X145958Y216824D01*
X147161Y215836D01*
X148535Y215102D01*
X150025Y214650D01*
X151575Y214497D01*
X153124Y214650D01*
X154615Y215102D01*
X155988Y215836D01*
X157192Y216824D01*
X158180Y218028D01*
X158186Y218040D01*
X158671Y217919D01*
Y195364D01*
X139684D01*
X139024Y195637D01*
X138189Y195747D01*
X137354Y195637D01*
X136575Y195315D01*
X135907Y194802D01*
X135394Y194133D01*
X135071Y193355D01*
X134961Y192520D01*
X135071Y191684D01*
X135394Y190906D01*
X135817Y190354D01*
X135394Y189803D01*
X135071Y189024D01*
X134961Y188189D01*
X135028Y187681D01*
X134811Y187433D01*
X134811D01*
Y183374D01*
X144717D01*
Y185640D01*
X166634D01*
X167609Y185834D01*
X168436Y186387D01*
X168989Y187214D01*
X169077Y187658D01*
X169575Y187609D01*
Y182252D01*
X172569D01*
Y181289D01*
X168996D01*
X168021Y181095D01*
X167194Y180543D01*
X166641Y179716D01*
X166447Y178740D01*
Y176459D01*
X165957Y176361D01*
X165689Y177007D01*
X165176Y177676D01*
X164507Y178189D01*
X163729Y178511D01*
X163394Y178556D01*
Y175393D01*
Y172232D01*
X163729Y172276D01*
X164507Y172599D01*
X165176Y173111D01*
X165689Y173780D01*
X165957Y174426D01*
X166447Y174329D01*
Y157077D01*
X148785D01*
X148464Y157323D01*
X147686Y157645D01*
X146850Y157755D01*
X146015Y157645D01*
X145237Y157323D01*
X144568Y156810D01*
X144055Y156141D01*
X143733Y155363D01*
X143634Y154613D01*
X142520D01*
X141606Y154493D01*
X140755Y154140D01*
X140024Y153579D01*
X139462Y152848D01*
X139110Y151996D01*
X138989Y151083D01*
Y148452D01*
X138566Y148127D01*
X137803Y147133D01*
X130610D01*
X129697Y147012D01*
X128845Y146660D01*
X128114Y146099D01*
X127553Y145368D01*
X127200Y144516D01*
X127080Y143602D01*
X127200Y142689D01*
X127553Y141837D01*
X128114Y141106D01*
X128845Y140545D01*
X129697Y140192D01*
X130610Y140072D01*
X138759D01*
X139604Y139423D01*
Y138923D01*
X138566Y138127D01*
X137678Y136969D01*
X137575Y136722D01*
X98710D01*
Y160728D01*
X98516Y161704D01*
X97964Y162531D01*
X97137Y163083D01*
X96161Y163277D01*
X94651D01*
X94330Y163523D01*
X93552Y163846D01*
X92716Y163956D01*
X91881Y163846D01*
X91103Y163523D01*
X90434Y163011D01*
X89921Y162342D01*
X89599Y161564D01*
X89489Y160728D01*
X89599Y159893D01*
X89921Y159115D01*
X90434Y158446D01*
X91103Y157933D01*
X91881Y157611D01*
X92716Y157501D01*
X93237Y157569D01*
X93612Y157239D01*
Y151527D01*
X93307Y151259D01*
X92472Y151149D01*
X91693Y150827D01*
X91025Y150314D01*
X90512Y149645D01*
X90189Y148867D01*
X90079Y148031D01*
X90189Y147196D01*
X90512Y146418D01*
X90758Y146097D01*
Y130582D01*
X90372Y130265D01*
X89764Y130386D01*
X78870D01*
X78230Y130258D01*
X77823Y130550D01*
X77721Y131327D01*
X77368Y132178D01*
X76807Y132910D01*
X76076Y133471D01*
X75225Y133823D01*
X74311Y133944D01*
X35039D01*
X34126Y133823D01*
X33274Y133471D01*
X32543Y132910D01*
X31982Y132178D01*
X31629Y131327D01*
X31509Y130413D01*
Y130386D01*
X12205D01*
X11424Y130230D01*
X10763Y129788D01*
X10321Y129127D01*
X10165Y128347D01*
Y119377D01*
X9843D01*
X8929Y119256D01*
X8077Y118904D01*
X7346Y118343D01*
X6785Y117612D01*
X6433Y116760D01*
X6312Y115847D01*
Y63779D01*
X6433Y62866D01*
X6785Y62014D01*
X7346Y61283D01*
X8077Y60722D01*
X8929Y60370D01*
X9843Y60249D01*
X23635D01*
Y51562D01*
X14724D01*
X13811Y51441D01*
X12959Y51089D01*
X12228Y50528D01*
X11667Y49797D01*
X11315Y48945D01*
X11194Y48031D01*
Y17354D01*
X9181D01*
Y6268D01*
X20268D01*
Y7735D01*
X20741Y7896D01*
X20771Y7858D01*
X21929Y6969D01*
X23277Y6410D01*
X24724Y6220D01*
X26171Y6410D01*
X27520Y6969D01*
X28678Y7858D01*
X29474Y8896D01*
X29974D01*
X30771Y7858D01*
X31929Y6969D01*
X33277Y6410D01*
X34724Y6220D01*
X36171Y6410D01*
X37520Y6969D01*
X38678Y7858D01*
X39474Y8896D01*
X39974D01*
X40771Y7858D01*
X41929Y6969D01*
X43277Y6410D01*
X44724Y6220D01*
X46172Y6410D01*
X47520Y6969D01*
X48678Y7858D01*
X49567Y9015D01*
X50125Y10364D01*
X50315Y11811D01*
X50125Y13258D01*
X49567Y14607D01*
X48678Y15765D01*
X47750Y16476D01*
Y34572D01*
X71028D01*
X71524Y33926D01*
X72600Y33100D01*
X73852Y32581D01*
X75197Y32404D01*
X76541Y32581D01*
X77794Y33100D01*
X78870Y33926D01*
X79695Y35001D01*
X80214Y36254D01*
X80391Y37598D01*
X80214Y38943D01*
X79695Y40195D01*
X78870Y41271D01*
X77794Y42097D01*
X76541Y42616D01*
X75197Y42792D01*
X73852Y42616D01*
X72600Y42097D01*
X71524Y41271D01*
X71028Y40624D01*
X67095D01*
X66766Y41000D01*
X66745Y40839D01*
X60421D01*
X60399Y41000D01*
X60070Y40624D01*
X44724D01*
X43941Y40521D01*
X43211Y40219D01*
X42585Y39738D01*
X42104Y39111D01*
X41802Y38382D01*
X41699Y37598D01*
Y16476D01*
X40771Y15765D01*
X39974Y14727D01*
X39474D01*
X38678Y15765D01*
X37520Y16653D01*
X36171Y17212D01*
X34724Y17402D01*
X33277Y17212D01*
X31929Y16653D01*
X30771Y15765D01*
X29974Y14727D01*
X29474D01*
X28678Y15765D01*
X27520Y16653D01*
X26171Y17212D01*
X24724Y17402D01*
X23277Y17212D01*
X21929Y16653D01*
X20771Y15765D01*
X20741Y15726D01*
X20268Y15887D01*
Y17354D01*
X18255D01*
Y44501D01*
X56299D01*
X57213Y44622D01*
X58064Y44974D01*
X58795Y45535D01*
X59356Y46266D01*
X59709Y47118D01*
X59829Y48031D01*
X59829Y48031D01*
X59829Y48031D01*
Y48031D01*
Y57100D01*
X75633D01*
X75962Y56724D01*
X75906Y56299D01*
X76016Y55464D01*
X76339Y54685D01*
X76852Y54017D01*
X77520Y53504D01*
X78298Y53182D01*
X79134Y53072D01*
X79969Y53182D01*
X80748Y53504D01*
X81068Y53750D01*
X82884D01*
Y32437D01*
X82442Y32254D01*
X81367Y31429D01*
X80541Y30353D01*
X80022Y29100D01*
X79845Y27756D01*
X80022Y26412D01*
X80541Y25159D01*
X81367Y24083D01*
X82442Y23258D01*
X83695Y22739D01*
X85039Y22562D01*
X86384Y22739D01*
X87636Y23258D01*
X88712Y24083D01*
X89538Y25159D01*
X90056Y26412D01*
X90233Y27756D01*
X90056Y29100D01*
X89538Y30353D01*
X88712Y31429D01*
X87982Y31989D01*
Y56299D01*
X87900Y56713D01*
X88217Y57100D01*
X91352D01*
Y47244D01*
X91352Y47244D01*
X91352D01*
Y41381D01*
X91209Y41271D01*
X90384Y40195D01*
X89865Y38943D01*
X89688Y37598D01*
X89865Y36254D01*
X90384Y35001D01*
X91209Y33926D01*
X92285Y33100D01*
X93538Y32581D01*
X94882Y32404D01*
X96226Y32581D01*
X97479Y33100D01*
X98555Y33926D01*
X99380Y35001D01*
X99899Y36254D01*
X100076Y37598D01*
X99899Y38943D01*
X99380Y40195D01*
X98555Y41271D01*
X98412Y41381D01*
Y43714D01*
X146622D01*
Y41110D01*
X163221D01*
Y43714D01*
X191339D01*
X192154Y43821D01*
X192530Y43492D01*
Y2352D01*
X184494D01*
X184334Y2826D01*
X184972Y3315D01*
X185797Y4391D01*
X186316Y5644D01*
X186493Y6988D01*
X186316Y8332D01*
X185797Y9585D01*
X184972Y10661D01*
X183896Y11486D01*
X182643Y12005D01*
X181299Y12182D01*
X179955Y12005D01*
X178702Y11486D01*
X177627Y10661D01*
X176801Y9585D01*
X176282Y8332D01*
X176105Y6988D01*
X176282Y5644D01*
X176801Y4391D01*
X177627Y3315D01*
X178265Y2826D01*
X178104Y2352D01*
X127408D01*
X127247Y2826D01*
X127885Y3315D01*
X128711Y4391D01*
X129230Y5644D01*
X129407Y6988D01*
X129230Y8332D01*
X128711Y9585D01*
X128328Y10084D01*
X128549Y10532D01*
X145866D01*
X146910Y10670D01*
X147883Y11073D01*
X148719Y11714D01*
X149360Y12550D01*
X149763Y13523D01*
X149901Y14567D01*
Y24803D01*
X149763Y25847D01*
X149638Y26150D01*
Y30937D01*
X142095D01*
Y26150D01*
X141969Y25847D01*
X141832Y24803D01*
Y18601D01*
X139468D01*
Y19260D01*
X140386D01*
Y26740D01*
Y30799D01*
X130480D01*
Y26740D01*
Y19260D01*
X131399D01*
Y18601D01*
X117539D01*
X116495Y18464D01*
X115522Y18061D01*
X114687Y17420D01*
X114045Y16584D01*
X113642Y15611D01*
X113505Y14567D01*
Y7381D01*
X100209D01*
Y17256D01*
X89122D01*
Y15788D01*
X88649Y15627D01*
X88619Y15666D01*
X87461Y16555D01*
X86112Y17113D01*
X85165Y17238D01*
Y11712D01*
X84666D01*
Y11213D01*
X79140D01*
X79265Y10266D01*
X79823Y8917D01*
X80658Y7829D01*
X80437Y7381D01*
X73811D01*
X73769Y7436D01*
X73574Y7829D01*
X74409Y8917D01*
X74968Y10266D01*
X75158Y11713D01*
X74968Y13160D01*
X74409Y14508D01*
X73520Y15666D01*
X72363Y16555D01*
X71014Y17113D01*
X69567Y17304D01*
X68120Y17113D01*
X66771Y16555D01*
X65613Y15666D01*
X65584Y15627D01*
X65110Y15788D01*
Y17256D01*
X54024D01*
Y6169D01*
X65110D01*
D01*
X65110D01*
X65139Y6141D01*
Y3347D01*
X65220Y2728D01*
X64890Y2352D01*
X2352D01*
Y147202D01*
X2801Y147423D01*
X3700Y146733D01*
X5049Y146174D01*
X6496Y145984D01*
X7943Y146174D01*
X9292Y146733D01*
X10450Y147621D01*
X11246Y148659D01*
X11746D01*
X12542Y147621D01*
X13701Y146733D01*
X15049Y146174D01*
X16496Y145984D01*
X17943Y146174D01*
X19292Y146733D01*
X20450Y147621D01*
X21246Y148659D01*
X21746D01*
X22543Y147621D01*
X23700Y146733D01*
X25049Y146174D01*
X26496Y145984D01*
X27943Y146174D01*
X29292Y146733D01*
X30450Y147621D01*
X31246Y148659D01*
X31746D01*
X32542Y147621D01*
X33700Y146733D01*
X35049Y146174D01*
X35996Y146049D01*
Y151574D01*
Y157100D01*
X35049Y156975D01*
X33700Y156417D01*
X32542Y155528D01*
X31746Y154490D01*
X31246D01*
X30450Y155528D01*
X29292Y156417D01*
X27943Y156975D01*
X26496Y157166D01*
X25049Y156975D01*
X23700Y156417D01*
X22543Y155528D01*
X21746Y154490D01*
X21246D01*
X20450Y155528D01*
X19292Y156417D01*
X19045Y156519D01*
Y194793D01*
X32017D01*
X32265Y194470D01*
X32933Y193957D01*
X33712Y193634D01*
X34547Y193524D01*
X35383Y193634D01*
X36161Y193957D01*
X36830Y194470D01*
X37342Y195138D01*
X37665Y195917D01*
X37775Y196752D01*
X37665Y197587D01*
X37342Y198366D01*
X37522Y198731D01*
X41349D01*
Y194750D01*
X41102Y194429D01*
X40780Y193650D01*
X40670Y192815D01*
X40780Y191980D01*
X41102Y191201D01*
X41615Y190533D01*
X42284Y190020D01*
X43062Y189697D01*
X43898Y189587D01*
X44733Y189697D01*
X45511Y190020D01*
X46180Y190533D01*
X46693Y191201D01*
X47015Y191980D01*
X47125Y192815D01*
X47015Y193650D01*
X46693Y194429D01*
X46447Y194750D01*
Y201279D01*
X46253Y202255D01*
X45700Y203082D01*
X44873Y203635D01*
X43898Y203829D01*
X6496D01*
X5521Y203635D01*
X4694Y203082D01*
X4141Y202255D01*
X3947Y201279D01*
Y156519D01*
X3700Y156417D01*
X2801Y155726D01*
X2352Y155948D01*
Y275207D01*
X192530D01*
Y271469D01*
D02*
G37*
%LPC*%
G36*
X18693Y98161D02*
X14634D01*
Y93709D01*
X18693D01*
Y98161D01*
D02*
G37*
G36*
X185443Y98024D02*
X180815D01*
Y93395D01*
X181659Y93507D01*
X182912Y94025D01*
X183988Y94851D01*
X184813Y95927D01*
X185332Y97179D01*
X185443Y98024D01*
D02*
G37*
G36*
X58555Y99619D02*
X58220Y99574D01*
X57441Y99252D01*
X56773Y98739D01*
X56260Y98071D01*
X55937Y97292D01*
X55893Y96957D01*
X58555D01*
Y99619D01*
D02*
G37*
G36*
X161350Y100878D02*
X157291D01*
Y96425D01*
X161350D01*
Y100878D01*
D02*
G37*
G36*
X179815Y98024D02*
X175187D01*
X175298Y97179D01*
X175817Y95927D01*
X176642Y94851D01*
X177718Y94025D01*
X178971Y93507D01*
X179815Y93395D01*
Y98024D01*
D02*
G37*
G36*
X125197Y103718D02*
X123853Y103541D01*
X122600Y103022D01*
X121524Y102196D01*
X120699Y101121D01*
X120180Y99868D01*
X120003Y98524D01*
X120180Y97179D01*
X120699Y95927D01*
X121524Y94851D01*
X122600Y94025D01*
X123853Y93507D01*
X125197Y93330D01*
X126541Y93507D01*
X127794Y94025D01*
X128870Y94851D01*
X129695Y95927D01*
X130214Y97179D01*
X130391Y98524D01*
X130214Y99868D01*
X129695Y101121D01*
X128870Y102196D01*
X127794Y103022D01*
X126541Y103541D01*
X125197Y103718D01*
D02*
G37*
G36*
X58555Y95957D02*
X55893D01*
X55937Y95621D01*
X56260Y94843D01*
X56773Y94174D01*
X57441Y93661D01*
X58220Y93339D01*
X58555Y93295D01*
Y95957D01*
D02*
G37*
G36*
X173632Y98024D02*
X169004D01*
Y93395D01*
X169848Y93507D01*
X171101Y94025D01*
X172177Y94851D01*
X173002Y95927D01*
X173521Y97179D01*
X173632Y98024D01*
D02*
G37*
G36*
X168004D02*
X163376D01*
X163487Y97179D01*
X164006Y95927D01*
X164831Y94851D01*
X165907Y94025D01*
X167160Y93507D01*
X168004Y93395D01*
Y98024D01*
D02*
G37*
G36*
Y103652D02*
X167160Y103541D01*
X165907Y103022D01*
X164831Y102196D01*
X164006Y101121D01*
X163487Y99868D01*
X163376Y99024D01*
X168004D01*
Y103652D01*
D02*
G37*
G36*
X48335Y111233D02*
Y108571D01*
X50996D01*
X50952Y108906D01*
X50630Y109685D01*
X50117Y110353D01*
X49448Y110866D01*
X48670Y111188D01*
X48335Y111233D01*
D02*
G37*
G36*
X50996Y107571D02*
X48335D01*
Y104909D01*
X48670Y104953D01*
X49448Y105276D01*
X50117Y105789D01*
X50630Y106457D01*
X50952Y107236D01*
X50996Y107571D01*
D02*
G37*
G36*
X158693Y30937D02*
X151150D01*
Y18669D01*
X151391D01*
Y12992D01*
X151511Y12078D01*
X151864Y11227D01*
X152425Y10496D01*
X153156Y9935D01*
X154008Y9582D01*
X154921Y9462D01*
X155480D01*
Y8039D01*
X167020D01*
Y12991D01*
Y17945D01*
X158451D01*
Y18669D01*
X158693D01*
Y30937D01*
D02*
G37*
G36*
X172079Y12492D02*
X168020D01*
Y8039D01*
X172079D01*
Y12492D01*
D02*
G37*
G36*
X26665Y105799D02*
X24004D01*
X24048Y105464D01*
X24370Y104685D01*
X24883Y104017D01*
X25552Y103504D01*
X26330Y103182D01*
X26665Y103137D01*
Y105799D01*
D02*
G37*
G36*
X179815Y103652D02*
X178971Y103541D01*
X177718Y103022D01*
X176642Y102196D01*
X175817Y101121D01*
X175298Y99868D01*
X175187Y99024D01*
X179815D01*
Y103652D01*
D02*
G37*
G36*
X169004D02*
Y99024D01*
X173632D01*
X173521Y99868D01*
X173002Y101121D01*
X172177Y102196D01*
X171101Y103022D01*
X169848Y103541D01*
X169004Y103652D01*
D02*
G37*
G36*
X161350Y106331D02*
X157291D01*
Y101878D01*
X161350D01*
Y106331D01*
D02*
G37*
G36*
X180815Y103652D02*
Y99024D01*
X185443D01*
X185332Y99868D01*
X184813Y101121D01*
X183988Y102196D01*
X182912Y103022D01*
X181659Y103541D01*
X180815Y103652D01*
D02*
G37*
G36*
X176075Y38673D02*
X173413D01*
X173457Y38338D01*
X173780Y37559D01*
X174293Y36891D01*
X174961Y36378D01*
X175739Y36056D01*
X176075Y36011D01*
Y38673D01*
D02*
G37*
G36*
X140386Y35858D02*
X135933D01*
Y31799D01*
X140386D01*
Y35858D01*
D02*
G37*
G36*
X179737Y38673D02*
X177075D01*
Y36011D01*
X177410Y36056D01*
X178189Y36378D01*
X178857Y36891D01*
X179370Y37559D01*
X179692Y38338D01*
X179737Y38673D01*
D02*
G37*
G36*
X177075Y42335D02*
Y39673D01*
X179737D01*
X179692Y40009D01*
X179370Y40787D01*
X178857Y41456D01*
X178189Y41968D01*
X177410Y42291D01*
X177075Y42335D01*
D02*
G37*
G36*
X176075D02*
X175739Y42291D01*
X174961Y41968D01*
X174293Y41456D01*
X173780Y40787D01*
X173457Y40009D01*
X173413Y39673D01*
X176075D01*
Y42335D01*
D02*
G37*
G36*
X167748Y24303D02*
X164476D01*
Y18669D01*
X167748D01*
Y24303D01*
D02*
G37*
G36*
X163476D02*
X160205D01*
Y18669D01*
X163476D01*
Y24303D01*
D02*
G37*
G36*
Y30937D02*
X160205D01*
Y25303D01*
X163476D01*
Y30937D01*
D02*
G37*
G36*
X134933Y35858D02*
X130480D01*
Y31799D01*
X134933D01*
Y35858D01*
D02*
G37*
G36*
X167748Y30937D02*
X164476D01*
Y25303D01*
X167748D01*
Y30937D01*
D02*
G37*
G36*
X177370Y58674D02*
Y56012D01*
X180032D01*
X179988Y56347D01*
X179665Y57126D01*
X179152Y57794D01*
X178484Y58307D01*
X177705Y58629D01*
X177370Y58674D01*
D02*
G37*
G36*
X176370D02*
X176035Y58629D01*
X175256Y58307D01*
X174588Y57794D01*
X174075Y57126D01*
X173752Y56347D01*
X173708Y56012D01*
X176370D01*
Y58674D01*
D02*
G37*
G36*
X84165Y17238D02*
X83218Y17113D01*
X81870Y16555D01*
X80712Y15666D01*
X79823Y14508D01*
X79265Y13160D01*
X79140Y12213D01*
X84165D01*
Y17238D01*
D02*
G37*
G36*
X18693Y92709D02*
X14634D01*
Y88256D01*
X18693D01*
Y92709D01*
D02*
G37*
G36*
X19480Y82020D02*
X15421D01*
Y79453D01*
X15045Y79123D01*
X14870Y79146D01*
Y75983D01*
Y72822D01*
X15045Y72846D01*
X15421Y72516D01*
Y72114D01*
X19480D01*
Y77066D01*
Y82020D01*
D02*
G37*
G36*
X172079Y17945D02*
X168020D01*
Y13492D01*
X172079D01*
Y17945D01*
D02*
G37*
G36*
X63083Y44500D02*
X62747Y44456D01*
X61969Y44134D01*
X61300Y43621D01*
X60787Y42952D01*
X60465Y42174D01*
X60421Y41839D01*
X63083D01*
Y44500D01*
D02*
G37*
G36*
X64083D02*
Y41839D01*
X66745D01*
X66700Y42174D01*
X66378Y42952D01*
X65865Y43621D01*
X65197Y44134D01*
X64418Y44456D01*
X64083Y44500D01*
D02*
G37*
G36*
X180032Y55012D02*
X177370D01*
Y52350D01*
X177705Y52394D01*
X178484Y52717D01*
X179152Y53229D01*
X179665Y53898D01*
X179988Y54676D01*
X180032Y55012D01*
D02*
G37*
G36*
X176370D02*
X173708D01*
X173752Y54676D01*
X174075Y53898D01*
X174588Y53229D01*
X175256Y52717D01*
X176035Y52394D01*
X176370Y52350D01*
Y55012D01*
D02*
G37*
G36*
X157887Y113673D02*
X152862D01*
Y108648D01*
X153809Y108773D01*
X155158Y109331D01*
X156316Y110220D01*
X157204Y111378D01*
X157763Y112726D01*
X157887Y113673D01*
D02*
G37*
G36*
X130815Y213792D02*
Y211130D01*
X133477D01*
X133433Y211465D01*
X133110Y212244D01*
X132597Y212912D01*
X131929Y213425D01*
X131150Y213748D01*
X130815Y213792D01*
D02*
G37*
G36*
X129815D02*
X129480Y213748D01*
X128701Y213425D01*
X128033Y212912D01*
X127520Y212244D01*
X127197Y211465D01*
X127153Y211130D01*
X129815D01*
Y213792D01*
D02*
G37*
G36*
X139362Y217650D02*
X134909D01*
Y213591D01*
X139362D01*
Y217650D01*
D02*
G37*
G36*
X73339Y240740D02*
X70677D01*
Y238078D01*
X71013Y238123D01*
X71791Y238445D01*
X72459Y238958D01*
X72972Y239626D01*
X73295Y240405D01*
X73339Y240740D01*
D02*
G37*
G36*
X69677D02*
X67015D01*
X67059Y240405D01*
X67382Y239626D01*
X67895Y238958D01*
X68563Y238445D01*
X69342Y238123D01*
X69677Y238078D01*
Y240740D01*
D02*
G37*
G36*
X151862Y208674D02*
X151527Y208629D01*
X150748Y208307D01*
X150080Y207794D01*
X149567Y207126D01*
X149245Y206347D01*
X149200Y206012D01*
X151862D01*
Y208674D01*
D02*
G37*
G36*
X155524Y205012D02*
X152862D01*
Y202350D01*
X153198Y202394D01*
X153976Y202717D01*
X154645Y203229D01*
X155157Y203898D01*
X155480Y204676D01*
X155524Y205012D01*
D02*
G37*
G36*
X152862Y208674D02*
Y206012D01*
X155524D01*
X155480Y206347D01*
X155157Y207126D01*
X154645Y207794D01*
X153976Y208307D01*
X153198Y208629D01*
X152862Y208674D01*
D02*
G37*
G36*
X133477Y210130D02*
X130815D01*
Y207468D01*
X131150Y207512D01*
X131929Y207835D01*
X132597Y208348D01*
X133110Y209016D01*
X133433Y209794D01*
X133477Y210130D01*
D02*
G37*
G36*
X129815D02*
X127153D01*
X127197Y209794D01*
X127520Y209016D01*
X128033Y208348D01*
X128701Y207835D01*
X129480Y207512D01*
X129815Y207468D01*
Y210130D01*
D02*
G37*
G36*
Y245682D02*
X129480Y245637D01*
X128701Y245315D01*
X128033Y244802D01*
X127520Y244133D01*
X127197Y243355D01*
X127153Y243020D01*
X129815D01*
Y245682D01*
D02*
G37*
G36*
X80520Y244402D02*
Y241740D01*
X83182D01*
X83137Y242075D01*
X82815Y242854D01*
X82302Y243522D01*
X81634Y244035D01*
X80855Y244358D01*
X80520Y244402D01*
D02*
G37*
G36*
X130815Y245682D02*
Y243020D01*
X133477D01*
X133433Y243355D01*
X133110Y244133D01*
X132597Y244802D01*
X131929Y245315D01*
X131150Y245637D01*
X130815Y245682D01*
D02*
G37*
G36*
X130512Y273308D02*
X129065Y273117D01*
X127716Y272559D01*
X126558Y271670D01*
X125762Y270632D01*
X125262D01*
X124465Y271670D01*
X123307Y272559D01*
X121959Y273117D01*
X120512Y273308D01*
X119065Y273117D01*
X117716Y272559D01*
X116558Y271670D01*
X115762Y270632D01*
X115262D01*
X114465Y271670D01*
X113307Y272559D01*
X111959Y273117D01*
X110512Y273308D01*
X109065Y273117D01*
X107716Y272559D01*
X106558Y271670D01*
X105762Y270632D01*
X105262D01*
X104465Y271670D01*
X103307Y272559D01*
X101959Y273117D01*
X100512Y273308D01*
X99065Y273117D01*
X97716Y272559D01*
X96558Y271670D01*
X95762Y270632D01*
X95262D01*
X94465Y271670D01*
X93307Y272559D01*
X91959Y273117D01*
X90512Y273308D01*
X89065Y273117D01*
X87716Y272559D01*
X86558Y271670D01*
X85762Y270632D01*
X85262D01*
X84465Y271670D01*
X83307Y272559D01*
X81959Y273117D01*
X80512Y273308D01*
X79065Y273117D01*
X77716Y272559D01*
X76558Y271670D01*
X76529Y271631D01*
X76055Y271792D01*
Y273260D01*
X64969D01*
Y262173D01*
X75171D01*
Y209535D01*
X75059Y209389D01*
X74737Y208611D01*
X74627Y207776D01*
X74737Y206940D01*
X75059Y206162D01*
X75572Y205493D01*
X76240Y204980D01*
X77019Y204658D01*
X77854Y204548D01*
X78690Y204658D01*
X79468Y204980D01*
X80137Y205493D01*
X80650Y206162D01*
X80972Y206940D01*
X81082Y207776D01*
X80972Y208611D01*
X80650Y209389D01*
X80269Y209886D01*
Y238045D01*
X80269Y238045D01*
Y240740D01*
Y241239D01*
Y244435D01*
X80269Y244435D01*
Y261912D01*
X80512Y262125D01*
X81959Y262316D01*
X83307Y262875D01*
X84465Y263763D01*
X85262Y264801D01*
X85762D01*
X86558Y263763D01*
X87716Y262875D01*
X87904Y262797D01*
Y203214D01*
X87658Y202893D01*
X87335Y202115D01*
X87225Y201279D01*
X87335Y200444D01*
X87658Y199666D01*
X88170Y198997D01*
X88839Y198484D01*
X89617Y198162D01*
X90453Y198052D01*
X91288Y198162D01*
X92067Y198484D01*
X92735Y198997D01*
X93248Y199666D01*
X93570Y200444D01*
X93680Y201279D01*
X93570Y202115D01*
X93248Y202893D01*
X93002Y203214D01*
Y207180D01*
X93378Y207510D01*
X94193Y207402D01*
X95028Y207512D01*
X95807Y207835D01*
X96475Y208348D01*
X96497Y208376D01*
X100512D01*
X101487Y208570D01*
X102314Y209123D01*
X102867Y209950D01*
X103061Y210925D01*
Y234014D01*
X103477Y234292D01*
X103495Y234284D01*
X103831Y234240D01*
Y237401D01*
Y240563D01*
X103495Y240519D01*
X103477Y240511D01*
X103061Y240789D01*
Y262772D01*
X103307Y262875D01*
X104465Y263763D01*
X105262Y264801D01*
X105762D01*
X106558Y263763D01*
X107097Y263350D01*
Y239831D01*
X106623Y239670D01*
X106613Y239684D01*
X105945Y240197D01*
X105166Y240519D01*
X104831Y240563D01*
Y237401D01*
Y234240D01*
X105166Y234284D01*
X105945Y234606D01*
X106613Y235119D01*
X106623Y235133D01*
X107097Y234972D01*
Y209120D01*
X106851Y208799D01*
X106528Y208020D01*
X106418Y207185D01*
X106528Y206350D01*
X106851Y205571D01*
X107363Y204903D01*
X108032Y204390D01*
X108810Y204067D01*
X109646Y203957D01*
X110481Y204067D01*
X111259Y204390D01*
X111928Y204903D01*
X112441Y205571D01*
X112763Y206350D01*
X112873Y207185D01*
X112763Y208020D01*
X112441Y208799D01*
X112195Y209120D01*
Y234698D01*
X112668Y234858D01*
X113072Y234332D01*
X113741Y233819D01*
X114519Y233496D01*
X114854Y233452D01*
Y236613D01*
Y239776D01*
X114519Y239732D01*
X113741Y239409D01*
X113072Y238896D01*
X112668Y238370D01*
X112195Y238531D01*
Y262414D01*
X113307Y262875D01*
X114465Y263763D01*
X115262Y264801D01*
X115762D01*
X116558Y263763D01*
X117716Y262875D01*
X118022Y262748D01*
Y239166D01*
X117573Y238945D01*
X116968Y239409D01*
X116190Y239732D01*
X115854Y239776D01*
Y236613D01*
Y233452D01*
X116190Y233496D01*
X116968Y233819D01*
X117573Y234283D01*
X118022Y234062D01*
Y203509D01*
X117776Y203189D01*
X117453Y202410D01*
X117343Y201575D01*
X117453Y200739D01*
X117776Y199961D01*
X118289Y199293D01*
X118957Y198780D01*
X119736Y198457D01*
X120571Y198347D01*
X121406Y198457D01*
X122185Y198780D01*
X122853Y199293D01*
X123366Y199961D01*
X123688Y200739D01*
X123799Y201575D01*
X123688Y202410D01*
X123366Y203189D01*
X123120Y203509D01*
Y262797D01*
X123307Y262875D01*
X124465Y263763D01*
X125262Y264801D01*
X125762D01*
X126558Y263763D01*
X127716Y262875D01*
X129065Y262316D01*
X130512Y262125D01*
X131959Y262316D01*
X133307Y262875D01*
X134465Y263763D01*
X135262Y264801D01*
X135762D01*
X136558Y263763D01*
X137716Y262875D01*
X139065Y262316D01*
X140012Y262191D01*
Y267716D01*
Y273242D01*
X139065Y273117D01*
X137716Y272559D01*
X136558Y271670D01*
X135762Y270632D01*
X135262D01*
X134465Y271670D01*
X133307Y272559D01*
X131959Y273117D01*
X130512Y273308D01*
D02*
G37*
G36*
X141012Y273242D02*
Y267716D01*
Y262191D01*
X141959Y262316D01*
X143307Y262875D01*
X144465Y263763D01*
X145354Y264921D01*
X145365Y264949D01*
X145861Y265014D01*
X146143Y264647D01*
X146811Y264134D01*
X147590Y263811D01*
X147925Y263767D01*
Y266928D01*
Y270091D01*
X147590Y270047D01*
X146811Y269724D01*
X146279Y269316D01*
X145861Y269427D01*
X145776Y269493D01*
X145354Y270512D01*
X144465Y271670D01*
X143307Y272559D01*
X141959Y273117D01*
X141012Y273242D01*
D02*
G37*
G36*
X129815Y242020D02*
X127153D01*
X127197Y241684D01*
X127520Y240906D01*
X128033Y240237D01*
X128701Y239724D01*
X129480Y239402D01*
X129815Y239358D01*
Y242020D01*
D02*
G37*
G36*
X83182Y240740D02*
X80520D01*
Y238078D01*
X80855Y238123D01*
X81634Y238445D01*
X82302Y238958D01*
X82815Y239626D01*
X83137Y240405D01*
X83182Y240740D01*
D02*
G37*
G36*
X133477Y242020D02*
X130815D01*
Y239358D01*
X131150Y239402D01*
X131929Y239724D01*
X132597Y240237D01*
X133110Y240906D01*
X133433Y241684D01*
X133477Y242020D01*
D02*
G37*
G36*
X70677Y244402D02*
Y241740D01*
X73339D01*
X73295Y242075D01*
X72972Y242854D01*
X72459Y243522D01*
X71791Y244035D01*
X71013Y244358D01*
X70677Y244402D01*
D02*
G37*
G36*
X69677D02*
X69342Y244358D01*
X68563Y244035D01*
X67895Y243522D01*
X67382Y242854D01*
X67059Y242075D01*
X67015Y241740D01*
X69677D01*
Y244402D01*
D02*
G37*
G36*
X151862Y205012D02*
X149200D01*
X149245Y204676D01*
X149567Y203898D01*
X150080Y203229D01*
X150748Y202717D01*
X151527Y202394D01*
X151862Y202350D01*
Y205012D01*
D02*
G37*
G36*
X64673Y154737D02*
Y152075D01*
X67335D01*
X67291Y152410D01*
X66968Y153189D01*
X66456Y153857D01*
X65787Y154370D01*
X65009Y154692D01*
X64673Y154737D01*
D02*
G37*
G36*
X113492Y152178D02*
Y149516D01*
X116154D01*
X116110Y149851D01*
X115787Y150630D01*
X115274Y151298D01*
X114606Y151811D01*
X113828Y152133D01*
X113492Y152178D01*
D02*
G37*
G36*
X46496Y157166D02*
X45049Y156975D01*
X43701Y156417D01*
X42542Y155528D01*
X41746Y154490D01*
X41246D01*
X40450Y155528D01*
X39292Y156417D01*
X37943Y156975D01*
X36996Y157100D01*
Y151574D01*
Y146049D01*
X37943Y146174D01*
X39292Y146733D01*
X40450Y147621D01*
X41246Y148659D01*
X41746D01*
X42542Y147621D01*
X43701Y146733D01*
X45049Y146174D01*
X46496Y145984D01*
X47943Y146174D01*
X49292Y146733D01*
X50450Y147621D01*
X50479Y147660D01*
X50953Y147499D01*
Y146031D01*
X62039D01*
Y148613D01*
X62488Y148835D01*
X62559Y148780D01*
X63338Y148457D01*
X63673Y148413D01*
Y151574D01*
Y154737D01*
X63338Y154692D01*
X62559Y154370D01*
X62488Y154315D01*
X62039Y154536D01*
Y157118D01*
X50953D01*
Y155650D01*
X50479Y155490D01*
X50450Y155528D01*
X49292Y156417D01*
X47943Y156975D01*
X46496Y157166D01*
D02*
G37*
G36*
X151469Y173516D02*
X148807D01*
X148851Y173180D01*
X149173Y172402D01*
X149686Y171733D01*
X150355Y171221D01*
X151133Y170898D01*
X151469Y170854D01*
Y173516D01*
D02*
G37*
G36*
X144717Y182374D02*
X134811D01*
Y178315D01*
Y174399D01*
X120965D01*
X119989Y174205D01*
X119162Y173653D01*
X118610Y172826D01*
X118416Y171850D01*
Y166339D01*
X118416Y166339D01*
X118416D01*
X118610Y165363D01*
X119162Y164536D01*
X119989Y163984D01*
X120965Y163790D01*
X122016D01*
Y161386D01*
X137196D01*
X137362Y160985D01*
X137875Y160316D01*
X138544Y159803D01*
X139322Y159481D01*
X140157Y159371D01*
X140993Y159481D01*
X141771Y159803D01*
X142440Y160316D01*
X142953Y160985D01*
X143275Y161763D01*
X143385Y162598D01*
X143275Y163434D01*
X142953Y164212D01*
X142707Y164533D01*
Y165748D01*
X142512Y166724D01*
X141960Y167550D01*
X141954Y167726D01*
X142046Y167797D01*
X142559Y168465D01*
X142881Y169243D01*
X142991Y170079D01*
X142941Y170459D01*
X143271Y170835D01*
X144717D01*
Y178315D01*
Y182374D01*
D02*
G37*
G36*
X112492Y148516D02*
X109830D01*
X109874Y148180D01*
X110197Y147402D01*
X110710Y146733D01*
X111378Y146221D01*
X112157Y145898D01*
X112492Y145854D01*
Y148516D01*
D02*
G37*
G36*
X66331Y123811D02*
X62272D01*
Y119358D01*
X66331D01*
Y123811D01*
D02*
G37*
G36*
X116154Y148516D02*
X113492D01*
Y145854D01*
X113828Y145898D01*
X114606Y146221D01*
X115274Y146733D01*
X115787Y147402D01*
X116110Y148180D01*
X116154Y148516D01*
D02*
G37*
G36*
X112492Y152178D02*
X112157Y152133D01*
X111378Y151811D01*
X110710Y151298D01*
X110197Y150630D01*
X109874Y149851D01*
X109830Y149516D01*
X112492D01*
Y152178D01*
D02*
G37*
G36*
X67335Y151075D02*
X64673D01*
Y148413D01*
X65009Y148457D01*
X65787Y148780D01*
X66456Y149293D01*
X66968Y149961D01*
X67291Y150739D01*
X67335Y151075D01*
D02*
G37*
G36*
X78359Y190839D02*
X75697D01*
Y188177D01*
X76032Y188221D01*
X76811Y188543D01*
X77479Y189056D01*
X77992Y189725D01*
X78315Y190503D01*
X78359Y190839D01*
D02*
G37*
G36*
X74697D02*
X72035D01*
X72079Y190503D01*
X72402Y189725D01*
X72915Y189056D01*
X73583Y188543D01*
X74361Y188221D01*
X74697Y188177D01*
Y190839D01*
D02*
G37*
G36*
Y194500D02*
X74361Y194456D01*
X73583Y194134D01*
X72915Y193621D01*
X72402Y192952D01*
X72079Y192174D01*
X72035Y191839D01*
X74697D01*
Y194500D01*
D02*
G37*
G36*
X144815Y212591D02*
X134909D01*
Y208531D01*
Y201051D01*
X136686D01*
X136831Y200886D01*
X136941Y200050D01*
X137264Y199272D01*
X137777Y198604D01*
X138445Y198091D01*
X139224Y197768D01*
X140059Y197658D01*
X140894Y197768D01*
X141673Y198091D01*
X142341Y198604D01*
X142854Y199272D01*
X143177Y200050D01*
X143287Y200886D01*
X143432Y201051D01*
X144815D01*
Y208531D01*
Y212591D01*
D02*
G37*
G36*
X75697Y194500D02*
Y191839D01*
X78359D01*
X78315Y192174D01*
X77992Y192952D01*
X77479Y193621D01*
X76811Y194134D01*
X76032Y194456D01*
X75697Y194500D01*
D02*
G37*
G36*
X162394Y174894D02*
X159732D01*
X159776Y174558D01*
X160099Y173780D01*
X160611Y173111D01*
X161280Y172599D01*
X162058Y172276D01*
X162394Y172232D01*
Y174894D01*
D02*
G37*
G36*
X155130Y173516D02*
X152469D01*
Y170854D01*
X152804Y170898D01*
X153582Y171221D01*
X154251Y171733D01*
X154764Y172402D01*
X155086Y173180D01*
X155130Y173516D01*
D02*
G37*
G36*
X151469Y177178D02*
X151133Y177133D01*
X150355Y176811D01*
X149686Y176298D01*
X149173Y175630D01*
X148851Y174851D01*
X148807Y174516D01*
X151469D01*
Y177178D01*
D02*
G37*
G36*
X162394Y178556D02*
X162058Y178511D01*
X161280Y178189D01*
X160611Y177676D01*
X160099Y177007D01*
X159776Y176229D01*
X159732Y175894D01*
X162394D01*
Y178556D01*
D02*
G37*
G36*
X152469Y177178D02*
Y174516D01*
X155130D01*
X155086Y174851D01*
X154764Y175630D01*
X154251Y176298D01*
X153582Y176811D01*
X152804Y177133D01*
X152469Y177178D01*
D02*
G37*
%LPD*%
D11*
X149311Y101378D02*
D03*
X156791D02*
D03*
X160039Y12992D02*
D03*
X167520D02*
D03*
X19193Y93209D02*
D03*
X26673D02*
D03*
X74311Y124311D02*
D03*
X66831D02*
D03*
X19980Y77067D02*
D03*
X27461D02*
D03*
X67126Y96457D02*
D03*
X74606D02*
D03*
X134055Y166339D02*
D03*
X126575D02*
D03*
D12*
X139862Y213091D02*
D03*
Y205610D02*
D03*
X139764Y175394D02*
D03*
Y182874D02*
D03*
X132677Y69095D02*
D03*
Y61614D02*
D03*
X135433Y31299D02*
D03*
Y23819D02*
D03*
X41043Y115847D02*
D03*
Y108366D02*
D03*
D17*
X157894Y67520D02*
D03*
X152894D02*
D03*
X147894D02*
D03*
X142894D02*
D03*
X157894Y87598D02*
D03*
X152894D02*
D03*
X147894D02*
D03*
X142894D02*
D03*
D18*
X135433Y14567D02*
X145866D01*
X135433D02*
Y23819D01*
X145866Y14567D02*
Y24803D01*
X117539Y14567D02*
X135433D01*
X69173Y3347D02*
Y11713D01*
Y3347D02*
X117539D01*
Y14567D01*
D19*
X84646Y70669D02*
Y106693D01*
X54724D02*
X54806Y119291D01*
X146850Y154528D02*
X168996D01*
Y178740D01*
X31102Y105905D02*
X33071D01*
X25984Y111417D02*
X31102D01*
Y105905D02*
Y111417D01*
X26673Y63779D02*
X27165Y63287D01*
X41043Y120768D02*
X41437D01*
X80512Y267717D02*
X80709Y267520D01*
X121260Y267677D02*
X121299Y267717D01*
X26673Y93209D02*
Y98524D01*
X134055Y165748D02*
Y166339D01*
X175118Y178740D02*
Y187795D01*
X168996Y178740D02*
X175118D01*
X6496Y151575D02*
Y201279D01*
X43898D01*
Y192815D02*
Y201279D01*
X93307Y124173D02*
X142520D01*
X96161Y134173D02*
X142520D01*
X96161D02*
Y160728D01*
X92716D02*
X96161D01*
X77720Y267717D02*
X80512D01*
X77720Y207910D02*
X77854Y207776D01*
X77720Y207910D02*
Y267717D01*
X16496Y151575D02*
Y197343D01*
X33957D01*
X34547Y196752D01*
X94193Y210925D02*
X100512D01*
Y267717D01*
X109646D02*
X110512D01*
X109646Y207185D02*
Y267717D01*
X120512D02*
X120571D01*
Y201575D02*
Y267717D01*
X138189Y192520D02*
Y192815D01*
X161221D02*
Y226220D01*
X173071D01*
X138189Y192815D02*
X161221D01*
X138189Y188189D02*
X166634D01*
Y216220D01*
X173071D01*
X90453Y267717D02*
X90512D01*
X90453Y201279D02*
Y267717D01*
X120965Y166339D02*
X126575D01*
X120965D02*
Y171850D01*
X139764D01*
Y175394D01*
X93307Y124173D02*
Y148031D01*
X140157Y162598D02*
Y165748D01*
X134055D02*
X140157D01*
X139764Y170079D02*
Y171850D01*
X54724Y106693D02*
X84646D01*
X85039Y27756D02*
X85433D01*
X79134Y56299D02*
X85433D01*
Y27756D02*
Y56299D01*
X74606Y96457D02*
Y96850D01*
Y102756D01*
X41043Y115847D02*
Y120768D01*
X139862Y200886D02*
Y205610D01*
D20*
X41043Y108071D02*
X47835D01*
X44724Y11811D02*
Y37598D01*
X75197D01*
X41043Y108071D02*
Y108366D01*
X59055Y96457D02*
X67126D01*
X132677Y57087D02*
Y61614D01*
Y57087D02*
X152894D01*
Y67126D01*
X142894Y77559D02*
Y87992D01*
X108268Y77559D02*
X142894D01*
X108268Y64961D02*
Y77559D01*
X68898Y64961D02*
X108268D01*
X68898D02*
Y88976D01*
X80709D01*
Y96850D01*
X38189Y64961D02*
X68898D01*
X38189Y57087D02*
Y64961D01*
Y93209D01*
X26673D02*
X38189D01*
X74606Y96850D02*
X80709D01*
X142894Y87992D02*
Y101673D01*
X147146D01*
X148622Y103150D01*
D21*
X35039Y130413D02*
X74311D01*
X35039Y116043D02*
Y130413D01*
X154921Y12992D02*
X160039D01*
X154921D02*
Y24803D01*
X14724Y48031D02*
X27165D01*
X14724Y11811D02*
Y48031D01*
X27165D02*
Y63287D01*
X74311Y124311D02*
Y130413D01*
X9843Y115847D02*
X41043D01*
X9843Y63779D02*
Y115847D01*
Y63779D02*
X26673D01*
X27461Y77067D02*
X33760D01*
X27165Y63681D02*
X33760D01*
X27165Y63287D02*
Y63681D01*
X33760D02*
Y77067D01*
X142520Y144173D02*
Y151083D01*
X183071Y246220D02*
X191339D01*
X153543Y267717D02*
X191339D01*
Y246220D02*
Y267717D01*
X146850Y247244D02*
X153543D01*
Y267717D01*
X183071Y236221D02*
Y246220D01*
X130610Y143602D02*
X141949D01*
X142520Y144173D01*
Y151083D02*
X191339D01*
Y246220D01*
X94882Y47244D02*
X154921D01*
X94882Y37598D02*
Y47244D01*
Y60630D01*
X157894Y81890D02*
X191339D01*
Y151083D01*
X27165Y48031D02*
X56299D01*
Y60630D01*
X94882D01*
X157894Y81890D02*
Y87598D01*
Y87992D01*
X191339Y47244D02*
Y81890D01*
X154921Y47244D02*
X191339D01*
X74311Y118799D02*
Y124311D01*
D22*
X168504Y98524D02*
D03*
X137008D02*
D03*
X125197D02*
D03*
X180315D02*
D03*
X124213Y6988D02*
D03*
X181299D02*
D03*
X75197Y37598D02*
D03*
X94882D02*
D03*
X85039Y27756D02*
D03*
X75197Y80905D02*
D03*
X94882D02*
D03*
X85039Y71063D02*
D03*
D23*
X183071Y216220D02*
D03*
D24*
X173071D02*
D03*
X183071Y226220D02*
D03*
X173071D02*
D03*
X183071Y236221D02*
D03*
X173071D02*
D03*
X183071Y246220D02*
D03*
X173071D02*
D03*
X183071Y256221D02*
D03*
X173071D02*
D03*
D25*
X16496Y151575D02*
D03*
X46496D02*
D03*
X36496D02*
D03*
X26496D02*
D03*
X6496D02*
D03*
X84665Y11713D02*
D03*
X69567D02*
D03*
X24724Y11811D02*
D03*
X34724D02*
D03*
X44724D02*
D03*
X185118Y187795D02*
D03*
X185315Y167323D02*
D03*
X152362Y114173D02*
D03*
Y124173D02*
D03*
Y134173D02*
D03*
Y144173D02*
D03*
X142520Y114173D02*
D03*
Y124173D02*
D03*
Y134173D02*
D03*
Y144173D02*
D03*
X80512Y267717D02*
D03*
X90512D02*
D03*
X100512D02*
D03*
X110512D02*
D03*
X120512D02*
D03*
X130512D02*
D03*
X140512D02*
D03*
D26*
X56496Y151575D02*
D03*
X94665Y11713D02*
D03*
X59567D02*
D03*
X14724Y11811D02*
D03*
X175118Y187795D02*
D03*
X175315Y167323D02*
D03*
X70512Y267717D02*
D03*
D27*
X111024Y113386D02*
D03*
X151575Y222441D02*
D03*
D28*
X162894Y175394D02*
D03*
X54806Y119291D02*
D03*
X27165Y106299D02*
D03*
X146850Y154528D02*
D03*
X33071Y105905D02*
D03*
X25984Y111417D02*
D03*
X148425Y266929D02*
D03*
X70177Y241240D02*
D03*
X80020D02*
D03*
X26378Y99114D02*
D03*
X47835Y108071D02*
D03*
X74508Y118799D02*
D03*
X41437Y120768D02*
D03*
X33760Y63681D02*
D03*
X14370Y75984D02*
D03*
X138189Y188189D02*
D03*
Y192520D02*
D03*
X139764Y170079D02*
D03*
X140059Y200886D02*
D03*
X34547Y196752D02*
D03*
X43898Y192815D02*
D03*
X93307Y148031D02*
D03*
X92716Y160728D02*
D03*
X77854Y207776D02*
D03*
X109646Y207185D02*
D03*
X120571Y201575D02*
D03*
X94193Y210630D02*
D03*
X90453Y201279D02*
D03*
X130610Y143602D02*
D03*
X140157Y162598D02*
D03*
X146850Y247244D02*
D03*
X130315Y242520D02*
D03*
X104331Y237402D02*
D03*
X115354Y236614D02*
D03*
X130315Y210630D02*
D03*
X64173Y151575D02*
D03*
X75197Y191339D02*
D03*
X112992Y149016D02*
D03*
X152362Y205512D02*
D03*
X151969Y174016D02*
D03*
X63583Y41339D02*
D03*
X54724Y106693D02*
D03*
X79134Y56299D02*
D03*
X74803Y102756D02*
D03*
X59055Y96457D02*
D03*
X38189Y57087D02*
D03*
X176575Y39173D02*
D03*
X176870Y55512D02*
D03*
D29*
X154921Y47244D02*
D03*
D30*
X145866Y24803D02*
D03*
X154921D02*
D03*
X163976D02*
D03*
D31*
X132677Y69095D02*
Y73622D01*
X142894D01*
Y67126D02*
Y73622D01*
M02*
