%FSLAX25Y25*%
%MOIN*%
G70*
G01*
G75*
G04 Layer_Color=16711935*
%ADD10O,0.02756X0.09843*%
%ADD11R,0.05118X0.05906*%
%ADD12R,0.05906X0.05118*%
%ADD13R,0.05118X0.06299*%
%ADD14R,0.05906X0.01063*%
%ADD15R,0.01063X0.05906*%
%ADD16O,0.05906X0.02362*%
%ADD17O,0.02362X0.05906*%
%ADD18C,0.04000*%
%ADD19C,0.01000*%
%ADD20C,0.02000*%
%ADD21C,0.03000*%
%ADD22C,0.06299*%
%ADD23R,0.07000X0.07000*%
%ADD24C,0.07000*%
%ADD25C,0.07087*%
%ADD26R,0.07087X0.07087*%
%ADD27C,0.08661*%
%ADD28C,0.02400*%
%ADD29R,0.12598X0.08268*%
%ADD30R,0.03543X0.08268*%
%ADD31C,0.01500*%
%ADD32C,0.00984*%
%ADD33C,0.02362*%
%ADD34C,0.00787*%
%ADD35C,0.00500*%
%ADD36C,0.00055*%
%ADD37C,0.00073*%
%ADD38C,0.00614*%
%ADD39C,0.00400*%
%ADD40O,0.03556X0.10642*%
%ADD41R,0.05918X0.06706*%
%ADD42R,0.06706X0.05918*%
%ADD43R,0.05918X0.07099*%
%ADD44R,0.06706X0.01863*%
%ADD45R,0.01863X0.06706*%
%ADD46O,0.06706X0.03162*%
%ADD47O,0.03162X0.06706*%
%ADD48C,0.07099*%
%ADD49R,0.07800X0.07800*%
%ADD50C,0.07800*%
%ADD51C,0.07887*%
%ADD52R,0.07887X0.07887*%
%ADD53C,0.09461*%
%ADD54C,0.03200*%
%ADD55R,0.13398X0.09068*%
%ADD56R,0.04343X0.09068*%
D41*
X149311Y101378D02*
D03*
X156791D02*
D03*
X160039Y12992D02*
D03*
X167520D02*
D03*
X19193Y93209D02*
D03*
X26673D02*
D03*
X74311Y124311D02*
D03*
X66831D02*
D03*
X19980Y77067D02*
D03*
X27461D02*
D03*
X67126Y96457D02*
D03*
X74606D02*
D03*
X134055Y166339D02*
D03*
X126575D02*
D03*
D42*
X139862Y213091D02*
D03*
Y205610D02*
D03*
X139764Y175394D02*
D03*
Y182874D02*
D03*
X132677Y69095D02*
D03*
Y61614D02*
D03*
X135433Y31299D02*
D03*
Y23819D02*
D03*
X41043Y115847D02*
D03*
Y108366D02*
D03*
D47*
X157894Y67520D02*
D03*
X152894D02*
D03*
X147894D02*
D03*
X142894D02*
D03*
X157894Y87598D02*
D03*
X152894D02*
D03*
X147894D02*
D03*
X142894D02*
D03*
D48*
X168504Y98524D02*
D03*
X137008D02*
D03*
X125197D02*
D03*
X180315D02*
D03*
X124213Y6988D02*
D03*
X181299D02*
D03*
X75197Y37598D02*
D03*
X94882D02*
D03*
X85039Y27756D02*
D03*
X75197Y80905D02*
D03*
X94882D02*
D03*
X85039Y71063D02*
D03*
D49*
X183071Y216220D02*
D03*
D50*
X173071D02*
D03*
X183071Y226220D02*
D03*
X173071D02*
D03*
X183071Y236221D02*
D03*
X173071D02*
D03*
X183071Y246220D02*
D03*
X173071D02*
D03*
X183071Y256221D02*
D03*
X173071D02*
D03*
D51*
X16496Y151575D02*
D03*
X46496D02*
D03*
X36496D02*
D03*
X26496D02*
D03*
X6496D02*
D03*
X84665Y11713D02*
D03*
X69567D02*
D03*
X24724Y11811D02*
D03*
X34724D02*
D03*
X44724D02*
D03*
X185118Y187795D02*
D03*
X185315Y167323D02*
D03*
X152362Y114173D02*
D03*
Y124173D02*
D03*
Y134173D02*
D03*
Y144173D02*
D03*
X142520Y114173D02*
D03*
Y124173D02*
D03*
Y134173D02*
D03*
Y144173D02*
D03*
X80512Y267717D02*
D03*
X90512D02*
D03*
X100512D02*
D03*
X110512D02*
D03*
X120512D02*
D03*
X130512D02*
D03*
X140512D02*
D03*
D52*
X56496Y151575D02*
D03*
X94665Y11713D02*
D03*
X59567D02*
D03*
X14724Y11811D02*
D03*
X175118Y187795D02*
D03*
X175315Y167323D02*
D03*
X70512Y267717D02*
D03*
D53*
X111024Y113386D02*
D03*
X151575Y222441D02*
D03*
D54*
X162894Y175394D02*
D03*
X54806Y119291D02*
D03*
X27165Y106299D02*
D03*
X146850Y154528D02*
D03*
X33071Y105905D02*
D03*
X25984Y111417D02*
D03*
X148425Y266929D02*
D03*
X70177Y241240D02*
D03*
X80020D02*
D03*
X26378Y99114D02*
D03*
X47835Y108071D02*
D03*
X74508Y118799D02*
D03*
X41437Y120768D02*
D03*
X33760Y63681D02*
D03*
X14370Y75984D02*
D03*
X138189Y188189D02*
D03*
Y192520D02*
D03*
X139764Y170079D02*
D03*
X140059Y200886D02*
D03*
X34547Y196752D02*
D03*
X43898Y192815D02*
D03*
X93307Y148031D02*
D03*
X92716Y160728D02*
D03*
X77854Y207776D02*
D03*
X109646Y207185D02*
D03*
X120571Y201575D02*
D03*
X94193Y210630D02*
D03*
X90453Y201279D02*
D03*
X130610Y143602D02*
D03*
X140157Y162598D02*
D03*
X146850Y247244D02*
D03*
X130315Y242520D02*
D03*
X104331Y237402D02*
D03*
X115354Y236614D02*
D03*
X130315Y210630D02*
D03*
X64173Y151575D02*
D03*
X75197Y191339D02*
D03*
X112992Y149016D02*
D03*
X152362Y205512D02*
D03*
X151969Y174016D02*
D03*
X63583Y41339D02*
D03*
X54724Y106693D02*
D03*
X79134Y56299D02*
D03*
X74803Y102756D02*
D03*
X59055Y96457D02*
D03*
X38189Y57087D02*
D03*
X176575Y39173D02*
D03*
X176870Y55512D02*
D03*
D55*
X154921Y47244D02*
D03*
D56*
X145866Y24803D02*
D03*
X154921D02*
D03*
X163976D02*
D03*
M02*
