%FSLAX25Y25*%
%MOIN*%
G70*
G01*
G75*
G04 Layer_Color=8388736*
%ADD10O,0.02756X0.09843*%
%ADD11R,0.05118X0.05906*%
%ADD12R,0.05906X0.05118*%
%ADD13R,0.05118X0.06299*%
%ADD14R,0.05906X0.01063*%
%ADD15R,0.01063X0.05906*%
%ADD16O,0.05906X0.02362*%
%ADD17O,0.02362X0.05906*%
%ADD18C,0.04000*%
%ADD19C,0.01000*%
%ADD20C,0.02000*%
%ADD21C,0.03000*%
%ADD22C,0.06299*%
%ADD23R,0.07000X0.07000*%
%ADD24C,0.07000*%
%ADD25C,0.07087*%
%ADD26R,0.07087X0.07087*%
%ADD27C,0.08661*%
%ADD28C,0.02400*%
%ADD29R,0.12598X0.08268*%
%ADD30R,0.03543X0.08268*%
%ADD31C,0.01500*%
%ADD32C,0.00984*%
%ADD33C,0.02362*%
%ADD34C,0.00787*%
%ADD35C,0.00500*%
%ADD36C,0.00055*%
%ADD37C,0.00073*%
%ADD38C,0.00614*%
%ADD39C,0.00400*%
%ADD40O,0.03556X0.10642*%
%ADD41R,0.05918X0.06706*%
%ADD42R,0.06706X0.05918*%
%ADD43R,0.05918X0.07099*%
%ADD44R,0.06706X0.01863*%
%ADD45R,0.01863X0.06706*%
%ADD46O,0.06706X0.03162*%
%ADD47O,0.03162X0.06706*%
%ADD48C,0.07099*%
%ADD49R,0.07800X0.07800*%
%ADD50C,0.07800*%
%ADD51C,0.07887*%
%ADD52R,0.07887X0.07887*%
%ADD53C,0.09461*%
%ADD54C,0.03200*%
D40*
X59508Y107579D02*
D03*
X64508D02*
D03*
X69508D02*
D03*
X74508D02*
D03*
X79508D02*
D03*
X84508D02*
D03*
X89508D02*
D03*
X59508Y131988D02*
D03*
X64508D02*
D03*
X69508D02*
D03*
X74508D02*
D03*
X79508D02*
D03*
X84508D02*
D03*
X89508D02*
D03*
D41*
X100787Y143898D02*
D03*
X108268D02*
D03*
X44390Y126279D02*
D03*
X36909D02*
D03*
X16831Y81791D02*
D03*
X9350D02*
D03*
X28740Y126279D02*
D03*
X21260D02*
D03*
X117224Y143898D02*
D03*
X124705D02*
D03*
X67618Y185138D02*
D03*
X75098D02*
D03*
X68898Y151378D02*
D03*
X76378D02*
D03*
X163583Y168110D02*
D03*
X156102D02*
D03*
X156201Y188583D02*
D03*
X163681D02*
D03*
X26280Y93209D02*
D03*
X33760D02*
D03*
X44390Y136516D02*
D03*
X36909D02*
D03*
X33366Y81791D02*
D03*
X25886D02*
D03*
X16831Y93209D02*
D03*
X9350D02*
D03*
X21161Y136122D02*
D03*
X28642D02*
D03*
X69095Y141732D02*
D03*
X76575D02*
D03*
X26280Y41240D02*
D03*
X33760D02*
D03*
X58465Y41339D02*
D03*
X50984D02*
D03*
D42*
X9350Y102067D02*
D03*
Y109547D02*
D03*
X24902Y31988D02*
D03*
Y24508D02*
D03*
X35138D02*
D03*
Y31988D02*
D03*
X99213Y232874D02*
D03*
Y225394D02*
D03*
X122835D02*
D03*
Y232874D02*
D03*
X130118Y255315D02*
D03*
Y247835D02*
D03*
X79921D02*
D03*
Y255315D02*
D03*
X70079D02*
D03*
Y247835D02*
D03*
X46457Y64370D02*
D03*
Y56890D02*
D03*
X9350Y126083D02*
D03*
Y118602D02*
D03*
X15059Y31988D02*
D03*
Y24508D02*
D03*
X98032Y122933D02*
D03*
Y115453D02*
D03*
X44980Y31988D02*
D03*
Y24508D02*
D03*
X58661Y72638D02*
D03*
Y80118D02*
D03*
X154429Y244291D02*
D03*
Y251772D02*
D03*
X140945Y247835D02*
D03*
Y255315D02*
D03*
X119685Y255118D02*
D03*
Y247638D02*
D03*
X109843Y247835D02*
D03*
Y255315D02*
D03*
X99606D02*
D03*
Y247835D02*
D03*
X89764D02*
D03*
Y255315D02*
D03*
X74508Y229626D02*
D03*
Y222146D02*
D03*
X13878Y56791D02*
D03*
Y64272D02*
D03*
X154429Y259646D02*
D03*
Y267126D02*
D03*
D43*
X67224Y175295D02*
D03*
X76279Y160335D02*
D03*
X67224D02*
D03*
X76279Y175295D02*
D03*
D44*
X84153Y169783D02*
D03*
X146161Y187500D02*
D03*
X84153Y163878D02*
D03*
X146161Y175689D02*
D03*
Y179626D02*
D03*
Y173721D02*
D03*
Y209154D02*
D03*
Y207185D02*
D03*
Y205217D02*
D03*
Y201279D02*
D03*
Y199311D02*
D03*
Y197343D02*
D03*
Y195374D02*
D03*
Y193405D02*
D03*
Y191437D02*
D03*
Y189469D02*
D03*
Y185531D02*
D03*
Y183563D02*
D03*
Y177657D02*
D03*
Y171752D02*
D03*
Y167815D02*
D03*
Y163878D02*
D03*
X84153Y161909D02*
D03*
Y165847D02*
D03*
Y167815D02*
D03*
Y171752D02*
D03*
Y173721D02*
D03*
Y175689D02*
D03*
Y177657D02*
D03*
Y179626D02*
D03*
Y181595D02*
D03*
Y183563D02*
D03*
Y185531D02*
D03*
Y187500D02*
D03*
Y189469D02*
D03*
Y191437D02*
D03*
Y193405D02*
D03*
Y195374D02*
D03*
Y201279D02*
D03*
Y203248D02*
D03*
Y205217D02*
D03*
Y207185D02*
D03*
Y209154D02*
D03*
X146161Y169783D02*
D03*
Y203248D02*
D03*
Y181595D02*
D03*
X84153Y199311D02*
D03*
Y197343D02*
D03*
X146161Y161909D02*
D03*
Y165847D02*
D03*
D45*
X97441Y154528D02*
D03*
X99410D02*
D03*
X132874D02*
D03*
X130905D02*
D03*
X95472Y216535D02*
D03*
X93504D02*
D03*
X128937Y154528D02*
D03*
X91535Y216535D02*
D03*
X99410D02*
D03*
X101378D02*
D03*
X103347D02*
D03*
X105315D02*
D03*
X107283D02*
D03*
X109252D02*
D03*
X111221D02*
D03*
X113189D02*
D03*
X115157D02*
D03*
X117126D02*
D03*
X119095D02*
D03*
X121063D02*
D03*
X123031D02*
D03*
X126969D02*
D03*
X128937D02*
D03*
X132874D02*
D03*
X134843D02*
D03*
X136811D02*
D03*
X138779D02*
D03*
Y154528D02*
D03*
X136811D02*
D03*
X134843D02*
D03*
X126969D02*
D03*
X125000D02*
D03*
X123031D02*
D03*
X119095D02*
D03*
X117126D02*
D03*
X115157D02*
D03*
X113189D02*
D03*
X111221D02*
D03*
X109252D02*
D03*
X107283D02*
D03*
X105315D02*
D03*
X103347D02*
D03*
X95473D02*
D03*
X93504D02*
D03*
X91535D02*
D03*
X97441Y216535D02*
D03*
X101378Y154528D02*
D03*
X121063D02*
D03*
X125000Y216535D02*
D03*
X130905D02*
D03*
D46*
X20079Y116555D02*
D03*
Y111555D02*
D03*
Y106555D02*
D03*
Y101555D02*
D03*
X40157Y116555D02*
D03*
Y111555D02*
D03*
Y106555D02*
D03*
Y101555D02*
D03*
D47*
X22913Y50492D02*
D03*
X27913D02*
D03*
X32913D02*
D03*
X37913D02*
D03*
X22913Y70571D02*
D03*
X27913D02*
D03*
X32913D02*
D03*
X37913D02*
D03*
D48*
X168504Y98524D02*
D03*
X137008D02*
D03*
X125197D02*
D03*
X180315D02*
D03*
X124213Y6988D02*
D03*
X181299D02*
D03*
X75197Y37598D02*
D03*
X94882D02*
D03*
X85039Y27756D02*
D03*
X75197Y80905D02*
D03*
X94882D02*
D03*
X85039Y71063D02*
D03*
D49*
X183071Y216220D02*
D03*
D50*
X173071D02*
D03*
X183071Y226220D02*
D03*
X173071D02*
D03*
X183071Y236221D02*
D03*
X173071D02*
D03*
X183071Y246220D02*
D03*
X173071D02*
D03*
X183071Y256221D02*
D03*
X173071D02*
D03*
D51*
X16496Y151575D02*
D03*
X46496D02*
D03*
X36496D02*
D03*
X26496D02*
D03*
X6496D02*
D03*
X84665Y11713D02*
D03*
X69567D02*
D03*
X24724Y11811D02*
D03*
X34724D02*
D03*
X44724D02*
D03*
X185118Y187795D02*
D03*
X185315Y167323D02*
D03*
X152362Y114173D02*
D03*
Y124173D02*
D03*
Y134173D02*
D03*
Y144173D02*
D03*
X142520Y114173D02*
D03*
Y124173D02*
D03*
Y134173D02*
D03*
Y144173D02*
D03*
X80512Y267717D02*
D03*
X90512D02*
D03*
X100512D02*
D03*
X110512D02*
D03*
X120512D02*
D03*
X130512D02*
D03*
X140512D02*
D03*
D52*
X56496Y151575D02*
D03*
X94665Y11713D02*
D03*
X59567D02*
D03*
X14724Y11811D02*
D03*
X175118Y187795D02*
D03*
X175315Y167323D02*
D03*
X70512Y267717D02*
D03*
D53*
X111024Y113386D02*
D03*
X151575Y222441D02*
D03*
D54*
X162894Y175394D02*
D03*
X54806Y119291D02*
D03*
X27165Y106299D02*
D03*
X146850Y154528D02*
D03*
X33071Y105905D02*
D03*
X25984Y111417D02*
D03*
X148425Y266929D02*
D03*
X70177Y241240D02*
D03*
X80020D02*
D03*
X26378Y99114D02*
D03*
X47835Y108071D02*
D03*
X74508Y118799D02*
D03*
X41437Y120768D02*
D03*
X33760Y63681D02*
D03*
X14370Y75984D02*
D03*
X138189Y188189D02*
D03*
Y192520D02*
D03*
X139764Y170079D02*
D03*
X140059Y200886D02*
D03*
X34547Y196752D02*
D03*
X43898Y192815D02*
D03*
X93307Y148031D02*
D03*
X92716Y160728D02*
D03*
X77854Y207776D02*
D03*
X109646Y207185D02*
D03*
X120571Y201575D02*
D03*
X94193Y210630D02*
D03*
X90453Y201279D02*
D03*
X130610Y143602D02*
D03*
X140157Y162598D02*
D03*
X146850Y247244D02*
D03*
X130315Y242520D02*
D03*
X104331Y237402D02*
D03*
X115354Y236614D02*
D03*
X130315Y210630D02*
D03*
X64173Y151575D02*
D03*
X75197Y191339D02*
D03*
X112992Y149016D02*
D03*
X152362Y205512D02*
D03*
X151969Y174016D02*
D03*
X63583Y41339D02*
D03*
X54724Y106693D02*
D03*
X79134Y56299D02*
D03*
X74803Y102756D02*
D03*
X59055Y96457D02*
D03*
X38189Y57087D02*
D03*
X176575Y39173D02*
D03*
X176870Y55512D02*
D03*
M02*
