M48
;Layer_Color=9474304
;FILE_FORMAT=2:5
INCH,LZ
;TYPE=PLATED
T1F00S00C0.01200
T2F00S00C0.02756
T3F00S00C0.02953
T4F00S00C0.03937
T5F00S00C0.11811
%
T01
X0176575Y0039173
X017687Y0055512
X0079134Y0056299
X0063583Y0041339
X0038189Y0057087
X003376Y0063681
X001437Y0075984
X0026378Y0099114
X0027165Y0106299
X0025984Y0111417
X0033071Y0105905
X0047835Y0108071
X0054724Y0106693
X0059055Y0096457
X0074803Y0102756
X0074508Y0118799
X0054806Y0119291
X0041437Y0120768
X0064173Y0151575
X0093307Y0148031
X0092716Y0160728
X0112992Y0149016
X013061Y0143602
X0130315Y021063
X0120571Y0201575
X0109646Y0207185
X0094193Y021063
X0090453Y0201279
X0077854Y0207776
X0075197Y0191339
X0043898Y0192815
X0034547Y0196752
X0070177Y024124
X008002
X0104331Y0237402
X0115354Y0236614
X0130315Y024252
X014685Y0247244
X0148425Y0266929
X0152362Y0205512
X0140059Y0200886
X0138189Y019252
Y0188189
X0139764Y0170079
X0140157Y0162598
X014685Y0154528
X0151969Y0174016
X0162894Y0175394
T02
X0181299Y0006988
X0180315Y0098524
X0168504
X0137008
X0125197
X0094882Y0080905
X0075197
X0085039Y0071063
X0075197Y0037598
X0094882
X0085039Y0027756
X0124213Y0006988
T03
X0173071Y021622
X0183071
Y022622
X0173071
Y0236221
X0183071
Y024622
X0173071
Y0256221
X0183071
T04
X014252Y0114173
X0152362
X0094665Y0011713
X0084665
X0069567
X0059567
X0044724Y0011811
X0034724
X0024724
X0014724
X0016496Y0151575
X0026496
X0036496
X0046496
X0056496
X0006496
X0070512Y0267717
X0080512
X0090512
X0100512
X0110512
X0120512
X0130512
X0140512
X0175118Y0187795
X0185118
X0185315Y0167323
X0175315
X0152362Y0144173
X014252
Y0134173
X0152362
Y0124173
X014252
T05
X0111024Y0113386
X0151575Y0222441
M30
