%FSLAX25Y25*%
%MOIN*%
G70*
G01*
G75*
G04 Layer_Physical_Order=1*
G04 Layer_Color=255*
%ADD10O,0.02756X0.09843*%
%ADD11R,0.05118X0.05906*%
%ADD12R,0.05906X0.05118*%
%ADD13R,0.05118X0.06299*%
%ADD14R,0.05906X0.01063*%
%ADD15R,0.01063X0.05906*%
%ADD16O,0.05906X0.02362*%
%ADD17O,0.02362X0.05906*%
%ADD18C,0.04000*%
%ADD19C,0.01000*%
%ADD20C,0.02000*%
%ADD21C,0.03000*%
%ADD22C,0.06299*%
%ADD23R,0.07000X0.07000*%
%ADD24C,0.07000*%
%ADD25C,0.07087*%
%ADD26R,0.07087X0.07087*%
%ADD27C,0.08661*%
%ADD28C,0.02400*%
G36*
X57028Y113440D02*
X56557Y112826D01*
X56217Y112004D01*
X56101Y111122D01*
Y110036D01*
X55685Y109759D01*
X55560Y109810D01*
X54724Y109921D01*
X53889Y109810D01*
X53111Y109488D01*
X52442Y108975D01*
X51929Y108307D01*
X51607Y107528D01*
X51497Y106693D01*
X51607Y105858D01*
X51929Y105079D01*
X52175Y104758D01*
Y103543D01*
X52369Y102568D01*
X52922Y101741D01*
X53060Y101603D01*
X53887Y101051D01*
X54862Y100856D01*
X58355D01*
X58626Y100744D01*
X59508Y100628D01*
X60390Y100744D01*
X61211Y101085D01*
X61510Y101314D01*
X61959Y101093D01*
Y98707D01*
X61485Y98546D01*
X61337Y98739D01*
X60669Y99252D01*
X59891Y99574D01*
X59555Y99619D01*
Y96456D01*
Y93295D01*
X59891Y93339D01*
X60669Y93661D01*
X61337Y94174D01*
X61485Y94367D01*
X61959Y94207D01*
Y88317D01*
X58327D01*
X57351Y88123D01*
X56524Y87570D01*
X55972Y86743D01*
X55778Y85768D01*
Y84677D01*
X53709D01*
Y75559D01*
Y73138D01*
X63614D01*
Y75559D01*
Y83219D01*
X70131D01*
X70409Y82803D01*
X70180Y82250D01*
X70003Y80905D01*
X70180Y79561D01*
X70699Y78308D01*
X71524Y77233D01*
X72600Y76407D01*
X73852Y75889D01*
X75197Y75712D01*
X76541Y75889D01*
X76543Y75889D01*
X76959Y75612D01*
Y58664D01*
X76852Y58582D01*
X76339Y57913D01*
X76016Y57135D01*
X75906Y56299D01*
X76016Y55464D01*
X76339Y54685D01*
X76852Y54017D01*
X77520Y53504D01*
X78298Y53182D01*
X79134Y53072D01*
X79969Y53182D01*
X80748Y53504D01*
X81416Y54017D01*
X81929Y54685D01*
X82252Y55464D01*
X82362Y56299D01*
X82252Y57135D01*
X82057Y57604D01*
Y66274D01*
X82473Y66552D01*
X83695Y66046D01*
X85039Y65869D01*
X86384Y66046D01*
X87636Y66565D01*
X88712Y67390D01*
X89538Y68466D01*
X90056Y69719D01*
X90233Y71063D01*
X90056Y72407D01*
X89538Y73660D01*
X88712Y74736D01*
X87636Y75561D01*
X86384Y76080D01*
X85039Y76257D01*
X83695Y76080D01*
X82473Y75574D01*
X82057Y75852D01*
Y99882D01*
X82535Y100027D01*
X82705Y99772D01*
X83532Y99220D01*
X84508Y99026D01*
X98130D01*
X99105Y99220D01*
X99932Y99772D01*
X100485Y100599D01*
X100679Y101575D01*
Y110894D01*
X102984D01*
Y110951D01*
X103479Y111024D01*
X103684Y110346D01*
X104419Y108973D01*
X105406Y107769D01*
X106610Y106781D01*
X107480Y106316D01*
Y48884D01*
X106939Y48179D01*
X106536Y47206D01*
X106399Y46161D01*
Y45967D01*
X63024D01*
Y46291D01*
X51484D01*
Y41338D01*
Y36386D01*
X53740D01*
Y5880D01*
X45967D01*
X45934Y6379D01*
X46172Y6410D01*
X47520Y6969D01*
X48678Y7858D01*
X49567Y9015D01*
X50125Y10364D01*
X50250Y11311D01*
X44723D01*
Y12311D01*
X50250D01*
X50125Y13258D01*
X49567Y14607D01*
X48678Y15765D01*
X47750Y16476D01*
Y19949D01*
X49933D01*
Y24008D01*
X44979D01*
Y25008D01*
X49933D01*
Y27429D01*
Y36386D01*
X50484D01*
Y40839D01*
X46425D01*
Y36547D01*
X40935D01*
Y41240D01*
X40741Y42216D01*
X40188Y43043D01*
X39361Y43595D01*
X38386Y43789D01*
X38319D01*
Y45565D01*
X38744Y45621D01*
X39518Y45942D01*
X40182Y46452D01*
X40692Y47116D01*
X41013Y47890D01*
X41122Y48720D01*
Y52264D01*
X41136Y52282D01*
X41504Y52331D01*
X41504Y52331D01*
X41504Y52331D01*
X51409D01*
Y59811D01*
Y63870D01*
X41504D01*
Y59811D01*
Y59439D01*
X40380D01*
X39803Y59882D01*
X39024Y60204D01*
X38189Y60314D01*
X37354Y60204D01*
X36575Y59882D01*
X35907Y59369D01*
X35831Y59270D01*
X35774Y59226D01*
X35293Y58600D01*
X34991Y57870D01*
X34887Y57087D01*
Y55339D01*
X34472Y55062D01*
X33744Y55363D01*
X32913Y55472D01*
X32083Y55363D01*
X31309Y55042D01*
X30645Y54533D01*
X30182D01*
X29518Y55042D01*
X28744Y55363D01*
X27913Y55472D01*
X27083Y55363D01*
X26309Y55042D01*
X25645Y54533D01*
X25182D01*
X24518Y55042D01*
X23744Y55363D01*
X22913Y55472D01*
X22083Y55363D01*
X21309Y55042D01*
X20645Y54533D01*
X20135Y53868D01*
X19814Y53094D01*
X19807Y53041D01*
X18831D01*
Y59713D01*
Y68022D01*
X19807D01*
X19814Y67969D01*
X20135Y67195D01*
X20645Y66530D01*
X21309Y66021D01*
X22083Y65700D01*
X22913Y65591D01*
X23744Y65700D01*
X24518Y66021D01*
X24916Y66326D01*
X25364Y66105D01*
Y63681D01*
X25558Y62706D01*
X26111Y61879D01*
X26938Y61326D01*
X27913Y61132D01*
X31825D01*
X32146Y60886D01*
X32925Y60563D01*
X33760Y60453D01*
X34595Y60563D01*
X35374Y60886D01*
X36042Y61399D01*
X36555Y62067D01*
X36878Y62846D01*
X36988Y63681D01*
X36878Y64517D01*
X36555Y65295D01*
X36441Y65443D01*
X36746Y65840D01*
X37083Y65700D01*
X37413Y65657D01*
Y70570D01*
Y75485D01*
X37083Y75442D01*
X36309Y75121D01*
X35911Y74816D01*
X35462Y75037D01*
Y76839D01*
X37925D01*
Y86744D01*
X19380D01*
Y88256D01*
X21390D01*
Y88256D01*
X21390D01*
X21390Y88256D01*
X21721D01*
Y88256D01*
X38319D01*
Y98161D01*
X36573D01*
X36460Y98648D01*
X36757Y98795D01*
X36782Y98776D01*
X37555Y98456D01*
X38386Y98347D01*
X39658D01*
Y101556D01*
X40156D01*
Y102055D01*
X45072D01*
X45028Y102386D01*
X44708Y103159D01*
X44198Y103824D01*
Y104286D01*
X44708Y104951D01*
X45028Y105725D01*
X45504Y105852D01*
X45552Y105789D01*
X46221Y105276D01*
X46999Y104953D01*
X47335Y104909D01*
Y108072D01*
X47834D01*
Y108571D01*
X50996D01*
X50952Y108906D01*
X50630Y109685D01*
X50117Y110353D01*
X49869Y110543D01*
X50091Y110875D01*
X50285Y111850D01*
X50285Y111850D01*
X50285Y111850D01*
Y111850D01*
Y113888D01*
X56807D01*
X57028Y113440D01*
D02*
G37*
G36*
X9850Y76839D02*
X10876D01*
X11205Y76463D01*
X11208Y76484D01*
X14371D01*
Y75484D01*
X11208D01*
X11253Y75149D01*
X11575Y74370D01*
X12088Y73702D01*
X12756Y73189D01*
X12474Y72508D01*
X12272Y72373D01*
X12076Y72176D01*
X11523Y71350D01*
X11329Y70374D01*
Y68831D01*
X8925D01*
Y59713D01*
Y52232D01*
X11329D01*
Y50689D01*
X11523Y49714D01*
X12076Y48887D01*
X12272Y48690D01*
X13099Y48137D01*
X14075Y47943D01*
X19807D01*
X19814Y47890D01*
X20135Y47116D01*
X20645Y46452D01*
X21309Y45942D01*
X21721Y45771D01*
Y43789D01*
X21457D01*
X20481Y43595D01*
X19654Y43043D01*
X19102Y42216D01*
X18908Y41240D01*
Y36547D01*
X10106D01*
Y27429D01*
Y25008D01*
X15060D01*
Y24509D01*
X15559D01*
Y19949D01*
X22471D01*
Y16878D01*
X21929Y16653D01*
X20771Y15765D01*
X20741Y15726D01*
X20268Y15887D01*
Y17354D01*
X9181D01*
Y6268D01*
X9181D01*
Y6234D01*
X8828Y5880D01*
X5979D01*
Y76839D01*
X8850D01*
Y81792D01*
X9850D01*
Y76839D01*
D02*
G37*
%LPC*%
G36*
X51409Y68929D02*
X46957D01*
Y64870D01*
X51409D01*
Y68929D01*
D02*
G37*
G36*
X58161Y72138D02*
X53709D01*
Y68079D01*
X58161D01*
Y72138D01*
D02*
G37*
G36*
X41122Y70071D02*
X38413D01*
Y65657D01*
X38744Y65700D01*
X39518Y66021D01*
X40182Y66530D01*
X40692Y67195D01*
X41013Y67969D01*
X41504Y67904D01*
Y64870D01*
X45957D01*
Y68929D01*
X41504D01*
Y68929D01*
X41475D01*
X41122Y69283D01*
Y70071D01*
D02*
G37*
G36*
X14559Y24008D02*
X10106D01*
Y19949D01*
X14559D01*
Y24008D01*
D02*
G37*
G36*
X50484Y46291D02*
X46425D01*
Y41839D01*
X50484D01*
Y46291D01*
D02*
G37*
G36*
X63614Y72138D02*
X59161D01*
Y68079D01*
X63614D01*
Y72138D01*
D02*
G37*
G36*
X58555Y99619D02*
X58220Y99574D01*
X57441Y99252D01*
X56773Y98739D01*
X56260Y98071D01*
X55937Y97292D01*
X55893Y96957D01*
X58555D01*
Y99619D01*
D02*
G37*
G36*
X45072Y101055D02*
X40657D01*
Y98347D01*
X41929D01*
X42760Y98456D01*
X43533Y98776D01*
X44198Y99286D01*
X44708Y99951D01*
X45028Y100725D01*
X45072Y101055D01*
D02*
G37*
G36*
X50996Y107571D02*
X48335D01*
Y104909D01*
X48670Y104953D01*
X49448Y105276D01*
X50117Y105789D01*
X50630Y106457D01*
X50952Y107236D01*
X50996Y107571D01*
D02*
G37*
G36*
X38413Y75485D02*
Y71071D01*
X41122D01*
Y72342D01*
X41013Y73173D01*
X40692Y73947D01*
X40182Y74611D01*
X39518Y75121D01*
X38744Y75442D01*
X38413Y75485D01*
D02*
G37*
G36*
X94882Y86099D02*
X93538Y85923D01*
X92285Y85404D01*
X91209Y84578D01*
X90384Y83503D01*
X89865Y82250D01*
X89688Y80905D01*
X89865Y79561D01*
X90384Y78308D01*
X91209Y77233D01*
X92285Y76407D01*
X93538Y75889D01*
X94882Y75712D01*
X96226Y75889D01*
X97479Y76407D01*
X98555Y77233D01*
X99380Y78308D01*
X99899Y79561D01*
X100076Y80905D01*
X99899Y82250D01*
X99380Y83503D01*
X98555Y84578D01*
X97479Y85404D01*
X96226Y85923D01*
X94882Y86099D01*
D02*
G37*
G36*
X58555Y95957D02*
X55893D01*
X55937Y95621D01*
X56260Y94843D01*
X56773Y94174D01*
X57441Y93661D01*
X58220Y93339D01*
X58555Y93295D01*
Y95957D01*
D02*
G37*
%LPD*%
D10*
X59508Y107579D02*
D03*
X64508D02*
D03*
X69508D02*
D03*
X74508D02*
D03*
X79508D02*
D03*
X84508D02*
D03*
X89508D02*
D03*
X59508Y131988D02*
D03*
X64508D02*
D03*
X69508D02*
D03*
X74508D02*
D03*
X79508D02*
D03*
X84508D02*
D03*
X89508D02*
D03*
D11*
X100787Y143898D02*
D03*
X108268D02*
D03*
X44390Y126279D02*
D03*
X36909D02*
D03*
X16831Y81791D02*
D03*
X9350D02*
D03*
X28740Y126279D02*
D03*
X21260D02*
D03*
X117224Y143898D02*
D03*
X124705D02*
D03*
X67618Y185138D02*
D03*
X75098D02*
D03*
X68898Y151378D02*
D03*
X76378D02*
D03*
X163583Y168110D02*
D03*
X156102D02*
D03*
X156201Y188583D02*
D03*
X163681D02*
D03*
X26280Y93209D02*
D03*
X33760D02*
D03*
X44390Y136516D02*
D03*
X36909D02*
D03*
X33366Y81791D02*
D03*
X25886D02*
D03*
X16831Y93209D02*
D03*
X9350D02*
D03*
X21161Y136122D02*
D03*
X28642D02*
D03*
X69095Y141732D02*
D03*
X76575D02*
D03*
X26280Y41240D02*
D03*
X33760D02*
D03*
X58465Y41339D02*
D03*
X50984D02*
D03*
D12*
X9350Y102067D02*
D03*
Y109547D02*
D03*
X24902Y31988D02*
D03*
Y24508D02*
D03*
X35138D02*
D03*
Y31988D02*
D03*
X99213Y232874D02*
D03*
Y225394D02*
D03*
X122835D02*
D03*
Y232874D02*
D03*
X130118Y255315D02*
D03*
Y247835D02*
D03*
X79921D02*
D03*
Y255315D02*
D03*
X70079D02*
D03*
Y247835D02*
D03*
X46457Y64370D02*
D03*
Y56890D02*
D03*
X9350Y126083D02*
D03*
Y118602D02*
D03*
X15059Y31988D02*
D03*
Y24508D02*
D03*
X98032Y122933D02*
D03*
Y115453D02*
D03*
X44980Y31988D02*
D03*
Y24508D02*
D03*
X58661Y72638D02*
D03*
Y80118D02*
D03*
X154429Y244291D02*
D03*
Y251772D02*
D03*
X140945Y247835D02*
D03*
Y255315D02*
D03*
X119685Y255118D02*
D03*
Y247638D02*
D03*
X109843Y247835D02*
D03*
Y255315D02*
D03*
X99606D02*
D03*
Y247835D02*
D03*
X89764D02*
D03*
Y255315D02*
D03*
X74508Y229626D02*
D03*
Y222146D02*
D03*
X13878Y56791D02*
D03*
Y64272D02*
D03*
X154429Y259646D02*
D03*
Y267126D02*
D03*
D13*
X67224Y175295D02*
D03*
X76279Y160335D02*
D03*
X67224D02*
D03*
X76279Y175295D02*
D03*
D14*
X84153Y169783D02*
D03*
X146161Y187500D02*
D03*
X84153Y163878D02*
D03*
X146161Y175689D02*
D03*
Y179626D02*
D03*
Y173721D02*
D03*
Y209154D02*
D03*
Y207185D02*
D03*
Y205217D02*
D03*
Y201279D02*
D03*
Y199311D02*
D03*
Y197343D02*
D03*
Y195374D02*
D03*
Y193405D02*
D03*
Y191437D02*
D03*
Y189469D02*
D03*
Y185531D02*
D03*
Y183563D02*
D03*
Y177657D02*
D03*
Y171752D02*
D03*
Y167815D02*
D03*
Y163878D02*
D03*
X84153Y161909D02*
D03*
Y165847D02*
D03*
Y167815D02*
D03*
Y171752D02*
D03*
Y173721D02*
D03*
Y175689D02*
D03*
Y177657D02*
D03*
Y179626D02*
D03*
Y181595D02*
D03*
Y183563D02*
D03*
Y185531D02*
D03*
Y187500D02*
D03*
Y189469D02*
D03*
Y191437D02*
D03*
Y193405D02*
D03*
Y195374D02*
D03*
Y201279D02*
D03*
Y203248D02*
D03*
Y205217D02*
D03*
Y207185D02*
D03*
Y209154D02*
D03*
X146161Y169783D02*
D03*
Y203248D02*
D03*
Y181595D02*
D03*
X84153Y199311D02*
D03*
Y197343D02*
D03*
X146161Y161909D02*
D03*
Y165847D02*
D03*
D15*
X97441Y154528D02*
D03*
X99410D02*
D03*
X132874D02*
D03*
X130905D02*
D03*
X95472Y216535D02*
D03*
X93504D02*
D03*
X128937Y154528D02*
D03*
X91535Y216535D02*
D03*
X99410D02*
D03*
X101378D02*
D03*
X103347D02*
D03*
X105315D02*
D03*
X107283D02*
D03*
X109252D02*
D03*
X111221D02*
D03*
X113189D02*
D03*
X115157D02*
D03*
X117126D02*
D03*
X119095D02*
D03*
X121063D02*
D03*
X123031D02*
D03*
X126969D02*
D03*
X128937D02*
D03*
X132874D02*
D03*
X134843D02*
D03*
X136811D02*
D03*
X138779D02*
D03*
Y154528D02*
D03*
X136811D02*
D03*
X134843D02*
D03*
X126969D02*
D03*
X125000D02*
D03*
X123031D02*
D03*
X119095D02*
D03*
X117126D02*
D03*
X115157D02*
D03*
X113189D02*
D03*
X111221D02*
D03*
X109252D02*
D03*
X107283D02*
D03*
X105315D02*
D03*
X103347D02*
D03*
X95473D02*
D03*
X93504D02*
D03*
X91535D02*
D03*
X97441Y216535D02*
D03*
X101378Y154528D02*
D03*
X121063D02*
D03*
X125000Y216535D02*
D03*
X130905D02*
D03*
D16*
X20079Y116555D02*
D03*
Y111555D02*
D03*
Y106555D02*
D03*
Y101555D02*
D03*
X40157Y116555D02*
D03*
Y111555D02*
D03*
Y106555D02*
D03*
Y101555D02*
D03*
D17*
X22913Y50492D02*
D03*
X27913D02*
D03*
X32913D02*
D03*
X37913D02*
D03*
X22913Y70571D02*
D03*
X27913D02*
D03*
X32913D02*
D03*
X37913D02*
D03*
D18*
X59567Y20866D02*
X125197D01*
X96732Y13780D02*
X137008D01*
X94665Y11713D02*
X96732Y13780D01*
X125197Y20866D02*
Y98524D01*
X59567Y11713D02*
Y20866D01*
X137008Y13780D02*
Y98524D01*
D19*
X21161Y126279D02*
Y136122D01*
X15748Y126083D02*
X20965D01*
X15748D02*
Y129921D01*
X9350D02*
X15748D01*
X9350Y126083D02*
Y129921D01*
X16732Y136122D02*
X21161D01*
X16732D02*
Y141831D01*
X32480D01*
Y136516D02*
Y141831D01*
Y136516D02*
X36909D01*
X44390Y135827D02*
X49213D01*
X44390D02*
Y136516D01*
X49213Y125492D02*
Y135827D01*
X46260Y116437D02*
X49213D01*
X46260Y111555D02*
Y116437D01*
X40157Y111555D02*
X46260D01*
X49213Y116437D02*
X69390D01*
X49213D02*
Y125492D01*
X45177D02*
X49213D01*
X89508Y131988D02*
Y138740D01*
Y129035D02*
Y131988D01*
X84508D02*
Y138779D01*
Y129035D02*
Y131988D01*
X89468Y138779D02*
Y169783D01*
X84508Y138779D02*
X89468D01*
X76575Y141732D02*
X79508D01*
Y122854D02*
Y141732D01*
X62008D02*
X69095D01*
X59587D02*
X62008D01*
X59587Y134646D02*
Y141732D01*
X84153Y146653D02*
Y161909D01*
X56496Y146653D02*
X84153D01*
X56496D02*
Y151575D01*
X58465Y41339D02*
X63583D01*
X163091Y175394D02*
X185315D01*
Y167323D02*
Y175394D01*
X29921Y109055D02*
Y126279D01*
X20079Y106299D02*
X27165D01*
X37913Y56890D02*
X46457D01*
X37913Y50492D02*
Y56890D01*
X28740Y126279D02*
X29921D01*
X27165Y106299D02*
X29921Y109055D01*
X20079Y106299D02*
Y106555D01*
X69508Y119291D02*
Y129035D01*
X54806Y119291D02*
X69508D01*
X138779Y154528D02*
X146850D01*
X10905Y116457D02*
X25984D01*
X9154Y118209D02*
X10905Y116457D01*
X34646Y108931D02*
X36884Y106693D01*
X41201D01*
X34646Y108931D02*
Y119882D01*
X31102Y105905D02*
X33071D01*
X31102Y102264D02*
Y105905D01*
Y102264D02*
X33760D01*
X34646Y119882D02*
X36909Y122146D01*
X27913Y63681D02*
X33760D01*
X148425Y266929D02*
X154232D01*
X59508Y103405D02*
Y110138D01*
X128420Y247835D02*
X130118D01*
X131620Y261639D02*
X140920D01*
X131620D02*
Y261738D01*
X131299D02*
X131620D01*
X131299D02*
Y267717D01*
X140920Y261639D02*
X141339Y261221D01*
X130118Y255315D02*
Y260039D01*
X130020Y260138D02*
X130118Y260039D01*
X79699Y255315D02*
X79921D01*
X46850Y151969D02*
X48031Y153150D01*
X89961Y101575D02*
Y110138D01*
X84508Y101575D02*
Y110138D01*
Y101575D02*
X89961D01*
X89508Y110138D02*
X89961D01*
X36909Y122146D02*
Y126279D01*
X37008Y126378D01*
Y131398D01*
X28642D02*
X37008D01*
X28642D02*
Y136122D01*
X26299Y99193D02*
Y101457D01*
X20965D02*
X26299D01*
X110512Y267717D02*
X111299D01*
X109843D02*
X110512D01*
X70512D02*
X71299D01*
X99606Y255315D02*
Y260827D01*
X141339Y255709D02*
Y261221D01*
X74508Y118799D02*
Y129035D01*
X41437Y118032D02*
Y120768D01*
X27913Y63681D02*
Y70571D01*
X44390Y126279D02*
X45177Y125492D01*
X98150Y122854D02*
X98228Y122933D01*
X59508Y129035D02*
X59587Y129134D01*
X69508Y110138D02*
Y116319D01*
X14803Y111457D02*
X20965D01*
X14469Y111122D02*
X14803Y111457D01*
X14469Y102067D02*
Y111122D01*
X9154Y102067D02*
X14469D01*
X20965Y126083D02*
X21161Y126279D01*
X9154Y109547D02*
Y118209D01*
X9350Y93209D02*
Y101870D01*
X16831Y93209D02*
X26280D01*
X16831Y81791D02*
Y93209D01*
Y81791D02*
X25886D01*
X32913Y70571D02*
Y81339D01*
X13878Y64272D02*
Y70374D01*
X14075Y70571D01*
X22913D01*
X13878Y50689D02*
Y56791D01*
Y50689D02*
X14075Y50492D01*
X22913D01*
X33760Y41240D02*
X33957Y41437D01*
Y45571D01*
X32913Y46614D02*
X33957Y45571D01*
X32913Y46614D02*
Y50492D01*
X26476Y41437D02*
Y45177D01*
X27913Y46614D01*
Y50492D01*
X35138Y31988D02*
X45768D01*
X15059D02*
X24902D01*
X35020Y12106D02*
Y24390D01*
X25020Y12106D02*
Y24390D01*
X92421Y260827D02*
Y266595D01*
X91299Y267717D02*
X92421Y266595D01*
Y260827D02*
X99606D01*
X21457Y41240D02*
X26280D01*
X21457Y36220D02*
Y41240D01*
Y36220D02*
X24902D01*
Y31988D02*
Y36220D01*
X35138Y31988D02*
Y36122D01*
X38386D01*
X33760Y41240D02*
X38386D01*
Y36122D02*
Y41240D01*
X64508Y129035D02*
Y134646D01*
X59587Y129134D02*
Y134646D01*
X64508D01*
X33760Y93209D02*
Y102264D01*
X25984Y111417D02*
Y116457D01*
X67224Y185138D02*
X67618D01*
X76279Y165847D02*
X84153D01*
X76279Y160335D02*
Y165847D01*
X66929Y167815D02*
X84153D01*
X66929D02*
Y175295D01*
X67224D02*
Y185138D01*
X76279Y151378D02*
X76378D01*
X75689Y149901D02*
Y152461D01*
X76279Y151378D02*
Y160335D01*
X67913Y151181D02*
X68110Y151378D01*
X163878Y187795D02*
X175118D01*
X89961Y101575D02*
X98130D01*
Y114567D01*
X97244Y115453D02*
X98130Y114567D01*
X79508Y122854D02*
X93405D01*
Y129528D01*
X97244Y122933D02*
X97835Y123524D01*
Y129528D01*
X93405D02*
X97835D01*
X84153Y169783D02*
X89468D01*
X154429Y251772D02*
Y259646D01*
X136811Y114173D02*
Y154528D01*
Y114173D02*
X141732D01*
X134843Y154528D02*
Y159449D01*
X151575D01*
Y144173D02*
Y159449D01*
X140157Y165847D02*
X146161D01*
X138189Y183563D02*
X146161D01*
X138189D02*
Y188189D01*
Y192520D02*
X140945D01*
Y185531D02*
Y192520D01*
Y185531D02*
X146161D01*
Y201279D02*
X151181D01*
X156201Y188484D02*
Y188583D01*
X146161Y161909D02*
X168799D01*
X163386Y167126D02*
X168799D01*
X26496Y151575D02*
Y199311D01*
X84153D01*
X34547Y197343D02*
X84153D01*
X43898Y195374D02*
X84153D01*
X43898Y192815D02*
Y195374D01*
X91535Y160728D02*
X92716D01*
X91535Y154528D02*
Y160728D01*
X119685Y247638D02*
Y247835D01*
X89764Y255315D02*
Y262106D01*
X81299D02*
X89764D01*
X79921Y255315D02*
Y260236D01*
X85039D01*
X74902D02*
X79699D01*
X74902Y231004D02*
Y260236D01*
X70079Y267717D02*
X70512D01*
X77854Y205217D02*
X84153D01*
X77854D02*
Y207776D01*
X81299Y262106D02*
Y267717D01*
X74508Y203248D02*
X84153D01*
X74508D02*
Y222146D01*
X84153Y209154D02*
Y210827D01*
X94193D01*
X84153Y207185D02*
X109646D01*
X109843Y255315D02*
Y267717D01*
X84153Y177657D02*
X102165D01*
Y201575D01*
X120571D01*
X119685Y255118D02*
Y260138D01*
X130020D01*
X119685D02*
Y267717D01*
X93307Y148031D02*
X93504D01*
Y154528D01*
X146161Y181595D02*
X189961D01*
X183071Y225984D02*
X193012D01*
X84153Y201279D02*
X90453D01*
X123031Y149016D02*
Y154528D01*
Y149016D02*
X130413D01*
X95607Y143898D02*
X100787D01*
X101378Y149016D02*
Y154528D01*
X121063Y149016D02*
Y154528D01*
X95473D02*
X95607D01*
X123031D02*
Y159449D01*
X95607D02*
X123031D01*
Y211417D02*
Y216535D01*
X99410Y211417D02*
Y216535D01*
Y224311D01*
X84153Y173721D02*
X95607D01*
Y159449D02*
Y173721D01*
X139764Y167815D02*
Y170079D01*
Y167815D02*
X146161D01*
X140157Y162598D02*
Y165847D01*
X146161Y167815D02*
X154232D01*
X168799Y161909D02*
Y167126D01*
X175216D01*
Y168996D01*
X146161Y179626D02*
X193012D01*
Y225984D01*
X123031Y224410D02*
X130315D01*
X133071Y170079D02*
X139764D01*
X140059Y200942D02*
Y201279D01*
X151181Y188583D02*
X156201D01*
X151181Y188484D02*
Y188583D01*
Y201279D01*
X123031Y216535D02*
Y224410D01*
X133071Y170079D02*
Y200886D01*
X140059D01*
X138779Y216535D02*
Y231102D01*
X136811Y216535D02*
Y234252D01*
X161102D01*
X134843Y216535D02*
Y236614D01*
X154429D01*
Y244291D01*
X112992Y143898D02*
Y149016D01*
X108268Y143898D02*
X112992D01*
X117224D01*
X101378Y149016D02*
X112992D01*
X121063D01*
X99311Y237402D02*
X104331D01*
X115354Y236614D02*
X122638D01*
X97441Y216535D02*
Y221260D01*
X93701D02*
X97441D01*
X93701Y237402D02*
X99311D01*
X93701Y221260D02*
Y237402D01*
X99410Y211417D02*
X123031D01*
X70079Y255315D02*
Y260236D01*
X74902D01*
X125197Y210630D02*
X130315D01*
X125000D02*
Y216535D01*
X65354Y151378D02*
X68898D01*
X146161Y203248D02*
X152362D01*
Y205512D01*
X146161Y169783D02*
X151969D01*
Y174016D01*
X54862Y103405D02*
X59508D01*
X54724Y103543D02*
X54862Y103405D01*
X54724Y103543D02*
Y106693D01*
X64508Y85768D02*
Y110138D01*
Y85768D02*
X74350D01*
X74803Y85315D01*
Y80512D02*
Y85315D01*
X58327Y85768D02*
X64508D01*
X58327Y80453D02*
Y85768D01*
Y80453D02*
X58661Y80118D01*
X79134Y56299D02*
X79508Y56673D01*
Y110138D01*
X74508Y102756D02*
Y110138D01*
X75098Y185138D02*
Y191339D01*
X70177Y241240D02*
Y247835D01*
X80020Y241240D02*
Y247835D01*
X99311Y231890D02*
Y237402D01*
X122638Y231890D02*
Y236614D01*
X130118Y242520D02*
Y247835D01*
X161102Y234252D02*
Y246220D01*
X173071D01*
X138779Y231102D02*
X166339D01*
Y236221D02*
X173071D01*
X166339Y231102D02*
Y236221D01*
X182776Y216220D02*
X189961D01*
Y181595D02*
Y216220D01*
X130315Y240158D02*
X140945D01*
Y247835D01*
Y240158D02*
X146850D01*
Y247244D01*
X119685Y240158D02*
Y247638D01*
Y240158D02*
X130315D01*
Y224410D02*
Y240158D01*
X85039D02*
Y260236D01*
X89567Y247835D02*
X89764D01*
X85039Y240158D02*
X89567D01*
X99410Y247835D02*
X99606D01*
X89567Y240158D02*
X99410D01*
X109843D01*
X119685D01*
X109843D02*
Y247835D01*
X123031Y205709D02*
Y211417D01*
Y205709D02*
X133071D01*
Y200886D02*
Y205709D01*
X39862Y116457D02*
X41437Y118032D01*
X89567Y240158D02*
Y247835D01*
X70079Y260236D02*
Y267717D01*
X79699Y255315D02*
Y260236D01*
X95607Y143898D02*
Y154528D01*
Y159449D01*
X99410Y240158D02*
Y247835D01*
X124705Y143405D02*
X130413D01*
Y149016D01*
X154232Y167815D02*
X155905Y169488D01*
X140059Y201279D02*
X146161D01*
X151181Y188484D02*
X156201D01*
D20*
X44724Y11811D02*
Y24508D01*
Y24508D02*
X45768D01*
X2953Y144587D02*
X46850D01*
X37913Y50492D02*
Y57087D01*
X46850Y144587D02*
Y151969D01*
X2953Y2854D02*
Y144587D01*
Y2854D02*
X69291D01*
Y9173D01*
D21*
X176575Y39173D02*
Y55512D01*
D22*
X168504Y98524D02*
D03*
X137008D02*
D03*
X125197D02*
D03*
X180315D02*
D03*
X124213Y6988D02*
D03*
X181299D02*
D03*
X75197Y37598D02*
D03*
X94882D02*
D03*
X85039Y27756D02*
D03*
X75197Y80905D02*
D03*
X94882D02*
D03*
X85039Y71063D02*
D03*
D23*
X183071Y216220D02*
D03*
D24*
X173071D02*
D03*
X183071Y226220D02*
D03*
X173071D02*
D03*
X183071Y236221D02*
D03*
X173071D02*
D03*
X183071Y246220D02*
D03*
X173071D02*
D03*
X183071Y256221D02*
D03*
X173071D02*
D03*
D25*
X16496Y151575D02*
D03*
X46496D02*
D03*
X36496D02*
D03*
X26496D02*
D03*
X6496D02*
D03*
X84665Y11713D02*
D03*
X69567D02*
D03*
X24724Y11811D02*
D03*
X34724D02*
D03*
X44724D02*
D03*
X185118Y187795D02*
D03*
X185315Y167323D02*
D03*
X152362Y114173D02*
D03*
Y124173D02*
D03*
Y134173D02*
D03*
Y144173D02*
D03*
X142520Y114173D02*
D03*
Y124173D02*
D03*
Y134173D02*
D03*
Y144173D02*
D03*
X80512Y267717D02*
D03*
X90512D02*
D03*
X100512D02*
D03*
X110512D02*
D03*
X120512D02*
D03*
X130512D02*
D03*
X140512D02*
D03*
D26*
X56496Y151575D02*
D03*
X94665Y11713D02*
D03*
X59567D02*
D03*
X14724Y11811D02*
D03*
X175118Y187795D02*
D03*
X175315Y167323D02*
D03*
X70512Y267717D02*
D03*
D27*
X111024Y113386D02*
D03*
X151575Y222441D02*
D03*
D28*
X162894Y175394D02*
D03*
X54806Y119291D02*
D03*
X27165Y106299D02*
D03*
X146850Y154528D02*
D03*
X33071Y105905D02*
D03*
X25984Y111417D02*
D03*
X148425Y266929D02*
D03*
X70177Y241240D02*
D03*
X80020D02*
D03*
X26378Y99114D02*
D03*
X47835Y108071D02*
D03*
X74508Y118799D02*
D03*
X41437Y120768D02*
D03*
X33760Y63681D02*
D03*
X14370Y75984D02*
D03*
X138189Y188189D02*
D03*
Y192520D02*
D03*
X139764Y170079D02*
D03*
X140059Y200886D02*
D03*
X34547Y196752D02*
D03*
X43898Y192815D02*
D03*
X93307Y148031D02*
D03*
X92716Y160728D02*
D03*
X77854Y207776D02*
D03*
X109646Y207185D02*
D03*
X120571Y201575D02*
D03*
X94193Y210630D02*
D03*
X90453Y201279D02*
D03*
X130610Y143602D02*
D03*
X140157Y162598D02*
D03*
X146850Y247244D02*
D03*
X130315Y242520D02*
D03*
X104331Y237402D02*
D03*
X115354Y236614D02*
D03*
X130315Y210630D02*
D03*
X64173Y151575D02*
D03*
X75197Y191339D02*
D03*
X112992Y149016D02*
D03*
X152362Y205512D02*
D03*
X151969Y174016D02*
D03*
X63583Y41339D02*
D03*
X54724Y106693D02*
D03*
X79134Y56299D02*
D03*
X74803Y102756D02*
D03*
X59055Y96457D02*
D03*
X38189Y57087D02*
D03*
X176575Y39173D02*
D03*
X176870Y55512D02*
D03*
M02*
