%FSLAX25Y25*%
%MOIN*%
G70*
G01*
G75*
G04 Layer_Color=128*
%ADD10O,0.02756X0.09843*%
%ADD11R,0.05118X0.05906*%
%ADD12R,0.05906X0.05118*%
%ADD13R,0.05118X0.06299*%
%ADD14R,0.05906X0.01063*%
%ADD15R,0.01063X0.05906*%
%ADD16O,0.05906X0.02362*%
%ADD17O,0.02362X0.05906*%
%ADD18C,0.04000*%
%ADD19C,0.01000*%
%ADD20C,0.02000*%
%ADD21C,0.03000*%
%ADD22C,0.06299*%
%ADD23R,0.07000X0.07000*%
%ADD24C,0.07000*%
%ADD25C,0.07087*%
%ADD26R,0.07087X0.07087*%
%ADD27C,0.08661*%
%ADD28C,0.02400*%
%ADD29R,0.12598X0.08268*%
%ADD30R,0.03543X0.08268*%
%ADD31C,0.01500*%
%ADD32C,0.00984*%
%ADD33C,0.02362*%
%ADD34C,0.00787*%
%ADD35C,0.00500*%
%ADD36C,0.00055*%
%ADD37C,0.00073*%
%ADD38C,0.00614*%
%ADD39C,0.00400*%
%ADD40O,0.03556X0.10642*%
%ADD41R,0.05918X0.06706*%
%ADD42R,0.06706X0.05918*%
%ADD43R,0.05918X0.07099*%
%ADD44R,0.06706X0.01863*%
%ADD45R,0.01863X0.06706*%
%ADD46O,0.06706X0.03162*%
%ADD47O,0.03162X0.06706*%
%ADD48C,0.07099*%
%ADD49R,0.07800X0.07800*%
%ADD50C,0.07800*%
%ADD51C,0.07887*%
%ADD52R,0.07887X0.07887*%
%ADD53C,0.09461*%
%ADD54C,0.03200*%
%ADD55R,0.13398X0.09068*%
%ADD56R,0.04343X0.09068*%
D11*
X149311Y101378D02*
D03*
X156791D02*
D03*
X160039Y12992D02*
D03*
X167520D02*
D03*
X19193Y93209D02*
D03*
X26673D02*
D03*
X74311Y124311D02*
D03*
X66831D02*
D03*
X19980Y77067D02*
D03*
X27461D02*
D03*
X67126Y96457D02*
D03*
X74606D02*
D03*
X134055Y166339D02*
D03*
X126575D02*
D03*
D12*
X139862Y213091D02*
D03*
Y205610D02*
D03*
X139764Y175394D02*
D03*
Y182874D02*
D03*
X132677Y69095D02*
D03*
Y61614D02*
D03*
X135433Y31299D02*
D03*
Y23819D02*
D03*
X41043Y115847D02*
D03*
Y108366D02*
D03*
D17*
X157894Y67520D02*
D03*
X152894D02*
D03*
X147894D02*
D03*
X142894D02*
D03*
X157894Y87598D02*
D03*
X152894D02*
D03*
X147894D02*
D03*
X142894D02*
D03*
D29*
X154921Y47244D02*
D03*
D30*
X145866Y24803D02*
D03*
X154921D02*
D03*
X163976D02*
D03*
M02*
