%FSLAX25Y25*%
%MOIN*%
G70*
G01*
G75*
%ADD10O,0.02756X0.09843*%
%ADD11R,0.05118X0.05906*%
%ADD12R,0.05906X0.05118*%
%ADD13R,0.05118X0.06299*%
%ADD14R,0.05906X0.01063*%
%ADD15R,0.01063X0.05906*%
%ADD16O,0.05906X0.02362*%
%ADD17O,0.02362X0.05906*%
%ADD18C,0.04000*%
%ADD19C,0.01000*%
%ADD20C,0.02000*%
%ADD21C,0.03000*%
%ADD22C,0.06299*%
%ADD23R,0.07000X0.07000*%
%ADD24C,0.07000*%
%ADD25C,0.07087*%
%ADD26R,0.07087X0.07087*%
%ADD27C,0.08661*%
%ADD28C,0.02400*%
%ADD29R,0.12598X0.08268*%
%ADD30R,0.03543X0.08268*%
%ADD31C,0.01500*%
%ADD32C,0.00984*%
%ADD33C,0.02362*%
%ADD34C,0.00787*%
%ADD35C,0.00500*%
%ADD36C,0.00055*%
%ADD37C,0.00073*%
%ADD38C,0.00614*%
%ADD39C,0.00400*%
D19*
X118602Y113484D02*
X118535Y114490D01*
X118334Y115478D01*
X118004Y116430D01*
X117549Y117329D01*
X116979Y118160D01*
X116303Y118908D01*
X115533Y119558D01*
X114683Y120101D01*
X113769Y120525D01*
X112807Y120824D01*
X111813Y120991D01*
X110805Y121025D01*
X109803Y120924D01*
X108822Y120690D01*
X107882Y120328D01*
X106998Y119844D01*
X106186Y119246D01*
X105462Y118545D01*
X104837Y117754D01*
X104324Y116887D01*
X103930Y115959D01*
X103664Y114987D01*
X103530Y113988D01*
Y112980D01*
X103664Y111981D01*
X103930Y111009D01*
X104324Y110082D01*
X104837Y109214D01*
X105462Y108423D01*
X106186Y107723D01*
X106998Y107125D01*
X107882Y106640D01*
X108822Y106278D01*
X109803Y106045D01*
X110805Y105944D01*
X111813Y105977D01*
X112807Y106145D01*
X113769Y106444D01*
X114683Y106868D01*
X115533Y107410D01*
X116303Y108061D01*
X116979Y108808D01*
X117549Y109639D01*
X118004Y110539D01*
X118334Y111491D01*
X118535Y112479D01*
X118602Y113484D01*
X159153Y222441D02*
X159086Y223447D01*
X158886Y224434D01*
X158555Y225386D01*
X158100Y226286D01*
X157530Y227117D01*
X156854Y227864D01*
X156084Y228515D01*
X155235Y229057D01*
X154320Y229482D01*
X153358Y229780D01*
X152364Y229948D01*
X151357Y229981D01*
X150354Y229881D01*
X149373Y229647D01*
X148433Y229285D01*
X147549Y228800D01*
X146738Y228203D01*
X146013Y227502D01*
X145388Y226711D01*
X144875Y225844D01*
X144481Y224916D01*
X144215Y223944D01*
X144081Y222945D01*
Y221937D01*
X144215Y220938D01*
X144481Y219966D01*
X144875Y219038D01*
X145388Y218171D01*
X146013Y217380D01*
X146738Y216679D01*
X147549Y216082D01*
X148433Y215597D01*
X149373Y215235D01*
X150354Y215001D01*
X151357Y214900D01*
X152364Y214934D01*
X153358Y215102D01*
X154320Y215400D01*
X155235Y215825D01*
X156084Y216367D01*
X156854Y217018D01*
X157530Y217765D01*
X158100Y218596D01*
X158555Y219496D01*
X158886Y220448D01*
X159086Y221435D01*
X159153Y222441D01*
X176583Y267877D02*
X175250D01*
X175917D01*
Y264544D01*
X175250Y263878D01*
X174584D01*
X173917Y264544D01*
X180582Y267877D02*
X179249Y267210D01*
X177916Y265877D01*
Y264544D01*
X178583Y263878D01*
X179915D01*
X180582Y264544D01*
Y265211D01*
X179915Y265877D01*
X177916D01*
X180717Y90810D02*
X179384D01*
X180051D01*
Y87477D01*
X179384Y86811D01*
X178718D01*
X178051Y87477D01*
X182050Y90810D02*
X184716D01*
Y90143D01*
X182050Y87477D01*
Y86811D01*
X34260Y162955D02*
X32927D01*
X33594D01*
Y159623D01*
X32927Y158957D01*
X32261D01*
X31594Y159623D01*
X38259Y158957D02*
X35593D01*
X38259Y161623D01*
Y162289D01*
X37593Y162955D01*
X36260D01*
X35593Y162289D01*
X45571Y104786D02*
Y101454D01*
X46237Y100787D01*
X47570D01*
X48237Y101454D01*
Y104786D01*
X49570Y100787D02*
X50902D01*
X50236D01*
Y104786D01*
X49570Y104120D01*
X102961Y137190D02*
X102295Y137857D01*
X100962D01*
X100295Y137190D01*
Y134525D01*
X100962Y133858D01*
X102295D01*
X102961Y134525D01*
X104294Y133858D02*
X105627D01*
X104960D01*
Y137857D01*
X104294Y137190D01*
X109626Y133858D02*
Y137857D01*
X107626Y135858D01*
X110292D01*
X153445Y177756D02*
Y181755D01*
X155444D01*
X156111Y181088D01*
Y179755D01*
X155444Y179089D01*
X153445D01*
X154778D02*
X156111Y177756D01*
X157444D02*
X158776D01*
X158110D01*
Y181755D01*
X157444Y181088D01*
X162775Y177756D02*
Y181755D01*
X160776Y179755D01*
X163442D01*
X177333Y152554D02*
Y148269D01*
X177619Y147412D01*
X178190Y146841D01*
X179047Y146555D01*
X179619D01*
X180475Y146841D01*
X181047Y147412D01*
X181333Y148269D01*
Y152554D01*
X177619D02*
Y148269D01*
X177905Y147412D01*
X178476Y146841D01*
X179047Y146555D01*
X176476Y152554D02*
X178476D01*
X180475D02*
X182189D01*
X184903D02*
Y146555D01*
X185189Y152554D02*
Y146555D01*
X183189Y152554D02*
X182904Y150840D01*
Y152554D01*
X187188D01*
Y150840D01*
X186903Y152554D01*
X184046Y146555D02*
X186046D01*
X188902Y152554D02*
Y146555D01*
X189188Y152554D02*
X192616Y147126D01*
X189188Y151982D02*
X192616Y146555D01*
Y152554D02*
Y146555D01*
X188045Y152554D02*
X189188D01*
X191759D02*
X193473D01*
X188045Y146555D02*
X189759D01*
D32*
X93504Y131496D02*
X92766Y131922D01*
Y131070D01*
X93504Y131496D01*
X20571Y119902D02*
X19833Y120328D01*
Y119475D01*
X20571Y119902D01*
X20059Y50492D02*
X19321Y50918D01*
Y50066D01*
X20059Y50492D01*
D33*
X29724Y114961D02*
X29280Y115884D01*
X28280Y116112D01*
X27479Y115473D01*
Y114448D01*
X28280Y113809D01*
X29280Y114037D01*
X29724Y114961D01*
X25689Y58957D02*
X25244Y59880D01*
X24245Y60108D01*
X23444Y59469D01*
Y58444D01*
X24245Y57805D01*
X25244Y58033D01*
X25689Y58957D01*
D34*
X57382Y113681D02*
Y125886D01*
X91634Y113681D02*
Y125886D01*
X57382Y113681D02*
X91634D01*
X57382Y125886D02*
X91634D01*
X167571Y210720D02*
Y261221D01*
X190271D01*
Y244291D02*
Y261221D01*
X167571Y210720D02*
X190271D01*
Y244291D02*
X193071D01*
X190271Y228150D02*
X193071D01*
X190271Y210720D02*
Y228150D01*
X61996Y146075D02*
Y157075D01*
X996D02*
X61996D01*
X996Y146075D02*
Y157075D01*
Y146075D02*
X61996D01*
X100165Y6213D02*
Y17213D01*
X79165D02*
X100165D01*
X79165Y6213D02*
Y17213D01*
Y6213D02*
X100165D01*
X54067D02*
Y17213D01*
Y6213D02*
X75067D01*
Y17213D01*
X54067D02*
X75067D01*
X9224Y6311D02*
Y17311D01*
Y6311D02*
X50224D01*
Y17311D01*
X9224D02*
X50224D01*
X169618Y182295D02*
Y193295D01*
Y182295D02*
X190618D01*
Y193295D01*
X169618D02*
X190618D01*
X169815Y161823D02*
Y172823D01*
Y161823D02*
X190815D01*
Y172823D01*
X169815D02*
X190815D01*
X24606Y99213D02*
Y118898D01*
X35630Y99213D02*
Y118898D01*
X24606D02*
X35630D01*
X24606Y99213D02*
X35630D01*
X20571Y55020D02*
X40256D01*
X20571Y66043D02*
X40256D01*
X20571Y55020D02*
Y66043D01*
X40256Y55020D02*
Y66043D01*
X104437Y13546D02*
X103104D01*
X103771D01*
Y10214D01*
X103104Y9547D01*
X102438D01*
X101772Y10214D01*
X108436Y13546D02*
X105770D01*
Y11547D01*
X107103Y12213D01*
X107770D01*
X108436Y11547D01*
Y10214D01*
X107770Y9547D01*
X106437D01*
X105770Y10214D01*
X42520Y51440D02*
Y47441D01*
X44519D01*
X45186Y48107D01*
Y48774D01*
X44519Y49440D01*
X42520D01*
X44519D01*
X45186Y50107D01*
Y50773D01*
X44519Y51440D01*
X42520D01*
X46518Y47441D02*
Y51440D01*
X48518D01*
X49184Y50773D01*
Y49440D01*
X48518Y48774D01*
X46518D01*
X47851D02*
X49184Y47441D01*
X50517Y51440D02*
X51850D01*
X51184D01*
Y47441D01*
X50517D01*
X51850D01*
X53849Y51440D02*
Y47441D01*
X55849D01*
X56515Y48107D01*
Y50773D01*
X55849Y51440D01*
X53849D01*
X60514Y50773D02*
X59847Y51440D01*
X58514D01*
X57848Y50773D01*
Y48107D01*
X58514Y47441D01*
X59847D01*
X60514Y48107D01*
Y49440D01*
X59181D01*
X64513Y51440D02*
X61847D01*
Y47441D01*
X64513D01*
X61847Y49440D02*
X63180D01*
X58661Y171026D02*
X61327Y167027D01*
Y171026D02*
X58661Y167027D01*
X62660D02*
X63993D01*
X63327D01*
Y171026D01*
X62660Y170360D01*
X82874Y221223D02*
Y217891D01*
X83540Y217224D01*
X84873D01*
X85540Y217891D01*
Y221223D01*
X88872Y217224D02*
Y221223D01*
X86873Y219224D01*
X89539D01*
X30610Y62660D02*
Y59328D01*
X31277Y58661D01*
X32610D01*
X33276Y59328D01*
Y62660D01*
X34609Y61994D02*
X35275Y62660D01*
X36608D01*
X37275Y61994D01*
Y61327D01*
X36608Y60661D01*
X35942D01*
X36608D01*
X37275Y59994D01*
Y59328D01*
X36608Y58661D01*
X35275D01*
X34609Y59328D01*
X94685Y110199D02*
Y106867D01*
X95351Y106201D01*
X96684D01*
X97351Y106867D01*
Y110199D01*
X101349Y106201D02*
X98684D01*
X101349Y108867D01*
Y109533D01*
X100683Y110199D01*
X99350D01*
X98684Y109533D01*
X56504Y22328D02*
X55838Y22995D01*
X54505D01*
X53839Y22328D01*
Y21662D01*
X54505Y20995D01*
X55838D01*
X56504Y20329D01*
Y19662D01*
X55838Y18996D01*
X54505D01*
X53839Y19662D01*
X57837Y22995D02*
Y18996D01*
X59170Y20329D01*
X60503Y18996D01*
Y22995D01*
X64502Y18996D02*
X61836D01*
X64502Y21662D01*
Y22328D01*
X63835Y22995D01*
X62502D01*
X61836Y22328D01*
X7874Y48819D02*
Y52818D01*
X9873D01*
X10540Y52151D01*
Y50818D01*
X9873Y50152D01*
X7874D01*
X9207D02*
X10540Y48819D01*
X14538Y52151D02*
X13872Y52818D01*
X12539D01*
X11873Y52151D01*
Y49485D01*
X12539Y48819D01*
X13872D01*
X14538Y49485D01*
Y50818D01*
X13206D01*
X15871Y48819D02*
X17204D01*
X16538D01*
Y52818D01*
X15871Y52151D01*
X3543Y40157D02*
Y44156D01*
X5543D01*
X6209Y43490D01*
Y42157D01*
X5543Y41490D01*
X3543D01*
X4876D02*
X6209Y40157D01*
X7542Y39491D02*
X10208D01*
X14207Y44156D02*
X11541D01*
Y42157D01*
X12874D01*
X11541D01*
Y40157D01*
X15539Y44156D02*
Y40157D01*
X18205D01*
X19538Y44156D02*
X22204D01*
X20871D01*
Y40157D01*
X57677Y222835D02*
Y226833D01*
X59676D01*
X60343Y226167D01*
Y224834D01*
X59676Y224167D01*
X57677D01*
X59010D02*
X60343Y222835D01*
X64342D02*
X61676D01*
X64342Y225500D01*
Y226167D01*
X63675Y226833D01*
X62342D01*
X61676Y226167D01*
X68340Y222835D02*
X65675D01*
X68340Y225500D01*
Y226167D01*
X67674Y226833D01*
X66341D01*
X65675Y226167D01*
X86319Y239665D02*
Y243664D01*
X88318D01*
X88985Y242998D01*
Y241665D01*
X88318Y240998D01*
X86319D01*
X87652D02*
X88985Y239665D01*
X92983D02*
X90318D01*
X92983Y242331D01*
Y242998D01*
X92317Y243664D01*
X90984D01*
X90318Y242998D01*
X94316Y239665D02*
X95649D01*
X94983D01*
Y243664D01*
X94316Y242998D01*
X94980Y258563D02*
Y262562D01*
X96980D01*
X97646Y261895D01*
Y260562D01*
X96980Y259896D01*
X94980D01*
X96313D02*
X97646Y258563D01*
X101645D02*
X98979D01*
X101645Y261229D01*
Y261895D01*
X100978Y262562D01*
X99646D01*
X98979Y261895D01*
X102978D02*
X103644Y262562D01*
X104977D01*
X105643Y261895D01*
Y259229D01*
X104977Y258563D01*
X103644D01*
X102978Y259229D01*
Y261895D01*
X104429Y240453D02*
Y244451D01*
X106429D01*
X107095Y243785D01*
Y242452D01*
X106429Y241786D01*
X104429D01*
X105762D02*
X107095Y240453D01*
X108428D02*
X109761D01*
X109094D01*
Y244451D01*
X108428Y243785D01*
X111760Y241119D02*
X112427Y240453D01*
X113760D01*
X114426Y241119D01*
Y243785D01*
X113760Y244451D01*
X112427D01*
X111760Y243785D01*
Y243119D01*
X112427Y242452D01*
X114426D01*
X115059Y258563D02*
Y262562D01*
X117058D01*
X117725Y261895D01*
Y260562D01*
X117058Y259896D01*
X115059D01*
X116392D02*
X117725Y258563D01*
X119058D02*
X120391D01*
X119724D01*
Y262562D01*
X119058Y261895D01*
X122390D02*
X123056Y262562D01*
X124389D01*
X125056Y261895D01*
Y261229D01*
X124389Y260562D01*
X125056Y259896D01*
Y259229D01*
X124389Y258563D01*
X123056D01*
X122390Y259229D01*
Y259896D01*
X123056Y260562D01*
X122390Y261229D01*
Y261895D01*
X123056Y260562D02*
X124389D01*
X137500Y258563D02*
Y262562D01*
X139499D01*
X140166Y261895D01*
Y260562D01*
X139499Y259896D01*
X137500D01*
X138833D02*
X140166Y258563D01*
X141499D02*
X142832D01*
X142165D01*
Y262562D01*
X141499Y261895D01*
X144831Y262562D02*
X147497D01*
Y261895D01*
X144831Y259229D01*
Y258563D01*
X148819Y236614D02*
Y240613D01*
X150818D01*
X151485Y239946D01*
Y238614D01*
X150818Y237947D01*
X148819D01*
X150152D02*
X151485Y236614D01*
X152818D02*
X154150D01*
X153484D01*
Y240613D01*
X152818Y239946D01*
X158816Y240613D02*
X156150D01*
Y238614D01*
X157483Y239280D01*
X158149D01*
X158816Y238614D01*
Y237281D01*
X158149Y236614D01*
X156816D01*
X156150Y237281D01*
X43209Y72539D02*
Y76538D01*
X45208D01*
X45875Y75872D01*
Y74539D01*
X45208Y73872D01*
X43209D01*
X44542D02*
X45875Y72539D01*
X47207D02*
X48540D01*
X47874D01*
Y76538D01*
X47207Y75872D01*
X50540D02*
X51206Y76538D01*
X52539D01*
X53205Y75872D01*
Y75205D01*
X52539Y74539D01*
X51872D01*
X52539D01*
X53205Y73872D01*
Y73206D01*
X52539Y72539D01*
X51206D01*
X50540Y73206D01*
X50492Y29724D02*
Y33723D01*
X52491D01*
X53158Y33057D01*
Y31724D01*
X52491Y31057D01*
X50492D01*
X51825D02*
X53158Y29724D01*
X54491D02*
X55824D01*
X55157D01*
Y33723D01*
X54491Y33057D01*
X57823Y29724D02*
X59156D01*
X58490D01*
Y33723D01*
X57823Y33057D01*
X80905Y140059D02*
Y144058D01*
X82905D01*
X83571Y143391D01*
Y142058D01*
X82905Y141392D01*
X80905D01*
X82238D02*
X83571Y140059D01*
X84904D02*
X86237D01*
X85571D01*
Y144058D01*
X84904Y143391D01*
X88236D02*
X88903Y144058D01*
X90236D01*
X90902Y143391D01*
Y140726D01*
X90236Y140059D01*
X88903D01*
X88236Y140726D01*
Y143391D01*
X103839Y123917D02*
Y127916D01*
X105838D01*
X106504Y127250D01*
Y125917D01*
X105838Y125250D01*
X103839D01*
X105172D02*
X106504Y123917D01*
X107837Y127250D02*
X108504Y127916D01*
X109837D01*
X110503Y127250D01*
Y126583D01*
X109837Y125917D01*
X110503Y125250D01*
Y124584D01*
X109837Y123917D01*
X108504D01*
X107837Y124584D01*
Y125250D01*
X108504Y125917D01*
X107837Y126583D01*
Y127250D01*
X108504Y125917D02*
X109837D01*
X2559Y25787D02*
Y29786D01*
X4558D01*
X5225Y29120D01*
Y27787D01*
X4558Y27120D01*
X2559D01*
X3892D02*
X5225Y25787D01*
X6558Y29786D02*
X9224D01*
Y29120D01*
X6558Y26454D01*
Y25787D01*
X21555Y140847D02*
Y144845D01*
X23554D01*
X24221Y144179D01*
Y142846D01*
X23554Y142179D01*
X21555D01*
X22888D02*
X24221Y140847D01*
X28220Y144845D02*
X26887Y144179D01*
X25554Y142846D01*
Y141513D01*
X26220Y140847D01*
X27553D01*
X28220Y141513D01*
Y142179D01*
X27553Y142846D01*
X25554D01*
X6004Y129921D02*
Y133920D01*
X8003D01*
X8670Y133254D01*
Y131921D01*
X8003Y131254D01*
X6004D01*
X7337D02*
X8670Y129921D01*
X12668Y133920D02*
X10003D01*
Y131921D01*
X11336Y132587D01*
X12002D01*
X12668Y131921D01*
Y130588D01*
X12002Y129921D01*
X10669D01*
X10003Y130588D01*
X3347Y66043D02*
Y70042D01*
X5346D01*
X6012Y69376D01*
Y68043D01*
X5346Y67376D01*
X3347D01*
X4679D02*
X6012Y66043D01*
X9345D02*
Y70042D01*
X7345Y68043D01*
X10011D01*
X37697Y79823D02*
Y83822D01*
X39696D01*
X40363Y83155D01*
Y81822D01*
X39696Y81156D01*
X37697D01*
X39030D02*
X40363Y79823D01*
X41696Y83155D02*
X42362Y83822D01*
X43695D01*
X44361Y83155D01*
Y82489D01*
X43695Y81822D01*
X43029D01*
X43695D01*
X44361Y81156D01*
Y80489D01*
X43695Y79823D01*
X42362D01*
X41696Y80489D01*
X47933Y134843D02*
Y138841D01*
X49932D01*
X50599Y138175D01*
Y136842D01*
X49932Y136175D01*
X47933D01*
X49266D02*
X50599Y134843D01*
X54598D02*
X51932D01*
X54598Y137508D01*
Y138175D01*
X53931Y138841D01*
X52598D01*
X51932Y138175D01*
X37894Y91339D02*
Y95337D01*
X39893D01*
X40560Y94671D01*
Y93338D01*
X39893Y92672D01*
X37894D01*
X39227D02*
X40560Y91339D01*
X41892D02*
X43225D01*
X42559D01*
Y95337D01*
X41892Y94671D01*
X159879Y257087D02*
X163878D01*
Y259752D01*
Y263085D02*
Y261752D01*
X163212Y261085D01*
X161879D01*
X161212Y261752D01*
Y263085D01*
X161879Y263751D01*
X162545D01*
Y261085D01*
X159879Y267750D02*
X163878D01*
Y265751D01*
X163212Y265084D01*
X161879D01*
X161212Y265751D01*
Y267750D01*
X164544Y269083D02*
Y271748D01*
X163878Y273081D02*
Y274414D01*
Y273748D01*
X159879D01*
X160546Y273081D01*
X59063Y268861D02*
X57731D01*
X58397D01*
Y265529D01*
X57731Y264862D01*
X57064D01*
X56398Y265529D01*
X60396Y268195D02*
X61063Y268861D01*
X62396D01*
X63062Y268195D01*
Y267528D01*
X62396Y266862D01*
X61729D01*
X62396D01*
X63062Y266195D01*
Y265529D01*
X62396Y264862D01*
X61063D01*
X60396Y265529D01*
X54733Y62880D02*
X54066Y63546D01*
X52733D01*
X52067Y62880D01*
Y60214D01*
X52733Y59547D01*
X54066D01*
X54733Y60214D01*
X56732Y59547D02*
Y62880D01*
Y61547D01*
X56066D01*
X57398D01*
X56732D01*
Y62880D01*
X57398Y63546D01*
X59398Y58881D02*
X62064D01*
X66062Y63546D02*
X63397D01*
Y61547D01*
X64729Y62213D01*
X65396D01*
X66062Y61547D01*
Y60214D01*
X65396Y59547D01*
X64063D01*
X63397Y60214D01*
X82686Y148608D02*
X82019Y149274D01*
X80686D01*
X80020Y148608D01*
Y145942D01*
X80686Y145276D01*
X82019D01*
X82686Y145942D01*
X84018Y145276D02*
X85351D01*
X84685D01*
Y149274D01*
X84018Y148608D01*
X87351Y145942D02*
X88017Y145276D01*
X89350D01*
X90017Y145942D01*
Y148608D01*
X89350Y149274D01*
X88017D01*
X87351Y148608D01*
Y147941D01*
X88017Y147275D01*
X90017D01*
X54044Y186994D02*
X53377Y187660D01*
X52044D01*
X51378Y186994D01*
Y184328D01*
X52044Y183661D01*
X53377D01*
X54044Y184328D01*
X55377Y183661D02*
X56710D01*
X56043D01*
Y187660D01*
X55377Y186994D01*
X58709D02*
X59375Y187660D01*
X60708D01*
X61375Y186994D01*
Y186327D01*
X60708Y185661D01*
X61375Y184994D01*
Y184328D01*
X60708Y183661D01*
X59375D01*
X58709Y184328D01*
Y184994D01*
X59375Y185661D01*
X58709Y186327D01*
Y186994D01*
X59375Y185661D02*
X60708D01*
X59556Y242801D02*
X58889Y243467D01*
X57556D01*
X56890Y242801D01*
Y240135D01*
X57556Y239469D01*
X58889D01*
X59556Y240135D01*
X60888Y239469D02*
X62221D01*
X61555D01*
Y243467D01*
X60888Y242801D01*
X64221Y243467D02*
X66887D01*
Y242801D01*
X64221Y240135D01*
Y239469D01*
X77174Y261895D02*
X76507Y262562D01*
X75174D01*
X74508Y261895D01*
Y259229D01*
X75174Y258563D01*
X76507D01*
X77174Y259229D01*
X78507Y258563D02*
X79839D01*
X79173D01*
Y262562D01*
X78507Y261895D01*
X84505Y262562D02*
X83172Y261895D01*
X81839Y260562D01*
Y259229D01*
X82505Y258563D01*
X83838D01*
X84505Y259229D01*
Y259896D01*
X83838Y260562D01*
X81839D01*
X128158Y239750D02*
X127491Y240416D01*
X126159D01*
X125492Y239750D01*
Y237084D01*
X126159Y236417D01*
X127491D01*
X128158Y237084D01*
X129491Y236417D02*
X130824D01*
X130157D01*
Y240416D01*
X129491Y239750D01*
X135489Y240416D02*
X132823D01*
Y238417D01*
X134156Y239083D01*
X134822D01*
X135489Y238417D01*
Y237084D01*
X134822Y236417D01*
X133490D01*
X132823Y237084D01*
X121563Y137387D02*
X120897Y138054D01*
X119564D01*
X118898Y137387D01*
Y134722D01*
X119564Y134055D01*
X120897D01*
X121563Y134722D01*
X122896Y134055D02*
X124229D01*
X123563D01*
Y138054D01*
X122896Y137387D01*
X126229D02*
X126895Y138054D01*
X128228D01*
X128894Y137387D01*
Y136721D01*
X128228Y136055D01*
X127561D01*
X128228D01*
X128894Y135388D01*
Y134722D01*
X128228Y134055D01*
X126895D01*
X126229Y134722D01*
X131209Y227446D02*
X130543Y228113D01*
X129210D01*
X128543Y227446D01*
Y224781D01*
X129210Y224114D01*
X130543D01*
X131209Y224781D01*
X132542Y224114D02*
X133875D01*
X133209D01*
Y228113D01*
X132542Y227446D01*
X135874D02*
X136541Y228113D01*
X137874D01*
X138540Y227446D01*
Y224781D01*
X137874Y224114D01*
X136541D01*
X135874Y224781D01*
Y227446D01*
X107587Y229120D02*
X106921Y229786D01*
X105588D01*
X104921Y229120D01*
Y226454D01*
X105588Y225787D01*
X106921D01*
X107587Y226454D01*
X108920D02*
X109586Y225787D01*
X110919D01*
X111586Y226454D01*
Y229120D01*
X110919Y229786D01*
X109586D01*
X108920Y229120D01*
Y228453D01*
X109586Y227787D01*
X111586D01*
X53453Y27742D02*
X52787Y28408D01*
X51454D01*
X50787Y27742D01*
Y25076D01*
X51454Y24409D01*
X52787D01*
X53453Y25076D01*
X57452Y28408D02*
X56119Y27742D01*
X54786Y26409D01*
Y25076D01*
X55453Y24409D01*
X56786D01*
X57452Y25076D01*
Y25742D01*
X56786Y26409D01*
X54786D01*
X5028Y22230D02*
X4361Y22896D01*
X3029D01*
X2362Y22230D01*
Y19564D01*
X3029Y18898D01*
X4361D01*
X5028Y19564D01*
X9027Y22896D02*
X6361D01*
Y20897D01*
X7694Y21563D01*
X8360D01*
X9027Y20897D01*
Y19564D01*
X8360Y18898D01*
X7027D01*
X6361Y19564D01*
X8867Y138962D02*
X8200Y139629D01*
X6867D01*
X6201Y138962D01*
Y136296D01*
X6867Y135630D01*
X8200D01*
X8867Y136296D01*
X12199Y135630D02*
Y139629D01*
X10199Y137629D01*
X12865D01*
X6111Y75576D02*
X5444Y76243D01*
X4111D01*
X3445Y75576D01*
Y72910D01*
X4111Y72244D01*
X5444D01*
X6111Y72910D01*
X7444Y75576D02*
X8110Y76243D01*
X9443D01*
X10109Y75576D01*
Y74910D01*
X9443Y74243D01*
X8777D01*
X9443D01*
X10109Y73577D01*
Y72910D01*
X9443Y72244D01*
X8110D01*
X7444Y72910D01*
X8867Y144376D02*
X8200Y145042D01*
X6867D01*
X6201Y144376D01*
Y141710D01*
X6867Y141043D01*
X8200D01*
X8867Y141710D01*
X12865Y141043D02*
X10199D01*
X12865Y143709D01*
Y144376D01*
X12199Y145042D01*
X10866D01*
X10199Y144376D01*
X51682Y128135D02*
X51015Y128802D01*
X49682D01*
X49016Y128135D01*
Y125470D01*
X49682Y124803D01*
X51015D01*
X51682Y125470D01*
X53014Y124803D02*
X54347D01*
X53681D01*
Y128802D01*
X53014Y128135D01*
X106595Y53445D02*
Y57444D01*
X108594D01*
X109260Y56777D01*
Y55444D01*
X108594Y54778D01*
X106595D01*
X107927D02*
X109260Y53445D01*
X110593Y54111D02*
X111260Y53445D01*
X112593D01*
X113259Y54111D01*
Y56777D01*
X112593Y57444D01*
X111260D01*
X110593Y56777D01*
Y56111D01*
X111260Y55444D01*
X113259D01*
X106595Y67126D02*
Y71125D01*
X108594D01*
X109260Y70458D01*
Y69125D01*
X108594Y68459D01*
X106595D01*
X107927D02*
X109260Y67126D01*
X110593D02*
X111926D01*
X111260D01*
Y71125D01*
X110593Y70458D01*
X116591Y67126D02*
X113926D01*
X116591Y69792D01*
Y70458D01*
X115925Y71125D01*
X114592D01*
X113926Y70458D01*
X154626Y195768D02*
Y199766D01*
X156625D01*
X157292Y199100D01*
Y197767D01*
X156625Y197101D01*
X154626D01*
X155959D02*
X157292Y195768D01*
X158625Y195101D02*
X161291D01*
X162623Y199766D02*
Y195768D01*
X163956Y197101D01*
X165289Y195768D01*
Y199766D01*
X166622D02*
Y195768D01*
X168622D01*
X169288Y196434D01*
Y197101D01*
X168622Y197767D01*
X166622D01*
X168622D01*
X169288Y198433D01*
Y199100D01*
X168622Y199766D01*
X166622D01*
X170621Y195768D02*
X171954D01*
X171287D01*
Y199766D01*
X170621Y199100D01*
X5028Y13743D02*
X3695D01*
X4361D01*
Y10411D01*
X3695Y9744D01*
X3029D01*
X2362Y10411D01*
X6361Y9744D02*
X7694D01*
X7027D01*
Y13743D01*
X6361Y13076D01*
X179528Y195768D02*
Y199766D01*
X181527D01*
X182193Y199100D01*
Y197767D01*
X181527Y197101D01*
X179528D01*
X183526Y199766D02*
Y195768D01*
X185526D01*
X186192Y196434D01*
Y197101D01*
X185526Y197767D01*
X183526D01*
X185526D01*
X186192Y198433D01*
Y199100D01*
X185526Y199766D01*
X183526D01*
X187525Y195768D02*
X188858D01*
X188191D01*
Y199766D01*
X187525Y199100D01*
X178543Y174409D02*
Y178408D01*
X180543D01*
X181209Y177742D01*
Y176409D01*
X180543Y175742D01*
X178543D01*
X182542Y178408D02*
Y174409D01*
X184541D01*
X185208Y175076D01*
Y175742D01*
X184541Y176409D01*
X182542D01*
X184541D01*
X185208Y177075D01*
Y177742D01*
X184541Y178408D01*
X182542D01*
X189207Y174409D02*
X186541D01*
X189207Y177075D01*
Y177742D01*
X188540Y178408D01*
X187207D01*
X186541Y177742D01*
X148524Y269291D02*
Y272046D01*
Y270210D02*
X149901Y271128D01*
X148524Y270210D02*
X149901Y269291D01*
D35*
X100528Y147898D02*
X108528D01*
X100528Y139898D02*
X108528D01*
X36650Y122280D02*
X44650D01*
X36650Y130280D02*
X44650D01*
X5350Y101807D02*
Y109807D01*
X13350Y101807D02*
Y109807D01*
X9091Y77791D02*
X17091D01*
X9091Y85791D02*
X17091D01*
X21000Y122280D02*
X29000D01*
X21000Y130280D02*
X29000D01*
X28902Y24248D02*
Y32248D01*
X20902Y24248D02*
Y32248D01*
X31138Y24248D02*
Y32248D01*
X39138Y24248D02*
Y32248D01*
X103213Y225134D02*
Y233134D01*
X95213Y225134D02*
Y233134D01*
X118835Y225134D02*
Y233134D01*
X126835Y225134D02*
Y233134D01*
X116965Y147898D02*
X124965D01*
X116965Y139898D02*
X124965D01*
X134118Y247575D02*
Y255575D01*
X126118Y247575D02*
Y255575D01*
X75921Y247575D02*
Y255575D01*
X83921Y247575D02*
Y255575D01*
X74079Y247575D02*
Y255575D01*
X66079Y247575D02*
Y255575D01*
X67358Y189138D02*
X75358D01*
X67358Y181138D02*
X75358D01*
X68638Y155378D02*
X76638D01*
X68638Y147378D02*
X76638D01*
X50457Y56630D02*
Y64630D01*
X42457Y56630D02*
Y64630D01*
X155842Y164110D02*
X163842D01*
X155842Y172110D02*
X163842D01*
X155941Y192583D02*
X163941D01*
X155941Y184583D02*
X163941D01*
X26020Y97209D02*
X34020D01*
X26020Y89209D02*
X34020D01*
X36650Y132516D02*
X44650D01*
X36650Y140516D02*
X44650D01*
X25626Y77791D02*
X33626D01*
X25626Y85791D02*
X33626D01*
X9091Y89209D02*
X17091D01*
X9091Y97209D02*
X17091D01*
X13350Y118342D02*
Y126342D01*
X5350Y118342D02*
Y126342D01*
X20902Y140122D02*
X28902D01*
X20902Y132122D02*
X28902D01*
X19059Y24248D02*
Y32248D01*
X11059Y24248D02*
Y32248D01*
X102032Y115193D02*
Y123193D01*
X94032Y115193D02*
Y123193D01*
X68835Y145732D02*
X76835D01*
X68835Y137732D02*
X76835D01*
X48980Y24248D02*
Y32248D01*
X40980Y24248D02*
Y32248D01*
X54661Y72378D02*
Y80378D01*
X62661Y72378D02*
Y80378D01*
X150429Y244032D02*
Y252031D01*
X158429Y244032D02*
Y252031D01*
X136945Y247575D02*
Y255575D01*
X144945Y247575D02*
Y255575D01*
X123685Y247378D02*
Y255378D01*
X115685Y247378D02*
Y255378D01*
X105842Y247575D02*
Y255575D01*
X113842Y247575D02*
Y255575D01*
X103606Y247575D02*
Y255575D01*
X95606Y247575D02*
Y255575D01*
X85764Y247575D02*
Y255575D01*
X93764Y247575D02*
Y255575D01*
X78508Y221886D02*
Y229886D01*
X70508Y221886D02*
Y229886D01*
X26020Y45240D02*
X34020D01*
X26020Y37240D02*
X34020D01*
X9878Y56532D02*
Y64531D01*
X17878Y56532D02*
Y64531D01*
X50724Y37339D02*
X58724D01*
X50724Y45339D02*
X58724D01*
X150429Y259386D02*
Y267386D01*
X158429Y259386D02*
Y267386D01*
D36*
X160160Y158437D02*
X163117D01*
X166075D02*
X169033D01*
X172045D02*
X175003D01*
X160160Y158383D02*
X163117D01*
X166075D02*
X169033D01*
X171991D02*
X175003D01*
X160160Y158328D02*
X163117D01*
X166075D02*
X169033D01*
X171991D02*
X175003D01*
X160160Y158273D02*
X163117D01*
X166075D02*
X169033D01*
X171991D02*
X175003D01*
X160160Y158218D02*
X163117D01*
X166075D02*
X169033D01*
X171991D02*
X174948D01*
X160160Y158164D02*
X163172D01*
X166075D02*
X169033D01*
X171991D02*
X174948D01*
X160160Y158109D02*
X163172D01*
X166075D02*
X169033D01*
X171991D02*
X174948D01*
X160160Y158054D02*
X163172D01*
X166075D02*
X169033D01*
X171991D02*
X174948D01*
X160160Y157999D02*
X163172D01*
X166075D02*
X169033D01*
X171991D02*
X174948D01*
X160160Y157945D02*
X163172D01*
X166075D02*
X169033D01*
X171936D02*
X174948D01*
X160160Y157890D02*
X163172D01*
X166075D02*
X169033D01*
X171936D02*
X174948D01*
X160160Y157835D02*
X163172D01*
X166075D02*
X169033D01*
X171936D02*
X174948D01*
X160160Y157780D02*
X163172D01*
X166075D02*
X169033D01*
X171936D02*
X174948D01*
X160160Y157725D02*
X163227D01*
X166075D02*
X169033D01*
X171936D02*
X174948D01*
X160160Y157671D02*
X163227D01*
X166075D02*
X169033D01*
X171936D02*
X174948D01*
X160214Y157616D02*
X163227D01*
X166075D02*
X169033D01*
X171881D02*
X174948D01*
X160214Y157561D02*
X163227D01*
X166075D02*
X169033D01*
X171881D02*
X174948D01*
X160214Y157506D02*
X163282D01*
X166075D02*
X169033D01*
X171881D02*
X174893D01*
X160214Y157451D02*
X163282D01*
X166075D02*
X169033D01*
X171881D02*
X174893D01*
X160214Y157397D02*
X163282D01*
X166075D02*
X169033D01*
X171826D02*
X174893D01*
X160214Y157342D02*
X163282D01*
X166075D02*
X169033D01*
X171826D02*
X174893D01*
X160214Y157287D02*
X163336D01*
X166075D02*
X169033D01*
X171826D02*
X174893D01*
X160269Y157232D02*
X163336D01*
X166075D02*
X169033D01*
X171826D02*
X174893D01*
X160269Y157178D02*
X163336D01*
X166075D02*
X169033D01*
X171772D02*
X174893D01*
X160269Y157123D02*
X163336D01*
X166075D02*
X169033D01*
X171772D02*
X174839D01*
X160269Y157068D02*
X163391D01*
X166075D02*
X169033D01*
X171772D02*
X174839D01*
X160269Y157013D02*
X163391D01*
X166075D02*
X169033D01*
X171717D02*
X174839D01*
X160324Y156959D02*
X163391D01*
X166075D02*
X169033D01*
X171717D02*
X174839D01*
X160324Y156904D02*
X163446D01*
X166075D02*
X169033D01*
X171717D02*
X174839D01*
X160324Y156849D02*
X163446D01*
X166075D02*
X169033D01*
X171662D02*
X174784D01*
X160324Y156794D02*
X163501D01*
X166075D02*
X169033D01*
X171662D02*
X174784D01*
X160379Y156739D02*
X163501D01*
X166075D02*
X169033D01*
X171607D02*
X174784D01*
X160379Y156685D02*
X163501D01*
X166075D02*
X169033D01*
X171607D02*
X174784D01*
X160379Y156630D02*
X163556D01*
X166075D02*
X169033D01*
X171552D02*
X174729D01*
X160379Y156575D02*
X163556D01*
X166075D02*
X169033D01*
X171552D02*
X174729D01*
X160433Y156520D02*
X163610D01*
X166075D02*
X169033D01*
X171498D02*
X174729D01*
X160433Y156466D02*
X163665D01*
X166075D02*
X169033D01*
X171498D02*
X174729D01*
X160433Y156411D02*
X163665D01*
X166075D02*
X169033D01*
X171443D02*
X174674D01*
X160433Y156356D02*
X163720D01*
X166075D02*
X169033D01*
X171443D02*
X174674D01*
X160488Y156301D02*
X163720D01*
X166075D02*
X169033D01*
X171388D02*
X174674D01*
X160488Y156246D02*
X163775D01*
X166075D02*
X169033D01*
X171388D02*
X174620D01*
X160488Y156192D02*
X163775D01*
X166075D02*
X169033D01*
X171333D02*
X174620D01*
X160543Y156137D02*
X163829D01*
X166075D02*
X169033D01*
X171279D02*
X174620D01*
X160543Y156082D02*
X163884D01*
X166075D02*
X169033D01*
X171279D02*
X174565D01*
X160543Y156027D02*
X163884D01*
X166075D02*
X169033D01*
X171224D02*
X174565D01*
X160598Y155973D02*
X163939D01*
X166075D02*
X169033D01*
X171169D02*
X174565D01*
X160598Y155918D02*
X163994D01*
X166075D02*
X169033D01*
X171114D02*
X174510D01*
X160598Y155863D02*
X164049D01*
X166075D02*
X169033D01*
X171114D02*
X174510D01*
X160652Y155808D02*
X164049D01*
X166075D02*
X169033D01*
X171059D02*
X174510D01*
X160652Y155754D02*
X164103D01*
X166020D02*
X169033D01*
X171005D02*
X174455D01*
X160707Y155699D02*
X164158D01*
X166020D02*
X169033D01*
X170950D02*
X174455D01*
X160707Y155644D02*
X164213D01*
X166020D02*
X169088D01*
X170895D02*
X174401D01*
X160707Y155589D02*
X164268D01*
X166020D02*
X169088D01*
X170895D02*
X174401D01*
X160762Y155535D02*
X164322D01*
X166020D02*
X169088D01*
X170840D02*
X174401D01*
X160762Y155480D02*
X164322D01*
X166020D02*
X169088D01*
X170786D02*
X174346D01*
X160817Y155425D02*
X164377D01*
X166020D02*
X169088D01*
X170731D02*
X174346D01*
X160817Y155370D02*
X164432D01*
X166020D02*
X169088D01*
X170676D02*
X174291D01*
X160872Y155315D02*
X164487D01*
X166020D02*
X169088D01*
X170621D02*
X174291D01*
X160872Y155261D02*
X164541D01*
X166020D02*
X169088D01*
X170566D02*
X174236D01*
X160926Y155206D02*
X164596D01*
X166020D02*
X169088D01*
X170512D02*
X174236D01*
X160926Y155151D02*
X164651D01*
X166020D02*
X169088D01*
X170457D02*
X174181D01*
X160981Y155096D02*
X164760D01*
X166020D02*
X169088D01*
X170347D02*
X174181D01*
X160981Y155042D02*
X164815D01*
X166020D02*
X169088D01*
X170293D02*
X174127D01*
X161036Y154987D02*
X164870D01*
X166020D02*
X169088D01*
X170238D02*
X174127D01*
X161036Y154932D02*
X164925D01*
X166020D02*
X169088D01*
X170183D02*
X174072D01*
X161091Y154877D02*
X165034D01*
X166020D02*
X169088D01*
X170073D02*
X174017D01*
X161091Y154822D02*
X165089D01*
X166020D02*
X169088D01*
X170019D02*
X174017D01*
X161145Y154768D02*
X165199D01*
X166020D02*
X169088D01*
X169909D02*
X173962D01*
X161200Y154713D02*
X165308D01*
X166020D02*
X169088D01*
X169854D02*
X173962D01*
X161200Y154658D02*
X165363D01*
X166020D02*
X169088D01*
X169745D02*
X173908D01*
X161255Y154603D02*
X165473D01*
X166020D02*
X169088D01*
X169635D02*
X173853D01*
X161255Y154549D02*
X165582D01*
X166020D02*
X169088D01*
X169526D02*
X173853D01*
X161310Y154494D02*
X165692D01*
X166020D02*
X169088D01*
X169416D02*
X173798D01*
X161365Y154439D02*
X165801D01*
X166020D02*
X169088D01*
X169307D02*
X173798D01*
X161365Y154384D02*
X165911D01*
X166020D02*
X169088D01*
X169197D02*
X173743D01*
X161419Y154330D02*
X173688D01*
X161474Y154275D02*
X173688D01*
X161474Y154220D02*
X173634D01*
X161529Y154165D02*
X173579D01*
X161584Y154110D02*
X173524D01*
X161638Y154056D02*
X173524D01*
X161638Y154001D02*
X173469D01*
X161693Y153946D02*
X173415D01*
X161748Y153891D02*
X173360D01*
X161803Y153837D02*
X173305D01*
X161857Y153782D02*
X173305D01*
X161857Y153727D02*
X173250D01*
X161912Y153672D02*
X173196D01*
X161967Y153617D02*
X173141D01*
X162022Y153563D02*
X173086D01*
X162077Y153508D02*
X173031D01*
X162131Y153453D02*
X172977D01*
X162186Y153398D02*
X172922D01*
X162241Y153343D02*
X172867D01*
X162296Y153289D02*
X172812D01*
X162350Y153234D02*
X172757D01*
X162405Y153179D02*
X172703D01*
X162460Y153124D02*
X172648D01*
X162515Y153070D02*
X172593D01*
X162570Y153015D02*
X172538D01*
X162624Y152960D02*
X172484D01*
X162679Y152905D02*
X172429D01*
X162734Y152851D02*
X172374D01*
X162844Y152796D02*
X172319D01*
X162898Y152741D02*
X172210D01*
X162953Y152686D02*
X172155D01*
X163008Y152631D02*
X172100D01*
X163117Y152577D02*
X172045D01*
X163172Y152522D02*
X171936D01*
X163227Y152467D02*
X171881D01*
X163336Y152412D02*
X171826D01*
X163391Y152358D02*
X171717D01*
X163501Y152303D02*
X171662D01*
X163556Y152248D02*
X171552D01*
X163665Y152193D02*
X171498D01*
X163720Y152139D02*
X171388D01*
X163829Y152084D02*
X171279D01*
X163939Y152029D02*
X171224D01*
X164049Y151974D02*
X171114D01*
X164103Y151919D02*
X171005D01*
X164213Y151865D02*
X170895D01*
X164322Y151810D02*
X170786D01*
X164432Y151755D02*
X170676D01*
X164596Y151700D02*
X170566D01*
X164706Y151646D02*
X170402D01*
X164870Y151591D02*
X170293D01*
X164980Y151536D02*
X170128D01*
X165144Y151481D02*
X170019D01*
X165308Y151426D02*
X169854D01*
X165473Y151372D02*
X169635D01*
X165637Y151317D02*
X169471D01*
X165856Y151262D02*
X169252D01*
X166020Y151207D02*
X169142D01*
X166020Y151153D02*
X169088D01*
X164377Y151098D02*
X170731D01*
X160160Y151043D02*
X174948D01*
X160160Y150988D02*
X174948D01*
X160160Y150934D02*
X174948D01*
X160160Y150879D02*
X174948D01*
X160160Y150824D02*
X174948D01*
X160160Y150769D02*
X174948D01*
X160160Y150715D02*
X174948D01*
X160160Y150660D02*
X174948D01*
X160160Y150605D02*
X174948D01*
X160160Y150550D02*
X174948D01*
X160160Y150495D02*
X174948D01*
X160160Y150441D02*
X174948D01*
X160160Y150386D02*
X174948D01*
X160160Y150331D02*
X174948D01*
X160160Y150276D02*
X174948D01*
X160160Y150222D02*
X174948D01*
X160160Y150167D02*
X174948D01*
X160160Y150112D02*
X174948D01*
X160160Y150057D02*
X174948D01*
X160160Y150002D02*
X174948D01*
X160160Y149948D02*
X174948D01*
X160160Y149893D02*
X174948D01*
X160160Y149838D02*
X174948D01*
X160160Y149783D02*
X174948D01*
X160160Y149729D02*
X174948D01*
X160160Y149674D02*
X174948D01*
X160160Y149619D02*
X174948D01*
X160160Y149564D02*
X174948D01*
X160160Y149509D02*
X174948D01*
X160160Y149455D02*
X174948D01*
X160160Y149400D02*
X174948D01*
X160160Y149345D02*
X174948D01*
X160160Y149290D02*
X174948D01*
X160160Y149236D02*
X174948D01*
X160160Y149181D02*
X174948D01*
X160160Y149126D02*
X174948D01*
X160160Y149071D02*
X174948D01*
X160160Y149016D02*
X174948D01*
X160160Y148962D02*
X174948D01*
X160160Y148907D02*
X174948D01*
X160160Y148852D02*
X174948D01*
X160160Y148797D02*
X174948D01*
X160160Y148743D02*
X174948D01*
X160160Y148688D02*
X174948D01*
X160160Y148633D02*
X174948D01*
X160160Y148578D02*
X174948D01*
X160160Y148523D02*
X174948D01*
X160160Y148469D02*
X174948D01*
X160160Y148414D02*
X174948D01*
X160160Y148359D02*
X174948D01*
X160160Y148304D02*
X174948D01*
X160160Y148250D02*
X174948D01*
X160160Y148195D02*
X174948D01*
X164706Y148140D02*
X170621D01*
X166020Y148085D02*
X169088D01*
X166020Y148031D02*
X169142D01*
X165965Y147976D02*
X169252D01*
X165692Y147921D02*
X169416D01*
X165527Y147866D02*
X169635D01*
X165363Y147811D02*
X169800D01*
X165199Y147757D02*
X169964D01*
X165034Y147702D02*
X170128D01*
X164870Y147647D02*
X170293D01*
X164760Y147592D02*
X170402D01*
X164596Y147538D02*
X170566D01*
X164487Y147483D02*
X170676D01*
X164377Y147428D02*
X170786D01*
X164268Y147373D02*
X170895D01*
X164158Y147318D02*
X171005D01*
X164049Y147264D02*
X171114D01*
X163939Y147209D02*
X171224D01*
X163884Y147154D02*
X171279D01*
X163775Y147099D02*
X171388D01*
X163665Y147045D02*
X171498D01*
X163610Y146990D02*
X171552D01*
X163501Y146935D02*
X171662D01*
X163446Y146880D02*
X171717D01*
X163336Y146826D02*
X171826D01*
X163282Y146771D02*
X171881D01*
X163172Y146716D02*
X171991D01*
X163117Y146661D02*
X172045D01*
X163063Y146607D02*
X172100D01*
X163008Y146552D02*
X172155D01*
X162898Y146497D02*
X172264D01*
X162844Y146442D02*
X172319D01*
X162789Y146387D02*
X172374D01*
X162734Y146333D02*
X172429D01*
X162679Y146278D02*
X172484D01*
X162624Y146223D02*
X172538D01*
X162515Y146168D02*
X172648D01*
X162460Y146114D02*
X172703D01*
X162405Y146059D02*
X172757D01*
X162350Y146004D02*
X172812D01*
X162296Y145949D02*
X172867D01*
X162241Y145894D02*
X172922D01*
X162186Y145840D02*
X172977D01*
X162131Y145785D02*
X172977D01*
X162131Y145730D02*
X173031D01*
X162077Y145675D02*
X173086D01*
X162022Y145621D02*
X173141D01*
X161967Y145566D02*
X173196D01*
X161912Y145511D02*
X173250D01*
X161857Y145456D02*
X173305D01*
X161803Y145402D02*
X173360D01*
X161748Y145347D02*
X173360D01*
X161748Y145292D02*
X173415D01*
X161693Y145237D02*
X173469D01*
X161638Y145182D02*
X173524D01*
X161584Y145128D02*
X173524D01*
X161584Y145073D02*
X173579D01*
X161529Y145018D02*
X173634D01*
X161474Y144963D02*
X173688D01*
X161474Y144908D02*
X173688D01*
X161419Y144854D02*
X169088D01*
X169197D02*
X173743D01*
X161365Y144799D02*
X165801D01*
X166020D02*
X169088D01*
X169307D02*
X173798D01*
X161365Y144744D02*
X165692D01*
X166020D02*
X169088D01*
X169416D02*
X173798D01*
X161310Y144689D02*
X165582D01*
X166020D02*
X169088D01*
X169526D02*
X173853D01*
X161255Y144635D02*
X165473D01*
X166020D02*
X169088D01*
X169635D02*
X173908D01*
X161255Y144580D02*
X165418D01*
X166020D02*
X169088D01*
X169745D02*
X173908D01*
X161200Y144525D02*
X165308D01*
X166020D02*
X169088D01*
X169800D02*
X173962D01*
X161145Y144470D02*
X165199D01*
X166020D02*
X169088D01*
X169909D02*
X173962D01*
X161145Y144416D02*
X165144D01*
X166020D02*
X169088D01*
X170019D02*
X174017D01*
X161091Y144361D02*
X165034D01*
X166020D02*
X169088D01*
X170073D02*
X174072D01*
X161091Y144306D02*
X164980D01*
X166075D02*
X169088D01*
X170183D02*
X174072D01*
X161036Y144251D02*
X164925D01*
X166075D02*
X169088D01*
X170238D02*
X174127D01*
X161036Y144196D02*
X164815D01*
X166075D02*
X169088D01*
X170293D02*
X174127D01*
X160981Y144142D02*
X164760D01*
X166075D02*
X169088D01*
X170402D02*
X174181D01*
X160981Y144087D02*
X164706D01*
X166075D02*
X169088D01*
X170457D02*
X174181D01*
X160926Y144032D02*
X164651D01*
X166075D02*
X169088D01*
X170512D02*
X174236D01*
X160926Y143977D02*
X164596D01*
X166075D02*
X169088D01*
X170566D02*
X174236D01*
X160872Y143923D02*
X164541D01*
X166075D02*
X169088D01*
X170621D02*
X174291D01*
X160872Y143868D02*
X164487D01*
X166075D02*
X169088D01*
X170676D02*
X174291D01*
X160817Y143813D02*
X164432D01*
X166075D02*
X169088D01*
X170731D02*
X174346D01*
X160817Y143758D02*
X164377D01*
X166075D02*
X169088D01*
X170786D02*
X174346D01*
X160762Y143703D02*
X164322D01*
X166075D02*
X169088D01*
X170840D02*
X174401D01*
X160762Y143649D02*
X164268D01*
X166075D02*
X169088D01*
X170895D02*
X174401D01*
X160707Y143594D02*
X164213D01*
X166075D02*
X169088D01*
X170950D02*
X174401D01*
X160707Y143539D02*
X164158D01*
X166075D02*
X169088D01*
X171005D02*
X174455D01*
X160652Y143484D02*
X164158D01*
X166075D02*
X169088D01*
X171005D02*
X174455D01*
X160652Y143430D02*
X164103D01*
X166075D02*
X169033D01*
X171059D02*
X174510D01*
X160652Y143375D02*
X164049D01*
X166075D02*
X169033D01*
X171114D02*
X174510D01*
X160598Y143320D02*
X163994D01*
X166075D02*
X169033D01*
X171169D02*
X174510D01*
X160598Y143265D02*
X163994D01*
X166075D02*
X169033D01*
X171169D02*
X174565D01*
X160598Y143210D02*
X163939D01*
X166075D02*
X169033D01*
X171224D02*
X174565D01*
X160543Y143156D02*
X163884D01*
X166075D02*
X169033D01*
X171279D02*
X174565D01*
X160543Y143101D02*
X163884D01*
X166075D02*
X169033D01*
X171279D02*
X174620D01*
X160543Y143046D02*
X163829D01*
X166075D02*
X169033D01*
X171333D02*
X174620D01*
X160488Y142991D02*
X163775D01*
X166075D02*
X169033D01*
X171388D02*
X174620D01*
X160488Y142937D02*
X163775D01*
X166075D02*
X169033D01*
X171388D02*
X174674D01*
X160488Y142882D02*
X163720D01*
X166075D02*
X169033D01*
X171443D02*
X174674D01*
X160433Y142827D02*
X163720D01*
X166075D02*
X169033D01*
X171443D02*
X174674D01*
X160433Y142772D02*
X163665D01*
X166075D02*
X169033D01*
X171498D02*
X174729D01*
X160433Y142718D02*
X163610D01*
X166075D02*
X169033D01*
X171498D02*
X174729D01*
X160379Y142663D02*
X163610D01*
X166075D02*
X169033D01*
X171552D02*
X174729D01*
X160379Y142608D02*
X163610D01*
X166075D02*
X169033D01*
X171552D02*
X174784D01*
X160379Y142553D02*
X163556D01*
X166075D02*
X169033D01*
X171607D02*
X174784D01*
X160379Y142499D02*
X163556D01*
X166075D02*
X169033D01*
X171607D02*
X174784D01*
X160324Y142444D02*
X163501D01*
X166075D02*
X169033D01*
X171662D02*
X174784D01*
X160324Y142389D02*
X163501D01*
X166075D02*
X169033D01*
X171662D02*
X174839D01*
X160324Y142334D02*
X163446D01*
X166075D02*
X169033D01*
X171717D02*
X174839D01*
X160324Y142279D02*
X163446D01*
X166075D02*
X169033D01*
X171717D02*
X174839D01*
X160324Y142225D02*
X163446D01*
X166075D02*
X169033D01*
X171717D02*
X174839D01*
X160324Y142170D02*
X163391D01*
X166075D02*
X169033D01*
X171772D02*
X174839D01*
X160269Y142115D02*
X163391D01*
X166075D02*
X169033D01*
X171772D02*
X174893D01*
X160269Y142060D02*
X163336D01*
X166075D02*
X169033D01*
X171772D02*
X174893D01*
X160269Y142006D02*
X163336D01*
X166075D02*
X169033D01*
X171826D02*
X174893D01*
X160269Y141951D02*
X163336D01*
X166075D02*
X169033D01*
X171826D02*
X174893D01*
X160269Y141896D02*
X163336D01*
X166075D02*
X169033D01*
X171826D02*
X174893D01*
X160269Y141841D02*
X163282D01*
X166075D02*
X169033D01*
X171881D02*
X174893D01*
X160214Y141786D02*
X163282D01*
X166075D02*
X169033D01*
X171881D02*
X174948D01*
X160214Y141732D02*
X163282D01*
X166075D02*
X169033D01*
X171881D02*
X174948D01*
X160214Y141677D02*
X163282D01*
X166075D02*
X169033D01*
X171881D02*
X174948D01*
X160214Y141622D02*
X163227D01*
X166075D02*
X169033D01*
X171936D02*
X174948D01*
X160214Y141567D02*
X163227D01*
X166075D02*
X169033D01*
X171936D02*
X174948D01*
X160214Y141513D02*
X163227D01*
X166075D02*
X169033D01*
X171936D02*
X174948D01*
X160214Y141458D02*
X163227D01*
X166075D02*
X169033D01*
X171936D02*
X174948D01*
X160160Y141403D02*
X163227D01*
X166020D02*
X169033D01*
X171936D02*
X174948D01*
X160160Y141348D02*
X163172D01*
X166020D02*
X169033D01*
X171991D02*
X174948D01*
X160160Y141294D02*
X163172D01*
X166020D02*
X169033D01*
X171991D02*
X174948D01*
X160160Y141239D02*
X163172D01*
X166020D02*
X169033D01*
X171991D02*
X174948D01*
X160160Y141184D02*
X163172D01*
X166020D02*
X169033D01*
X171991D02*
X174948D01*
X160160Y141129D02*
X163172D01*
X166020D02*
X169033D01*
X171991D02*
X174948D01*
X160160Y141074D02*
X163172D01*
X166020D02*
X169033D01*
X171991D02*
X174948D01*
X160160Y141020D02*
X163172D01*
X166020D02*
X169033D01*
X171991D02*
X174948D01*
X160160Y140965D02*
X163172D01*
X166020D02*
X169033D01*
X171991D02*
X174948D01*
X160160Y140910D02*
X163117D01*
X166020D02*
X169033D01*
X171991D02*
X174948D01*
X160160Y140855D02*
X163117D01*
X166020D02*
X169033D01*
X172045D02*
X174948D01*
X160160Y140800D02*
X163117D01*
X166020D02*
X169033D01*
X172045D02*
X174948D01*
D37*
X159858Y137782D02*
X193089D01*
X159858Y137709D02*
X170524D01*
X170887D02*
X193089D01*
X159858Y137637D02*
X170451D01*
X170887D02*
X193089D01*
X159858Y137564D02*
X170306D01*
X171032D02*
X180682D01*
X180900D02*
X193089D01*
X159858Y137492D02*
X170306D01*
X171105D02*
X180610D01*
X180900D02*
X193089D01*
X159858Y137419D02*
X170234D01*
X171105D02*
X180537D01*
X181045D02*
X193089D01*
X159858Y137347D02*
X170161D01*
X171177D02*
X180537D01*
X181045D02*
X193089D01*
X159858Y137274D02*
X170089D01*
X171250D02*
X180464D01*
X181045D02*
X193089D01*
X159858Y137201D02*
X170089D01*
X171250D02*
X180392D01*
X181117D02*
X193089D01*
X159858Y137129D02*
X170089D01*
X171250D02*
X180392D01*
X181190D02*
X193089D01*
X159858Y137056D02*
X169944D01*
X171322D02*
X180319D01*
X181190D02*
X193089D01*
X159858Y136984D02*
X169944D01*
X171322D02*
X180319D01*
X181190D02*
X193089D01*
X159858Y136911D02*
X169944D01*
X171322D02*
X180247D01*
X181190D02*
X193089D01*
X159858Y136839D02*
X169944D01*
X171322D02*
X180247D01*
X181263D02*
X193089D01*
X159858Y136766D02*
X169944D01*
X171322D02*
X180247D01*
X181263D02*
X193089D01*
X159858Y136694D02*
X169944D01*
X171322D02*
X180174D01*
X181263D02*
X193089D01*
X159858Y136621D02*
X169944D01*
X171322D02*
X180174D01*
X181335D02*
X193089D01*
X159858Y136548D02*
X169944D01*
X171322D02*
X180174D01*
X181335D02*
X193089D01*
X159858Y136476D02*
X169944D01*
X171322D02*
X180174D01*
X181335D02*
X193089D01*
X159858Y136403D02*
X169871D01*
X171322D02*
X180174D01*
X181263D02*
X193089D01*
X159858Y136331D02*
X169871D01*
X171322D02*
X180102D01*
X181263D02*
X193089D01*
X159858Y136258D02*
X169871D01*
X171322D02*
X180102D01*
X181263D02*
X193089D01*
X159858Y136186D02*
X169871D01*
X171322D02*
X180029D01*
X181263D02*
X193089D01*
X159858Y136113D02*
X169871D01*
X171322D02*
X180029D01*
X181263D02*
X193089D01*
X159858Y136041D02*
X169799D01*
X171322D02*
X180029D01*
X181263D02*
X193089D01*
X159858Y135968D02*
X169799D01*
X171322D02*
X179957D01*
X181263D02*
X193089D01*
X159858Y135895D02*
X169799D01*
X171322D02*
X179957D01*
X181263D02*
X193089D01*
X159858Y135823D02*
X169726D01*
X171322D02*
X179957D01*
X181263D02*
X193089D01*
X159858Y135750D02*
X169726D01*
X171322D02*
X179884D01*
X181263D02*
X193089D01*
X159858Y135678D02*
X169726D01*
X171322D02*
X179884D01*
X181263D02*
X193089D01*
X159858Y135605D02*
X169726D01*
X171322D02*
X179884D01*
X181263D02*
X193089D01*
X159858Y135533D02*
X169726D01*
X171322D02*
X179884D01*
X181263D02*
X193089D01*
X159858Y135460D02*
X169726D01*
X171322D02*
X179884D01*
X181263D02*
X193089D01*
X159858Y135388D02*
X169653D01*
X171322D02*
X179812D01*
X181263D02*
X193089D01*
X159858Y135315D02*
X169653D01*
X171322D02*
X179812D01*
X181263D02*
X193089D01*
X159858Y135242D02*
X169581D01*
X171322D02*
X179812D01*
X181263D02*
X193089D01*
X159858Y135170D02*
X169581D01*
X171322D02*
X179812D01*
X181263D02*
X193089D01*
X159858Y135097D02*
X169581D01*
X171322D02*
X179812D01*
X181263D02*
X193089D01*
X159858Y135025D02*
X169581D01*
X171322D02*
X179739D01*
X181263D02*
X193089D01*
X159858Y134952D02*
X169581D01*
X171322D02*
X179739D01*
X181263D02*
X193089D01*
X159858Y134880D02*
X169581D01*
X171322D02*
X179666D01*
X181263D02*
X193089D01*
X159858Y134807D02*
X169508D01*
X171322D02*
X179666D01*
X181263D02*
X193089D01*
X159858Y134734D02*
X169508D01*
X171322D02*
X179666D01*
X181263D02*
X193089D01*
X159858Y134662D02*
X169508D01*
X171322D02*
X179666D01*
X181335D02*
X193089D01*
X159858Y134589D02*
X169508D01*
X171322D02*
X179666D01*
X181335D02*
X193089D01*
X159858Y134517D02*
X169508D01*
X171322D02*
X179666D01*
X181335D02*
X193089D01*
X159858Y134444D02*
X169436D01*
X171322D02*
X179594D01*
X181335D02*
X193089D01*
X159858Y134372D02*
X169436D01*
X171322D02*
X179594D01*
X181335D02*
X193089D01*
X159858Y134299D02*
X169436D01*
X171322D02*
X179521D01*
X181335D02*
X193089D01*
X159858Y134227D02*
X169363D01*
X171322D02*
X179521D01*
X181335D02*
X193089D01*
X159858Y134154D02*
X169363D01*
X171322D02*
X179521D01*
X181335D02*
X193089D01*
X159858Y134081D02*
X169363D01*
X171322D02*
X179521D01*
X181335D02*
X193089D01*
X159858Y134009D02*
X169363D01*
X171322D02*
X179521D01*
X181335D02*
X193089D01*
X159858Y133936D02*
X169363D01*
X171322D02*
X179521D01*
X180464D02*
X180610D01*
X181335D02*
X193089D01*
X159858Y133864D02*
X169291D01*
X171322D02*
X179449D01*
X180392D02*
X180610D01*
X181408D02*
X193089D01*
X159858Y133791D02*
X169218D01*
X171322D02*
X179449D01*
X180392D02*
X180610D01*
X181408D02*
X193089D01*
X159858Y133719D02*
X169218D01*
X171322D02*
X179449D01*
X180319D02*
X180610D01*
X181408D02*
X193089D01*
X159858Y133646D02*
X169218D01*
X171322D02*
X179449D01*
X180319D02*
X180610D01*
X181408D02*
X193089D01*
X159858Y133574D02*
X169218D01*
X171322D02*
X179449D01*
X180319D02*
X180610D01*
X181408D02*
X193089D01*
X159858Y133501D02*
X169218D01*
X171322D02*
X179449D01*
X180319D02*
X180610D01*
X181408D02*
X193089D01*
X159858Y133429D02*
X169218D01*
X171322D02*
X179449D01*
X180247D02*
X180610D01*
X181408D02*
X193089D01*
X159858Y133356D02*
X169146D01*
X171322D02*
X179376D01*
X180247D02*
X180610D01*
X181408D02*
X193089D01*
X159858Y133283D02*
X169146D01*
X171322D02*
X179376D01*
X180174D02*
X180610D01*
X181408D02*
X193089D01*
X159858Y133211D02*
X169146D01*
X171322D02*
X179376D01*
X180174D02*
X180610D01*
X181408D02*
X193089D01*
X159858Y133138D02*
X169146D01*
X171322D02*
X179304D01*
X180174D02*
X180610D01*
X181408D02*
X193089D01*
X159858Y133066D02*
X169146D01*
X171322D02*
X179304D01*
X180174D02*
X180610D01*
X181408D02*
X193089D01*
X159858Y132993D02*
X169073D01*
X171322D02*
X179304D01*
X180174D02*
X180610D01*
X181408D02*
X193089D01*
X159858Y132921D02*
X169073D01*
X171322D02*
X179304D01*
X180174D02*
X180610D01*
X181408D02*
X193089D01*
X159858Y132848D02*
X169073D01*
X171322D02*
X179304D01*
X180174D02*
X180610D01*
X181408D02*
X193089D01*
X159858Y132775D02*
X169000D01*
X171322D02*
X179304D01*
X180102D02*
X180610D01*
X181408D02*
X193089D01*
X159858Y132703D02*
X169000D01*
X171322D02*
X179304D01*
X180102D02*
X180610D01*
X181408D02*
X193089D01*
X159858Y132630D02*
X169000D01*
X171322D02*
X179304D01*
X180102D02*
X180610D01*
X181408D02*
X193089D01*
X159858Y132558D02*
X169000D01*
X171322D02*
X179304D01*
X180102D02*
X180610D01*
X181408D02*
X193089D01*
X159858Y132485D02*
X168928D01*
X171322D02*
X179304D01*
X180102D02*
X180610D01*
X181408D02*
X193089D01*
X159858Y132413D02*
X168928D01*
X171322D02*
X179231D01*
X180102D02*
X180610D01*
X181408D02*
X193089D01*
X159858Y132340D02*
X168928D01*
X171322D02*
X179231D01*
X180102D02*
X180610D01*
X181408D02*
X193089D01*
X159858Y132268D02*
X168855D01*
X171322D02*
X179231D01*
X180029D02*
X180610D01*
X181480D02*
X193089D01*
X159858Y132195D02*
X168855D01*
X171322D02*
X179231D01*
X180029D02*
X180610D01*
X181480D02*
X193089D01*
X159858Y132122D02*
X168855D01*
X171322D02*
X179158D01*
X180029D02*
X180610D01*
X181480D02*
X193089D01*
X159858Y132050D02*
X168855D01*
X171322D02*
X179158D01*
X180029D02*
X180610D01*
X181480D02*
X193089D01*
X159858Y131977D02*
X168783D01*
X171322D02*
X179158D01*
X180029D02*
X180610D01*
X181480D02*
X193089D01*
X159858Y131905D02*
X168783D01*
X171322D02*
X179158D01*
X180029D02*
X180610D01*
X181480D02*
X193089D01*
X159858Y131832D02*
X168783D01*
X171322D02*
X179158D01*
X179957D02*
X180610D01*
X181480D02*
X193089D01*
X159858Y131760D02*
X168783D01*
X171322D02*
X179158D01*
X179957D02*
X180610D01*
X181553D02*
X193089D01*
X159858Y131687D02*
X168783D01*
X171322D02*
X179158D01*
X179957D02*
X180610D01*
X181553D02*
X193089D01*
X159858Y131614D02*
X168783D01*
X171322D02*
X179158D01*
X179957D02*
X180610D01*
X181553D02*
X193089D01*
X159858Y131542D02*
X168710D01*
X171322D02*
X179158D01*
X179957D02*
X180610D01*
X181553D02*
X193089D01*
X159858Y131469D02*
X168710D01*
X171322D02*
X179158D01*
X179957D02*
X180610D01*
X181553D02*
X193089D01*
X159858Y131397D02*
X168638D01*
X171322D02*
X179086D01*
X179957D02*
X180610D01*
X181553D02*
X193089D01*
X159858Y131324D02*
X168638D01*
X170016D02*
X170234D01*
X171322D02*
X179086D01*
X179957D02*
X180610D01*
X181553D02*
X193089D01*
X159858Y131252D02*
X168638D01*
X170016D02*
X170234D01*
X171322D02*
X179086D01*
X179957D02*
X180610D01*
X181553D02*
X193089D01*
X159858Y131179D02*
X168638D01*
X170016D02*
X170234D01*
X171322D02*
X179086D01*
X179884D02*
X180610D01*
X181553D02*
X193089D01*
X159858Y131107D02*
X168565D01*
X170016D02*
X170234D01*
X171322D02*
X179086D01*
X179884D02*
X180610D01*
X181553D02*
X193089D01*
X159858Y131034D02*
X168565D01*
X169944D02*
X170234D01*
X171322D02*
X179086D01*
X179884D02*
X180682D01*
X181553D02*
X193089D01*
X159858Y130962D02*
X168565D01*
X169944D02*
X170234D01*
X171322D02*
X179086D01*
X179884D02*
X180682D01*
X181553D02*
X193089D01*
X159858Y130889D02*
X168492D01*
X169871D02*
X170234D01*
X171322D02*
X179086D01*
X179812D02*
X180682D01*
X181553D02*
X193089D01*
X159858Y130816D02*
X168492D01*
X169871D02*
X170234D01*
X171322D02*
X179086D01*
X179812D02*
X180682D01*
X181553D02*
X193089D01*
X159858Y130744D02*
X168492D01*
X169871D02*
X170234D01*
X171322D02*
X179086D01*
X179812D02*
X180682D01*
X181553D02*
X193089D01*
X159858Y130671D02*
X168492D01*
X169871D02*
X170234D01*
X171322D02*
X179086D01*
X179812D02*
X180682D01*
X181553D02*
X193089D01*
X159858Y130599D02*
X168420D01*
X169799D02*
X170234D01*
X171322D02*
X179013D01*
X179812D02*
X180682D01*
X181625D02*
X193089D01*
X159858Y130526D02*
X168420D01*
X169799D02*
X170234D01*
X171322D02*
X179013D01*
X179812D02*
X180682D01*
X181625D02*
X193089D01*
X159858Y130454D02*
X168420D01*
X169799D02*
X170234D01*
X171322D02*
X179013D01*
X179812D02*
X180755D01*
X181625D02*
X193089D01*
X159858Y130381D02*
X168420D01*
X169799D02*
X170234D01*
X171322D02*
X179013D01*
X179812D02*
X180755D01*
X181625D02*
X193089D01*
X159858Y130308D02*
X168420D01*
X169799D02*
X170234D01*
X171322D02*
X179013D01*
X179812D02*
X180755D01*
X181625D02*
X193089D01*
X159858Y130236D02*
X168347D01*
X169726D02*
X170234D01*
X171322D02*
X178941D01*
X179812D02*
X180755D01*
X181625D02*
X193089D01*
X159858Y130163D02*
X168347D01*
X169726D02*
X170234D01*
X171322D02*
X178941D01*
X179812D02*
X180755D01*
X181625D02*
X193089D01*
X159858Y130091D02*
X168347D01*
X169653D02*
X170234D01*
X171322D02*
X178941D01*
X179739D02*
X180755D01*
X181625D02*
X193089D01*
X159858Y130018D02*
X168275D01*
X169653D02*
X170234D01*
X171322D02*
X178941D01*
X179739D02*
X180755D01*
X181625D02*
X193089D01*
X159858Y129946D02*
X168275D01*
X169653D02*
X170234D01*
X171322D02*
X178941D01*
X179739D02*
X180755D01*
X181625D02*
X193089D01*
X159858Y129873D02*
X168275D01*
X169653D02*
X170234D01*
X171322D02*
X178941D01*
X179739D02*
X180755D01*
X181625D02*
X193089D01*
X159858Y129801D02*
X168275D01*
X169653D02*
X170234D01*
X171322D02*
X178941D01*
X179739D02*
X180755D01*
X181625D02*
X193089D01*
X159858Y129728D02*
X168275D01*
X169653D02*
X170234D01*
X171322D02*
X178941D01*
X179739D02*
X180755D01*
X181698D02*
X193089D01*
X159858Y129656D02*
X168275D01*
X169581D02*
X170234D01*
X171322D02*
X178941D01*
X179739D02*
X180755D01*
X181698D02*
X193089D01*
X159858Y129583D02*
X168275D01*
X169581D02*
X170234D01*
X171322D02*
X178941D01*
X179739D02*
X180755D01*
X181698D02*
X193089D01*
X159858Y129510D02*
X168202D01*
X169508D02*
X170234D01*
X171322D02*
X178941D01*
X179739D02*
X180755D01*
X181698D02*
X193089D01*
X159858Y129438D02*
X168202D01*
X169508D02*
X170234D01*
X171322D02*
X178941D01*
X179739D02*
X180755D01*
X181698D02*
X193089D01*
X159858Y129365D02*
X168202D01*
X169508D02*
X170234D01*
X171322D02*
X178868D01*
X179739D02*
X180755D01*
X181698D02*
X193089D01*
X159858Y129293D02*
X168202D01*
X169508D02*
X170234D01*
X171395D02*
X178868D01*
X179666D02*
X180827D01*
X181698D02*
X193089D01*
X159858Y129220D02*
X168202D01*
X169508D02*
X170234D01*
X171395D02*
X175168D01*
X175313D02*
X178868D01*
X179666D02*
X180827D01*
X181698D02*
X193089D01*
X159858Y129148D02*
X168130D01*
X169508D02*
X170234D01*
X171395D02*
X175095D01*
X175458D02*
X178868D01*
X179666D02*
X180827D01*
X181771D02*
X193089D01*
X159858Y129075D02*
X168130D01*
X169508D02*
X170234D01*
X171395D02*
X175023D01*
X175531D02*
X178868D01*
X179666D02*
X180827D01*
X181771D02*
X193089D01*
X159858Y129002D02*
X168130D01*
X169508D02*
X170234D01*
X171395D02*
X174950D01*
X175603D02*
X178796D01*
X179666D02*
X180827D01*
X181771D02*
X193089D01*
X159858Y128930D02*
X168130D01*
X169508D02*
X170234D01*
X171395D02*
X174878D01*
X175603D02*
X178796D01*
X179666D02*
X180827D01*
X181771D02*
X193089D01*
X159858Y128857D02*
X168130D01*
X169436D02*
X170306D01*
X171395D02*
X174805D01*
X175676D02*
X178796D01*
X179666D02*
X180827D01*
X181771D02*
X193089D01*
X159858Y128785D02*
X168130D01*
X169436D02*
X170306D01*
X171395D02*
X174805D01*
X175676D02*
X178796D01*
X179594D02*
X180827D01*
X181771D02*
X193089D01*
X159858Y128712D02*
X168130D01*
X169436D02*
X170306D01*
X171395D02*
X174732D01*
X175748D02*
X178796D01*
X179594D02*
X180827D01*
X181771D02*
X193089D01*
X159858Y128640D02*
X168130D01*
X169436D02*
X170306D01*
X171395D02*
X174660D01*
X175748D02*
X178796D01*
X179594D02*
X180827D01*
X181771D02*
X193089D01*
X159858Y128567D02*
X168130D01*
X169436D02*
X170306D01*
X171395D02*
X174660D01*
X175821D02*
X178796D01*
X179594D02*
X180827D01*
X181771D02*
X193089D01*
X159858Y128495D02*
X168057D01*
X169436D02*
X170306D01*
X171395D02*
X174660D01*
X175821D02*
X178796D01*
X179594D02*
X180900D01*
X181771D02*
X193089D01*
X159858Y128422D02*
X165155D01*
X165300D02*
X168057D01*
X169436D02*
X170306D01*
X171395D02*
X174587D01*
X175821D02*
X178796D01*
X179594D02*
X180900D01*
X181771D02*
X193089D01*
X159858Y128349D02*
X164865D01*
X165518D02*
X168057D01*
X169436D02*
X170306D01*
X171395D02*
X174587D01*
X175821D02*
X178796D01*
X179594D02*
X180900D01*
X181771D02*
X193089D01*
X159858Y128277D02*
X164792D01*
X165518D02*
X168057D01*
X169363D02*
X170306D01*
X171395D02*
X174587D01*
X175893D02*
X178796D01*
X179594D02*
X180900D01*
X181843D02*
X193089D01*
X159858Y128204D02*
X164719D01*
X165663D02*
X168057D01*
X169363D02*
X170306D01*
X171395D02*
X174515D01*
X175893D02*
X178796D01*
X179594D02*
X180900D01*
X181843D02*
X193089D01*
X159858Y128132D02*
X164647D01*
X165808D02*
X168057D01*
X169363D02*
X170306D01*
X171467D02*
X174515D01*
X175966D02*
X178723D01*
X179594D02*
X180900D01*
X181843D02*
X193089D01*
X159858Y128059D02*
X164574D01*
X165808D02*
X168057D01*
X169363D02*
X170306D01*
X171467D02*
X174515D01*
X175966D02*
X178723D01*
X179521D02*
X180900D01*
X181843D02*
X193089D01*
X159858Y127987D02*
X164502D01*
X165880D02*
X168057D01*
X169363D02*
X170306D01*
X171467D02*
X174442D01*
X175966D02*
X178723D01*
X179521D02*
X180900D01*
X181843D02*
X193089D01*
X159858Y127914D02*
X164502D01*
X165880D02*
X168057D01*
X169291D02*
X170306D01*
X171467D02*
X174442D01*
X175966D02*
X178723D01*
X179521D02*
X180900D01*
X181916D02*
X193089D01*
X159858Y127841D02*
X164429D01*
X165953D02*
X168057D01*
X169291D02*
X170306D01*
X171467D02*
X174442D01*
X175966D02*
X178723D01*
X179521D02*
X180900D01*
X181916D02*
X193089D01*
X159858Y127769D02*
X164429D01*
X166025D02*
X168057D01*
X169291D02*
X170306D01*
X171467D02*
X174442D01*
X175966D02*
X178723D01*
X179521D02*
X180900D01*
X181916D02*
X193089D01*
X159858Y127696D02*
X164284D01*
X166025D02*
X168057D01*
X169291D02*
X170306D01*
X171467D02*
X174442D01*
X176039D02*
X178723D01*
X179521D02*
X180900D01*
X181916D02*
X193089D01*
X159858Y127624D02*
X164284D01*
X166171D02*
X168057D01*
X169291D02*
X170306D01*
X171467D02*
X174442D01*
X176039D02*
X178723D01*
X179521D02*
X180900D01*
X181916D02*
X193089D01*
X159858Y127551D02*
X164211D01*
X166171D02*
X168057D01*
X169291D02*
X170306D01*
X171467D02*
X174370D01*
X176039D02*
X178723D01*
X179449D02*
X180972D01*
X181916D02*
X193089D01*
X159858Y127479D02*
X164139D01*
X166171D02*
X168057D01*
X169291D02*
X170306D01*
X171467D02*
X174370D01*
X176039D02*
X178723D01*
X179449D02*
X180972D01*
X181916D02*
X193089D01*
X159858Y127406D02*
X164139D01*
X166243D02*
X168057D01*
X169291D02*
X170306D01*
X171467D02*
X174370D01*
X176039D02*
X178723D01*
X179449D02*
X180972D01*
X181916D02*
X193089D01*
X159858Y127334D02*
X164139D01*
X166243D02*
X167984D01*
X169291D02*
X170306D01*
X171467D02*
X174370D01*
X176039D02*
X178723D01*
X179449D02*
X180972D01*
X181916D02*
X193089D01*
X159858Y127261D02*
X164066D01*
X166243D02*
X167984D01*
X169291D02*
X170306D01*
X171467D02*
X174370D01*
X176039D02*
X178650D01*
X179449D02*
X180972D01*
X181916D02*
X193089D01*
X159858Y127189D02*
X164066D01*
X166316D02*
X167984D01*
X169291D02*
X170306D01*
X171467D02*
X174297D01*
X176111D02*
X178650D01*
X179449D02*
X180972D01*
X181916D02*
X193089D01*
X159858Y127116D02*
X163994D01*
X166388D02*
X167984D01*
X169291D02*
X170306D01*
X171467D02*
X174297D01*
X176111D02*
X178650D01*
X179449D02*
X180972D01*
X181916D02*
X193089D01*
X159858Y127043D02*
X163994D01*
X166388D02*
X167984D01*
X169291D02*
X170306D01*
X171467D02*
X174297D01*
X176111D02*
X178650D01*
X179449D02*
X180972D01*
X181916D02*
X193089D01*
X159858Y126971D02*
X163921D01*
X166461D02*
X167984D01*
X169218D02*
X170306D01*
X171467D02*
X174297D01*
X176111D02*
X178650D01*
X179449D02*
X180972D01*
X181988D02*
X193089D01*
X159858Y126898D02*
X163921D01*
X166461D02*
X167984D01*
X169218D02*
X170306D01*
X171467D02*
X174297D01*
X176184D02*
X178578D01*
X179449D02*
X180972D01*
X181988D02*
X193089D01*
X159858Y126826D02*
X163921D01*
X166533D02*
X167912D01*
X169218D02*
X170306D01*
X171467D02*
X174297D01*
X176184D02*
X178578D01*
X179449D02*
X180972D01*
X181988D02*
X193089D01*
X159858Y126753D02*
X163849D01*
X166533D02*
X167912D01*
X169218D02*
X170306D01*
X171467D02*
X174297D01*
X176184D02*
X178578D01*
X179449D02*
X180972D01*
X181988D02*
X193089D01*
X159858Y126681D02*
X163776D01*
X166533D02*
X167912D01*
X169218D02*
X170306D01*
X171467D02*
X174224D01*
X176184D02*
X178578D01*
X179376D02*
X180972D01*
X181988D02*
X193089D01*
X159858Y126608D02*
X163776D01*
X166533D02*
X167912D01*
X169218D02*
X170306D01*
X171467D02*
X174224D01*
X176184D02*
X178578D01*
X179376D02*
X180972D01*
X181988D02*
X193089D01*
X159858Y126535D02*
X163776D01*
X166606D02*
X167912D01*
X169146D02*
X170306D01*
X171467D02*
X174224D01*
X176184D02*
X178578D01*
X179376D02*
X181045D01*
X181988D02*
X193089D01*
X159858Y126463D02*
X163704D01*
X166606D02*
X167912D01*
X169146D02*
X170306D01*
X171467D02*
X174224D01*
X176256D02*
X178578D01*
X179376D02*
X181045D01*
X181988D02*
X193089D01*
X159858Y126390D02*
X163704D01*
X166606D02*
X167912D01*
X169146D02*
X170306D01*
X171467D02*
X174224D01*
X176256D02*
X178578D01*
X179376D02*
X181045D01*
X181988D02*
X193089D01*
X159858Y126318D02*
X163704D01*
X166606D02*
X167912D01*
X169146D02*
X170306D01*
X171467D02*
X174224D01*
X176256D02*
X178578D01*
X179376D02*
X181045D01*
X181988D02*
X193089D01*
X159858Y126245D02*
X163704D01*
X166679D02*
X167912D01*
X169146D02*
X170306D01*
X171467D02*
X174224D01*
X176256D02*
X178578D01*
X179376D02*
X181045D01*
X181988D02*
X193089D01*
X159858Y126173D02*
X163631D01*
X166679D02*
X167912D01*
X169146D02*
X170306D01*
X171467D02*
X174224D01*
X176256D02*
X178578D01*
X179376D02*
X181117D01*
X182061D02*
X193089D01*
X159858Y126100D02*
X163558D01*
X166751D02*
X167912D01*
X169146D02*
X170306D01*
X171540D02*
X174224D01*
X175095D02*
X175168D01*
X176329D02*
X178578D01*
X179376D02*
X181117D01*
X182061D02*
X193089D01*
X159858Y126028D02*
X163558D01*
X165010D02*
X165227D01*
X166751D02*
X167912D01*
X169146D02*
X170306D01*
X171540D02*
X174152D01*
X175095D02*
X175240D01*
X176329D02*
X178578D01*
X179376D02*
X181117D01*
X182061D02*
X193089D01*
X159858Y125955D02*
X163486D01*
X165010D02*
X165227D01*
X166751D02*
X167912D01*
X169146D02*
X170306D01*
X171540D02*
X174152D01*
X175095D02*
X175240D01*
X176329D02*
X178578D01*
X179376D02*
X181117D01*
X182061D02*
X193089D01*
X159858Y125882D02*
X163486D01*
X164937D02*
X165227D01*
X166751D02*
X167912D01*
X169146D02*
X170306D01*
X171540D02*
X174152D01*
X175023D02*
X175240D01*
X176329D02*
X178505D01*
X179376D02*
X181117D01*
X182061D02*
X193089D01*
X159858Y125810D02*
X163413D01*
X164937D02*
X165227D01*
X166751D02*
X167912D01*
X169146D02*
X170306D01*
X171540D02*
X174079D01*
X175023D02*
X175240D01*
X176329D02*
X178505D01*
X179376D02*
X181117D01*
X182061D02*
X193089D01*
X159858Y125737D02*
X163413D01*
X164937D02*
X165227D01*
X166824D02*
X167912D01*
X169146D02*
X170306D01*
X171540D02*
X174079D01*
X175023D02*
X175240D01*
X176329D02*
X178505D01*
X179376D02*
X181117D01*
X182061D02*
X193089D01*
X159858Y125665D02*
X163341D01*
X164937D02*
X165227D01*
X166824D02*
X167912D01*
X169146D02*
X170306D01*
X171540D02*
X174079D01*
X175023D02*
X175313D01*
X176329D02*
X178505D01*
X179376D02*
X181117D01*
X182133D02*
X193089D01*
X159858Y125592D02*
X163268D01*
X164937D02*
X165227D01*
X166896D02*
X167912D01*
X169146D02*
X170306D01*
X171540D02*
X174079D01*
X175023D02*
X175313D01*
X176401D02*
X178505D01*
X179376D02*
X181117D01*
X182133D02*
X193089D01*
X159858Y125520D02*
X163268D01*
X164865D02*
X165227D01*
X166896D02*
X167912D01*
X169146D02*
X170306D01*
X171540D02*
X174079D01*
X174950D02*
X175313D01*
X176401D02*
X178505D01*
X179304D02*
X181117D01*
X182133D02*
X193089D01*
X159858Y125447D02*
X163196D01*
X164865D02*
X165227D01*
X166896D02*
X167839D01*
X169073D02*
X170306D01*
X171540D02*
X174079D01*
X174950D02*
X175313D01*
X176401D02*
X178433D01*
X179304D02*
X181117D01*
X182133D02*
X193089D01*
X159858Y125375D02*
X163123D01*
X164792D02*
X165300D01*
X166896D02*
X167839D01*
X169073D02*
X170306D01*
X171540D02*
X174079D01*
X174950D02*
X175313D01*
X176401D02*
X178433D01*
X179304D02*
X181117D01*
X182133D02*
X193089D01*
X159858Y125302D02*
X163051D01*
X164792D02*
X165300D01*
X166896D02*
X167839D01*
X169073D02*
X170306D01*
X171540D02*
X174007D01*
X174950D02*
X175313D01*
X176474D02*
X178433D01*
X179304D02*
X181190D01*
X182133D02*
X193089D01*
X159858Y125229D02*
X162978D01*
X164792D02*
X165300D01*
X166969D02*
X167839D01*
X169073D02*
X170306D01*
X171540D02*
X174007D01*
X174950D02*
X175313D01*
X176474D02*
X178433D01*
X179304D02*
X181190D01*
X182133D02*
X193089D01*
X159858Y125157D02*
X162906D01*
X164719D02*
X165373D01*
X166969D02*
X167839D01*
X169073D02*
X170306D01*
X171612D02*
X174007D01*
X174950D02*
X175385D01*
X176474D02*
X178433D01*
X179231D02*
X181190D01*
X182133D02*
X193089D01*
X159858Y125084D02*
X162760D01*
X164719D02*
X165373D01*
X166969D02*
X167839D01*
X169073D02*
X170306D01*
X171612D02*
X174007D01*
X174950D02*
X175385D01*
X176474D02*
X178433D01*
X179231D02*
X181190D01*
X182133D02*
X193089D01*
X159858Y125012D02*
X162688D01*
X164647D02*
X165373D01*
X166969D02*
X167839D01*
X169073D02*
X170379D01*
X171612D02*
X174007D01*
X174950D02*
X175385D01*
X176474D02*
X178433D01*
X179231D02*
X181190D01*
X182133D02*
X193089D01*
X159858Y124939D02*
X161454D01*
X161600D02*
X162470D01*
X164647D02*
X165373D01*
X166969D02*
X167839D01*
X169073D02*
X170379D01*
X171612D02*
X173934D01*
X174950D02*
X175385D01*
X176474D02*
X178433D01*
X179231D02*
X181190D01*
X182206D02*
X193089D01*
X159858Y124867D02*
X161309D01*
X161890D02*
X162252D01*
X164574D02*
X165373D01*
X166969D02*
X167839D01*
X169073D02*
X170379D01*
X171612D02*
X173934D01*
X174878D02*
X175385D01*
X176474D02*
X178433D01*
X179231D02*
X181190D01*
X182206D02*
X193089D01*
X159858Y124794D02*
X161164D01*
X164574D02*
X165373D01*
X167041D02*
X167839D01*
X169073D02*
X170379D01*
X171612D02*
X173934D01*
X174878D02*
X175385D01*
X176474D02*
X178433D01*
X179231D02*
X181263D01*
X182206D02*
X193089D01*
X159858Y124722D02*
X161091D01*
X164574D02*
X165373D01*
X167041D02*
X167767D01*
X169073D02*
X170379D01*
X171612D02*
X173934D01*
X174878D02*
X175385D01*
X176546D02*
X178433D01*
X179231D02*
X181263D01*
X182206D02*
X193089D01*
X159858Y124649D02*
X161019D01*
X164429D02*
X165373D01*
X167041D02*
X167767D01*
X169073D02*
X170379D01*
X171612D02*
X173934D01*
X174878D02*
X175385D01*
X176546D02*
X178433D01*
X179231D02*
X181263D01*
X182206D02*
X193089D01*
X159858Y124576D02*
X161019D01*
X164429D02*
X165373D01*
X167114D02*
X167767D01*
X169073D02*
X170379D01*
X171612D02*
X173934D01*
X174878D02*
X175385D01*
X176546D02*
X178433D01*
X179231D02*
X181263D01*
X182206D02*
X193089D01*
X159858Y124504D02*
X161019D01*
X164429D02*
X165445D01*
X167114D02*
X167767D01*
X169000D02*
X170379D01*
X171612D02*
X173934D01*
X174878D02*
X175385D01*
X176546D02*
X178433D01*
X179231D02*
X181263D01*
X182206D02*
X193089D01*
X159858Y124431D02*
X160946D01*
X164357D02*
X165445D01*
X167114D02*
X167767D01*
X169000D02*
X170379D01*
X171612D02*
X173862D01*
X174878D02*
X175458D01*
X176546D02*
X178360D01*
X179231D02*
X181263D01*
X182278D02*
X193089D01*
X159858Y124359D02*
X160946D01*
X164284D02*
X165445D01*
X167114D02*
X167767D01*
X169000D02*
X170379D01*
X171612D02*
X173862D01*
X174878D02*
X175458D01*
X176546D02*
X178360D01*
X179231D02*
X181263D01*
X182278D02*
X193089D01*
X159858Y124286D02*
X160874D01*
X164211D02*
X165445D01*
X167114D02*
X167767D01*
X169000D02*
X170379D01*
X171612D02*
X173862D01*
X174805D02*
X175458D01*
X176546D02*
X178360D01*
X179231D02*
X181263D01*
X182278D02*
X193089D01*
X159858Y124214D02*
X160874D01*
X164211D02*
X165518D01*
X167114D02*
X167767D01*
X169000D02*
X170379D01*
X171612D02*
X173862D01*
X174805D02*
X175458D01*
X176619D02*
X178360D01*
X179158D02*
X181263D01*
X182278D02*
X193089D01*
X159858Y124141D02*
X160874D01*
X164139D02*
X165518D01*
X167114D02*
X167767D01*
X169000D02*
X170379D01*
X171612D02*
X173862D01*
X174805D02*
X175531D01*
X176619D02*
X178360D01*
X179158D02*
X181263D01*
X182278D02*
X193089D01*
X159858Y124068D02*
X160874D01*
X164066D02*
X165518D01*
X167186D02*
X167767D01*
X169000D02*
X170379D01*
X171612D02*
X173862D01*
X174805D02*
X175531D01*
X176619D02*
X178360D01*
X179158D02*
X181263D01*
X182278D02*
X193089D01*
X159858Y123996D02*
X160874D01*
X163994D02*
X165518D01*
X167186D02*
X167767D01*
X169000D02*
X170379D01*
X171612D02*
X173862D01*
X174732D02*
X175531D01*
X176619D02*
X178360D01*
X179158D02*
X181335D01*
X182278D02*
X193089D01*
X159858Y123923D02*
X160874D01*
X163994D02*
X165518D01*
X167186D02*
X167767D01*
X168928D02*
X170379D01*
X171612D02*
X173862D01*
X174732D02*
X175531D01*
X176619D02*
X178360D01*
X179158D02*
X181335D01*
X182278D02*
X193089D01*
X159858Y123851D02*
X160946D01*
X163849D02*
X165518D01*
X167259D02*
X167767D01*
X168928D02*
X170379D01*
X171612D02*
X173862D01*
X174732D02*
X175531D01*
X176619D02*
X178360D01*
X179158D02*
X181335D01*
X182278D02*
X193089D01*
X159858Y123778D02*
X160946D01*
X163776D02*
X165518D01*
X167259D02*
X167767D01*
X168928D02*
X170379D01*
X171612D02*
X173789D01*
X174732D02*
X175531D01*
X176691D02*
X178360D01*
X179158D02*
X181335D01*
X182278D02*
X193089D01*
X159858Y123706D02*
X160946D01*
X163704D02*
X165518D01*
X167259D02*
X167767D01*
X168928D02*
X170451D01*
X171685D02*
X173789D01*
X174732D02*
X175531D01*
X176691D02*
X178360D01*
X179158D02*
X181335D01*
X182351D02*
X193089D01*
X159858Y123633D02*
X161019D01*
X163631D02*
X165590D01*
X167259D02*
X167767D01*
X168928D02*
X170451D01*
X171685D02*
X173789D01*
X174732D02*
X175531D01*
X176691D02*
X178288D01*
X179158D02*
X181335D01*
X182351D02*
X193089D01*
X159858Y123561D02*
X161019D01*
X163486D02*
X165590D01*
X167259D02*
X167767D01*
X168928D02*
X170451D01*
X171685D02*
X173789D01*
X174732D02*
X175531D01*
X176691D02*
X178288D01*
X179086D02*
X181335D01*
X182351D02*
X193089D01*
X159858Y123488D02*
X161091D01*
X163341D02*
X165590D01*
X167259D02*
X167767D01*
X168928D02*
X170451D01*
X171685D02*
X173789D01*
X174732D02*
X175603D01*
X176691D02*
X178288D01*
X179086D02*
X181335D01*
X182351D02*
X193089D01*
X159858Y123416D02*
X161164D01*
X163196D02*
X165590D01*
X167259D02*
X167767D01*
X168928D02*
X170451D01*
X171685D02*
X173717D01*
X174732D02*
X175603D01*
X176691D02*
X178288D01*
X179086D02*
X181335D01*
X182351D02*
X193089D01*
X159858Y123343D02*
X161237D01*
X163051D02*
X165590D01*
X167259D02*
X167767D01*
X168928D02*
X170451D01*
X171685D02*
X173717D01*
X174660D02*
X175603D01*
X176691D02*
X178288D01*
X179086D02*
X181335D01*
X182351D02*
X193089D01*
X159858Y123270D02*
X161382D01*
X162833D02*
X165590D01*
X167332D02*
X167767D01*
X168928D02*
X170451D01*
X171685D02*
X173717D01*
X174660D02*
X175603D01*
X176691D02*
X178288D01*
X179086D02*
X181335D01*
X182351D02*
X193089D01*
X159858Y123198D02*
X161454D01*
X162688D02*
X165590D01*
X167332D02*
X167767D01*
X168928D02*
X170451D01*
X171685D02*
X173717D01*
X174660D02*
X175676D01*
X176764D02*
X178288D01*
X179086D02*
X181335D01*
X182351D02*
X193089D01*
X159858Y123125D02*
X165663D01*
X167332D02*
X167767D01*
X168928D02*
X170451D01*
X171685D02*
X173717D01*
X174660D02*
X175676D01*
X176764D02*
X178288D01*
X179086D02*
X181408D01*
X182351D02*
X193089D01*
X159858Y123053D02*
X165663D01*
X167332D02*
X167694D01*
X168928D02*
X170451D01*
X171685D02*
X173717D01*
X174587D02*
X175676D01*
X176764D02*
X178215D01*
X179086D02*
X181408D01*
X182351D02*
X193089D01*
X159858Y122980D02*
X165663D01*
X167332D02*
X167694D01*
X168928D02*
X170451D01*
X171685D02*
X173717D01*
X174587D02*
X175676D01*
X176837D02*
X178215D01*
X179086D02*
X181408D01*
X182351D02*
X193089D01*
X159858Y122908D02*
X165663D01*
X167332D02*
X167694D01*
X168928D02*
X170451D01*
X171685D02*
X173644D01*
X174587D02*
X175676D01*
X176837D02*
X178215D01*
X179086D02*
X181408D01*
X182423D02*
X193089D01*
X159858Y122835D02*
X165663D01*
X167332D02*
X167694D01*
X168928D02*
X170451D01*
X171685D02*
X173644D01*
X174587D02*
X175676D01*
X176837D02*
X178215D01*
X179086D02*
X181408D01*
X182423D02*
X193089D01*
X159858Y122763D02*
X165735D01*
X167404D02*
X167694D01*
X168855D02*
X170451D01*
X171685D02*
X173644D01*
X174587D02*
X175676D01*
X176837D02*
X178215D01*
X179086D02*
X181480D01*
X182423D02*
X193089D01*
X159858Y122690D02*
X165735D01*
X167404D02*
X167694D01*
X168855D02*
X170451D01*
X171685D02*
X173644D01*
X174587D02*
X175676D01*
X176837D02*
X178215D01*
X179086D02*
X181480D01*
X182423D02*
X193089D01*
X159858Y122617D02*
X165735D01*
X167404D02*
X167694D01*
X168855D02*
X170451D01*
X171685D02*
X173644D01*
X174587D02*
X175748D01*
X176837D02*
X178215D01*
X179013D02*
X181480D01*
X182423D02*
X193089D01*
X159858Y122545D02*
X165735D01*
X167477D02*
X167694D01*
X168855D02*
X170451D01*
X171685D02*
X173572D01*
X174587D02*
X175748D01*
X176837D02*
X178215D01*
X179013D02*
X181480D01*
X182496D02*
X193089D01*
X159858Y122472D02*
X165735D01*
X167477D02*
X167694D01*
X168855D02*
X170451D01*
X171685D02*
X173572D01*
X174587D02*
X175748D01*
X176837D02*
X178215D01*
X179013D02*
X181480D01*
X182496D02*
X193089D01*
X159858Y122400D02*
X165735D01*
X167477D02*
X167694D01*
X168855D02*
X170451D01*
X171685D02*
X173572D01*
X174515D02*
X175748D01*
X176837D02*
X178215D01*
X179013D02*
X181480D01*
X182496D02*
X193089D01*
X159858Y122327D02*
X165735D01*
X167477D02*
X167694D01*
X168855D02*
X170451D01*
X171685D02*
X173572D01*
X174515D02*
X175748D01*
X176909D02*
X178215D01*
X179013D02*
X181480D01*
X182496D02*
X193089D01*
X159858Y122255D02*
X165808D01*
X167477D02*
X167694D01*
X168783D02*
X170451D01*
X171685D02*
X173572D01*
X174515D02*
X175748D01*
X176909D02*
X178215D01*
X179013D02*
X181480D01*
X182496D02*
X193089D01*
X159858Y122182D02*
X165808D01*
X167477D02*
X167694D01*
X168783D02*
X170451D01*
X171685D02*
X173572D01*
X174515D02*
X175748D01*
X176909D02*
X178143D01*
X179013D02*
X181480D01*
X182496D02*
X193089D01*
X159858Y122109D02*
X165808D01*
X167477D02*
X167694D01*
X168783D02*
X170451D01*
X171685D02*
X173572D01*
X174515D02*
X175748D01*
X176909D02*
X178143D01*
X179013D02*
X181480D01*
X182496D02*
X193089D01*
X159858Y122037D02*
X165808D01*
X167477D02*
X167694D01*
X168783D02*
X170451D01*
X171757D02*
X173499D01*
X174515D02*
X175748D01*
X176909D02*
X178143D01*
X179013D02*
X181480D01*
X182496D02*
X193089D01*
X159858Y121964D02*
X165880D01*
X167477D02*
X167694D01*
X168783D02*
X170451D01*
X171757D02*
X173499D01*
X174515D02*
X175821D01*
X176909D02*
X178143D01*
X179013D02*
X181553D01*
X182496D02*
X192944D01*
X193017D02*
X193089D01*
X159858Y121892D02*
X165880D01*
X167477D02*
X167694D01*
X168783D02*
X170451D01*
X171757D02*
X173499D01*
X174442D02*
X175821D01*
X176909D02*
X178143D01*
X179013D02*
X181553D01*
X182496D02*
X192509D01*
X193017D02*
X193089D01*
X159858Y121819D02*
X165880D01*
X168783D02*
X170451D01*
X171757D02*
X173499D01*
X174442D02*
X175821D01*
X176909D02*
X178070D01*
X179013D02*
X181553D01*
X182569D02*
X192074D01*
X193017D02*
X193089D01*
X159858Y121747D02*
X165880D01*
X168783D02*
X170451D01*
X171757D02*
X173499D01*
X174442D02*
X175821D01*
X176909D02*
X178070D01*
X179013D02*
X181553D01*
X182569D02*
X191856D01*
X193017D02*
X193089D01*
X159858Y121674D02*
X165880D01*
X168783D02*
X170451D01*
X171757D02*
X173499D01*
X174442D02*
X175893D01*
X176982D02*
X178070D01*
X179013D02*
X181625D01*
X182569D02*
X191421D01*
X193017D02*
X193089D01*
X159858Y121602D02*
X165880D01*
X168783D02*
X170451D01*
X171757D02*
X173499D01*
X174370D02*
X175893D01*
X176982D02*
X178070D01*
X179013D02*
X181625D01*
X182569D02*
X191276D01*
X193017D02*
X193089D01*
X159858Y121529D02*
X165880D01*
X168783D02*
X170451D01*
X171757D02*
X173499D01*
X174370D02*
X175893D01*
X176982D02*
X178070D01*
X179013D02*
X181625D01*
X182569D02*
X190913D01*
X193017D02*
X193089D01*
X159858Y121456D02*
X165880D01*
X168783D02*
X170524D01*
X171757D02*
X173499D01*
X174370D02*
X175893D01*
X176982D02*
X178070D01*
X178941D02*
X181625D01*
X182569D02*
X190695D01*
X193017D02*
X193089D01*
X159858Y121384D02*
X165953D01*
X168783D02*
X170524D01*
X171757D02*
X173426D01*
X174370D02*
X175893D01*
X176982D02*
X178070D01*
X178941D02*
X181625D01*
X182641D02*
X190405D01*
X193017D02*
X193089D01*
X159858Y121311D02*
X165953D01*
X168783D02*
X170524D01*
X171830D02*
X173426D01*
X174370D02*
X175893D01*
X177054D02*
X178070D01*
X178941D02*
X181625D01*
X182641D02*
X190042D01*
X193017D02*
X193089D01*
X159858Y121239D02*
X165953D01*
X168783D02*
X170524D01*
X171830D02*
X173426D01*
X174370D02*
X175893D01*
X177054D02*
X178070D01*
X178941D02*
X181625D01*
X182641D02*
X189970D01*
X192654D02*
X193089D01*
X159858Y121166D02*
X165953D01*
X168783D02*
X170524D01*
X171830D02*
X173354D01*
X174370D02*
X175893D01*
X177054D02*
X178070D01*
X178941D02*
X181625D01*
X182641D02*
X189607D01*
X192509D02*
X193089D01*
X159858Y121094D02*
X165953D01*
X168783D02*
X170524D01*
X171830D02*
X173354D01*
X174370D02*
X175893D01*
X177054D02*
X178070D01*
X178868D02*
X181625D01*
X182641D02*
X189534D01*
X192074D02*
X193089D01*
X159858Y121021D02*
X165953D01*
X168783D02*
X170524D01*
X171830D02*
X173354D01*
X174370D02*
X175966D01*
X177054D02*
X178070D01*
X178868D02*
X181625D01*
X182641D02*
X189244D01*
X191783D02*
X193089D01*
X159858Y120949D02*
X165953D01*
X168783D02*
X170524D01*
X171830D02*
X173354D01*
X174297D02*
X175966D01*
X177054D02*
X178070D01*
X178868D02*
X181698D01*
X182641D02*
X189026D01*
X191566D02*
X193089D01*
X159858Y120876D02*
X166025D01*
X168710D02*
X170524D01*
X171830D02*
X173354D01*
X174297D02*
X175966D01*
X177054D02*
X178070D01*
X178868D02*
X181698D01*
X182641D02*
X188881D01*
X191348D02*
X193089D01*
X159858Y120803D02*
X166025D01*
X168710D02*
X170597D01*
X171830D02*
X173354D01*
X174297D02*
X175966D01*
X177127D02*
X178070D01*
X178868D02*
X181698D01*
X182641D02*
X188663D01*
X191203D02*
X193089D01*
X159858Y120731D02*
X166025D01*
X168710D02*
X170597D01*
X171830D02*
X173354D01*
X174297D02*
X176039D01*
X177127D02*
X177998D01*
X178868D02*
X181698D01*
X182641D02*
X188591D01*
X190840D02*
X193089D01*
X159858Y120658D02*
X166025D01*
X168710D02*
X170597D01*
X171830D02*
X173354D01*
X174224D02*
X176039D01*
X177127D02*
X177998D01*
X178868D02*
X181698D01*
X182714D02*
X188373D01*
X190768D02*
X193089D01*
X159858Y120586D02*
X166025D01*
X168710D02*
X170597D01*
X171830D02*
X173354D01*
X174224D02*
X176039D01*
X177127D02*
X177998D01*
X178868D02*
X181698D01*
X182714D02*
X188228D01*
X190477D02*
X193089D01*
X159858Y120513D02*
X166098D01*
X168710D02*
X170597D01*
X171830D02*
X173354D01*
X174224D02*
X176039D01*
X177127D02*
X177998D01*
X178868D02*
X181698D01*
X182714D02*
X188083D01*
X190260D02*
X193089D01*
X159858Y120441D02*
X166098D01*
X168710D02*
X170597D01*
X171830D02*
X173281D01*
X174224D02*
X176039D01*
X177127D02*
X177998D01*
X178868D02*
X181698D01*
X182714D02*
X187865D01*
X190187D02*
X193089D01*
X159858Y120368D02*
X166098D01*
X168710D02*
X170597D01*
X171830D02*
X173281D01*
X174224D02*
X176039D01*
X177199D02*
X177998D01*
X178868D02*
X181698D01*
X182714D02*
X187793D01*
X189970D02*
X193089D01*
X159858Y120296D02*
X166098D01*
X168710D02*
X170597D01*
X171830D02*
X173281D01*
X174224D02*
X176039D01*
X177199D02*
X177998D01*
X178868D02*
X181698D01*
X182714D02*
X187648D01*
X189824D02*
X193089D01*
X159858Y120223D02*
X166098D01*
X168710D02*
X170597D01*
X171830D02*
X173209D01*
X174224D02*
X176039D01*
X177199D02*
X177998D01*
X178868D02*
X181771D01*
X182714D02*
X187503D01*
X189607D02*
X193089D01*
X159858Y120150D02*
X166098D01*
X168710D02*
X170597D01*
X171830D02*
X173209D01*
X174224D02*
X176039D01*
X177199D02*
X177998D01*
X178868D02*
X181771D01*
X182714D02*
X187430D01*
X189534D02*
X193089D01*
X159858Y120078D02*
X166098D01*
X168710D02*
X170597D01*
X171830D02*
X173209D01*
X174224D02*
X176111D01*
X177199D02*
X177998D01*
X178868D02*
X181771D01*
X182714D02*
X187285D01*
X189316D02*
X193089D01*
X159858Y120005D02*
X166171D01*
X168710D02*
X170597D01*
X171830D02*
X173209D01*
X174152D02*
X176111D01*
X177199D02*
X177998D01*
X178868D02*
X181771D01*
X182714D02*
X187140D01*
X189171D02*
X193089D01*
X159858Y119933D02*
X166171D01*
X168710D02*
X170597D01*
X171830D02*
X173209D01*
X174152D02*
X176111D01*
X177199D02*
X177925D01*
X178868D02*
X181771D01*
X182714D02*
X187067D01*
X189099D02*
X193089D01*
X159858Y119860D02*
X166171D01*
X168710D02*
X170597D01*
X171903D02*
X173209D01*
X174152D02*
X176111D01*
X177199D02*
X177925D01*
X178796D02*
X181843D01*
X182786D02*
X186922D01*
X188881D02*
X193089D01*
X159858Y119788D02*
X166171D01*
X168710D02*
X170597D01*
X171903D02*
X173209D01*
X174152D02*
X176111D01*
X177272D02*
X177925D01*
X178796D02*
X181843D01*
X182786D02*
X186777D01*
X188809D02*
X193089D01*
X159858Y119715D02*
X166243D01*
X168638D02*
X170597D01*
X171903D02*
X173209D01*
X174152D02*
X176111D01*
X177272D02*
X177925D01*
X178796D02*
X181843D01*
X182786D02*
X186777D01*
X188663D02*
X193089D01*
X159858Y119642D02*
X166243D01*
X168638D02*
X170597D01*
X171903D02*
X173209D01*
X174152D02*
X176111D01*
X177272D02*
X177925D01*
X178796D02*
X181843D01*
X182786D02*
X186632D01*
X188591D02*
X193089D01*
X159858Y119570D02*
X166243D01*
X168638D02*
X170597D01*
X171903D02*
X173136D01*
X174152D02*
X176184D01*
X177272D02*
X177925D01*
X178796D02*
X181843D01*
X182786D02*
X186559D01*
X188446D02*
X193089D01*
X159858Y119497D02*
X166243D01*
X168638D02*
X170669D01*
X171903D02*
X173136D01*
X174079D02*
X176184D01*
X177272D02*
X177925D01*
X178796D02*
X181843D01*
X182859D02*
X186487D01*
X188301D02*
X193089D01*
X159858Y119425D02*
X166243D01*
X168638D02*
X170669D01*
X171903D02*
X173136D01*
X174079D02*
X176184D01*
X177272D02*
X177925D01*
X178796D02*
X181843D01*
X182859D02*
X186342D01*
X188156D02*
X193089D01*
X159858Y119352D02*
X166243D01*
X168638D02*
X170669D01*
X171903D02*
X173136D01*
X174079D02*
X176184D01*
X177272D02*
X177925D01*
X178723D02*
X181843D01*
X182859D02*
X186342D01*
X188083D02*
X193089D01*
X159858Y119280D02*
X166243D01*
X168638D02*
X170669D01*
X171975D02*
X173136D01*
X174079D02*
X176256D01*
X177272D02*
X177852D01*
X178723D02*
X181843D01*
X182859D02*
X186197D01*
X188011D02*
X193089D01*
X159858Y119207D02*
X166316D01*
X168638D02*
X170669D01*
X171975D02*
X173136D01*
X174079D02*
X176256D01*
X177272D02*
X177852D01*
X178723D02*
X181843D01*
X182859D02*
X186124D01*
X187865D02*
X193089D01*
X159858Y119135D02*
X166316D01*
X168638D02*
X170669D01*
X171975D02*
X173136D01*
X174079D02*
X176256D01*
X177272D02*
X177852D01*
X178723D02*
X181916D01*
X182859D02*
X186051D01*
X187793D02*
X193089D01*
X159858Y119062D02*
X166316D01*
X168638D02*
X170669D01*
X171975D02*
X173136D01*
X174079D02*
X176256D01*
X177345D02*
X177852D01*
X178723D02*
X181916D01*
X182859D02*
X185979D01*
X187720D02*
X193089D01*
X159858Y118990D02*
X166316D01*
X168638D02*
X170742D01*
X171975D02*
X173064D01*
X174007D02*
X176256D01*
X177345D02*
X177852D01*
X178723D02*
X181916D01*
X182859D02*
X185906D01*
X187575D02*
X193089D01*
X159858Y118917D02*
X166316D01*
X168638D02*
X170742D01*
X171975D02*
X173064D01*
X174007D02*
X176256D01*
X177345D02*
X177852D01*
X178723D02*
X181916D01*
X182859D02*
X185834D01*
X187503D02*
X193089D01*
X159858Y118844D02*
X166316D01*
X168565D02*
X170742D01*
X171975D02*
X173064D01*
X174007D02*
X176256D01*
X177345D02*
X177852D01*
X178723D02*
X181988D01*
X182859D02*
X185761D01*
X187357D02*
X193089D01*
X159858Y118772D02*
X166316D01*
X168565D02*
X170814D01*
X172048D02*
X173064D01*
X174007D02*
X176256D01*
X177417D02*
X177852D01*
X178723D02*
X181988D01*
X182931D02*
X185689D01*
X187357D02*
X193089D01*
X159858Y118699D02*
X166388D01*
X168565D02*
X170814D01*
X172048D02*
X172991D01*
X174007D02*
X176329D01*
X177417D02*
X177852D01*
X178723D02*
X181988D01*
X182931D02*
X185616D01*
X187212D02*
X193089D01*
X159858Y118627D02*
X166388D01*
X168565D02*
X170814D01*
X172048D02*
X172991D01*
X174007D02*
X176329D01*
X177417D02*
X177852D01*
X178723D02*
X181988D01*
X182931D02*
X185616D01*
X187140D02*
X193089D01*
X159858Y118554D02*
X166388D01*
X168565D02*
X170814D01*
X172048D02*
X172991D01*
X174007D02*
X176329D01*
X177417D02*
X177852D01*
X178723D02*
X181988D01*
X182931D02*
X185471D01*
X187067D02*
X193089D01*
X159858Y118482D02*
X166388D01*
X168565D02*
X170814D01*
X172048D02*
X172991D01*
X173934D02*
X176329D01*
X177417D02*
X177852D01*
X178723D02*
X181988D01*
X182931D02*
X185471D01*
X186995D02*
X193089D01*
X159858Y118409D02*
X166388D01*
X168565D02*
X170814D01*
X172120D02*
X172991D01*
X173934D02*
X176401D01*
X177417D02*
X177780D01*
X178723D02*
X181988D01*
X183004D02*
X185398D01*
X186922D02*
X193089D01*
X159858Y118336D02*
X166461D01*
X168565D02*
X170887D01*
X172193D02*
X172991D01*
X173934D02*
X176401D01*
X177417D02*
X177780D01*
X178650D02*
X181988D01*
X183004D02*
X185326D01*
X186850D02*
X193089D01*
X159858Y118264D02*
X166461D01*
X168565D02*
X170887D01*
X172193D02*
X172991D01*
X173934D02*
X176401D01*
X177417D02*
X177780D01*
X178650D02*
X181988D01*
X183004D02*
X185253D01*
X186777D02*
X193089D01*
X159858Y118191D02*
X166461D01*
X168565D02*
X170887D01*
X172193D02*
X172991D01*
X173862D02*
X176401D01*
X177490D02*
X177780D01*
X178650D02*
X181988D01*
X183004D02*
X185253D01*
X186704D02*
X193089D01*
X159858Y118119D02*
X166461D01*
X168565D02*
X170959D01*
X172193D02*
X172991D01*
X173862D02*
X176401D01*
X177490D02*
X177780D01*
X178650D02*
X182061D01*
X183004D02*
X185181D01*
X186632D02*
X193089D01*
X159858Y118046D02*
X166461D01*
X168565D02*
X170959D01*
X172265D02*
X172918D01*
X173862D02*
X176401D01*
X177490D02*
X177780D01*
X178650D02*
X182061D01*
X183004D02*
X185108D01*
X186559D02*
X193089D01*
X159858Y117974D02*
X166461D01*
X168565D02*
X170959D01*
X172265D02*
X172918D01*
X173862D02*
X176401D01*
X177490D02*
X177780D01*
X178650D02*
X182061D01*
X183004D02*
X185108D01*
X186487D02*
X193089D01*
X159858Y117901D02*
X166533D01*
X168565D02*
X170959D01*
X172338D02*
X172918D01*
X173862D02*
X176401D01*
X177490D02*
X177707D01*
X178650D02*
X182061D01*
X183004D02*
X185036D01*
X186414D02*
X193089D01*
X159858Y117829D02*
X166533D01*
X168565D02*
X170959D01*
X172338D02*
X172918D01*
X173862D02*
X176474D01*
X177490D02*
X177707D01*
X178650D02*
X182061D01*
X183004D02*
X184963D01*
X186342D02*
X193089D01*
X159858Y117756D02*
X166533D01*
X168565D02*
X170959D01*
X172338D02*
X172918D01*
X173862D02*
X176474D01*
X177562D02*
X177707D01*
X178650D02*
X182061D01*
X183077D02*
X184963D01*
X186342D02*
X193089D01*
X159858Y117683D02*
X166533D01*
X168565D02*
X171032D01*
X172338D02*
X172846D01*
X173862D02*
X176474D01*
X177562D02*
X177707D01*
X178650D02*
X182061D01*
X183077D02*
X184890D01*
X186269D02*
X193089D01*
X159858Y117611D02*
X166533D01*
X168492D02*
X171032D01*
X172411D02*
X172846D01*
X173862D02*
X176474D01*
X177562D02*
X177707D01*
X178650D02*
X182061D01*
X183077D02*
X184890D01*
X186124D02*
X193089D01*
X159858Y117538D02*
X166606D01*
X168492D02*
X171032D01*
X172411D02*
X172846D01*
X173862D02*
X176474D01*
X177562D02*
X177707D01*
X178650D02*
X182061D01*
X183077D02*
X184818D01*
X186124D02*
X193089D01*
X159858Y117466D02*
X166606D01*
X168492D02*
X171032D01*
X172411D02*
X172846D01*
X173789D02*
X176474D01*
X177562D02*
X177707D01*
X178650D02*
X182133D01*
X183077D02*
X184818D01*
X186051D02*
X193089D01*
X159858Y117393D02*
X166606D01*
X168492D02*
X171032D01*
X172483D02*
X172846D01*
X173789D02*
X176474D01*
X177562D02*
X177707D01*
X178650D02*
X182133D01*
X183077D02*
X184745D01*
X185979D02*
X193089D01*
X159858Y117321D02*
X166606D01*
X168492D02*
X171105D01*
X172483D02*
X172846D01*
X173789D02*
X176474D01*
X177562D02*
X177707D01*
X178650D02*
X182133D01*
X183077D02*
X184745D01*
X185979D02*
X193089D01*
X159858Y117248D02*
X166606D01*
X168492D02*
X171105D01*
X172556D02*
X172846D01*
X173789D02*
X176546D01*
X178650D02*
X182133D01*
X183077D02*
X184673D01*
X185906D02*
X193089D01*
X159858Y117175D02*
X166606D01*
X168492D02*
X171105D01*
X172556D02*
X172846D01*
X173789D02*
X176546D01*
X178650D02*
X182206D01*
X183077D02*
X184600D01*
X185906D02*
X193089D01*
X159858Y117103D02*
X166679D01*
X168492D02*
X171177D01*
X172556D02*
X172846D01*
X173789D02*
X176546D01*
X178578D02*
X182206D01*
X183077D02*
X184600D01*
X185761D02*
X193089D01*
X159858Y117030D02*
X166679D01*
X168492D02*
X171177D01*
X172628D02*
X172773D01*
X173789D02*
X176546D01*
X178578D02*
X182206D01*
X183149D02*
X184528D01*
X185761D02*
X193089D01*
X159858Y116958D02*
X166679D01*
X168420D02*
X171177D01*
X172628D02*
X172773D01*
X173789D02*
X176619D01*
X178578D02*
X182206D01*
X183149D02*
X184528D01*
X185689D02*
X193089D01*
X159858Y116885D02*
X166679D01*
X168420D02*
X171177D01*
X173717D02*
X176619D01*
X178578D02*
X182206D01*
X183149D02*
X184528D01*
X185616D02*
X193089D01*
X159858Y116813D02*
X166679D01*
X168420D02*
X171177D01*
X173717D02*
X176619D01*
X178578D02*
X182206D01*
X183149D02*
X184528D01*
X185616D02*
X193089D01*
X159858Y116740D02*
X166679D01*
X168420D02*
X171250D01*
X173717D02*
X176619D01*
X178578D02*
X182206D01*
X183149D02*
X184455D01*
X185616D02*
X193089D01*
X159858Y116668D02*
X166679D01*
X168420D02*
X171250D01*
X173717D02*
X176619D01*
X178578D02*
X182206D01*
X183222D02*
X184383D01*
X185544D02*
X193089D01*
X159858Y116595D02*
X166679D01*
X168420D02*
X171322D01*
X173717D02*
X176619D01*
X178578D02*
X182206D01*
X183222D02*
X184383D01*
X185471D02*
X193089D01*
X159858Y116523D02*
X166751D01*
X168420D02*
X171322D01*
X173717D02*
X176619D01*
X178505D02*
X182278D01*
X183222D02*
X184383D01*
X185471D02*
X193089D01*
X159858Y116450D02*
X166751D01*
X168420D02*
X171322D01*
X173644D02*
X176691D01*
X178505D02*
X182278D01*
X183222D02*
X184383D01*
X185398D02*
X193089D01*
X159858Y116377D02*
X166751D01*
X168420D02*
X171322D01*
X173644D02*
X176691D01*
X178505D02*
X182278D01*
X183222D02*
X184310D01*
X185398D02*
X193089D01*
X159858Y116305D02*
X166824D01*
X168420D02*
X171322D01*
X173644D02*
X176691D01*
X178505D02*
X182278D01*
X183222D02*
X184238D01*
X185326D02*
X193089D01*
X159858Y116232D02*
X166824D01*
X168420D02*
X171322D01*
X173644D02*
X176764D01*
X178505D02*
X182351D01*
X183222D02*
X184238D01*
X185253D02*
X193089D01*
X159858Y116160D02*
X166824D01*
X168420D02*
X171395D01*
X173644D02*
X176764D01*
X178505D02*
X182351D01*
X183222D02*
X184238D01*
X185253D02*
X193089D01*
X159858Y116087D02*
X166824D01*
X168420D02*
X171395D01*
X173644D02*
X176764D01*
X178505D02*
X182351D01*
X183222D02*
X184238D01*
X185181D02*
X193089D01*
X159858Y116015D02*
X166824D01*
X168420D02*
X171395D01*
X173644D02*
X176764D01*
X178505D02*
X182351D01*
X183222D02*
X184165D01*
X185181D02*
X193089D01*
X159858Y115942D02*
X166824D01*
X168420D02*
X171395D01*
X173644D02*
X176764D01*
X178505D02*
X182351D01*
X183294D02*
X184165D01*
X185181D02*
X193089D01*
X159858Y115869D02*
X166824D01*
X168420D02*
X171395D01*
X173644D02*
X176764D01*
X178505D02*
X182351D01*
X183294D02*
X184165D01*
X185181D02*
X193089D01*
X159858Y115797D02*
X166896D01*
X168420D02*
X171467D01*
X173572D02*
X176764D01*
X178505D02*
X182351D01*
X183294D02*
X184165D01*
X185108D02*
X193089D01*
X159858Y115724D02*
X166896D01*
X168420D02*
X171467D01*
X173572D02*
X176764D01*
X178505D02*
X182351D01*
X183294D02*
X184092D01*
X185036D02*
X193089D01*
X159858Y115652D02*
X166896D01*
X168420D02*
X171467D01*
X173572D02*
X176764D01*
X178505D02*
X182351D01*
X183367D02*
X184020D01*
X185036D02*
X193089D01*
X159858Y115579D02*
X166896D01*
X168420D02*
X171467D01*
X173572D02*
X176837D01*
X178505D02*
X182351D01*
X183367D02*
X184020D01*
X184963D02*
X193089D01*
X159858Y115507D02*
X166969D01*
X168420D02*
X171540D01*
X173499D02*
X176837D01*
X178505D02*
X182423D01*
X183367D02*
X184020D01*
X184963D02*
X193089D01*
X159858Y115434D02*
X166969D01*
X168347D02*
X171540D01*
X173499D02*
X176837D01*
X178505D02*
X182423D01*
X183367D02*
X184020D01*
X184890D02*
X193089D01*
X159858Y115362D02*
X166969D01*
X168347D02*
X171540D01*
X173499D02*
X176909D01*
X178505D02*
X182423D01*
X183367D02*
X184020D01*
X184890D02*
X193089D01*
X159858Y115289D02*
X166969D01*
X168347D02*
X171540D01*
X173499D02*
X176909D01*
X178505D02*
X182423D01*
X183367D02*
X183947D01*
X184890D02*
X193089D01*
X159858Y115217D02*
X167041D01*
X168347D02*
X171612D01*
X173499D02*
X176909D01*
X178433D02*
X182423D01*
X183367D02*
X183947D01*
X184818D02*
X193089D01*
X159858Y115144D02*
X167041D01*
X168347D02*
X171612D01*
X173499D02*
X176909D01*
X178433D02*
X182423D01*
X183367D02*
X183875D01*
X184818D02*
X193089D01*
X159858Y115071D02*
X167041D01*
X168275D02*
X171612D01*
X173499D02*
X176909D01*
X178433D02*
X182423D01*
X183439D02*
X183875D01*
X184818D02*
X193089D01*
X159858Y114999D02*
X167114D01*
X168202D02*
X171612D01*
X173499D02*
X176909D01*
X178433D02*
X182423D01*
X183439D02*
X183875D01*
X184818D02*
X193089D01*
X159858Y114926D02*
X167186D01*
X168130D02*
X171685D01*
X173499D02*
X176909D01*
X178433D02*
X182496D01*
X183439D02*
X183875D01*
X184818D02*
X193089D01*
X159858Y114854D02*
X167332D01*
X168057D02*
X171685D01*
X173499D02*
X176909D01*
X178433D02*
X182496D01*
X183439D02*
X183875D01*
X184745D02*
X193089D01*
X159858Y114781D02*
X167477D01*
X167912D02*
X171685D01*
X173426D02*
X176982D01*
X178433D02*
X182496D01*
X183439D02*
X183875D01*
X184673D02*
X193089D01*
X159858Y114709D02*
X171685D01*
X173426D02*
X176982D01*
X178360D02*
X182496D01*
X183439D02*
X183802D01*
X184673D02*
X193089D01*
X159858Y114636D02*
X171685D01*
X173426D02*
X176982D01*
X178360D02*
X182496D01*
X183439D02*
X183802D01*
X184673D02*
X193089D01*
X159858Y114563D02*
X171757D01*
X173426D02*
X176982D01*
X178360D02*
X182569D01*
X183439D02*
X183802D01*
X184673D02*
X193089D01*
X159858Y114491D02*
X171757D01*
X173426D02*
X176982D01*
X178360D02*
X182569D01*
X183439D02*
X183802D01*
X184600D02*
X193089D01*
X159858Y114418D02*
X171757D01*
X173426D02*
X177054D01*
X178360D02*
X182569D01*
X183439D02*
X183802D01*
X184600D02*
X193089D01*
X159858Y114346D02*
X171757D01*
X173426D02*
X177054D01*
X178360D02*
X182569D01*
X183439D02*
X183730D01*
X184600D02*
X193089D01*
X159858Y114273D02*
X171757D01*
X173426D02*
X177054D01*
X178360D02*
X182569D01*
X183512D02*
X183730D01*
X184528D02*
X193089D01*
X159858Y114201D02*
X171757D01*
X173426D02*
X177054D01*
X178360D02*
X182569D01*
X183512D02*
X183730D01*
X184528D02*
X193089D01*
X159858Y114128D02*
X171757D01*
X173426D02*
X177127D01*
X178360D02*
X182569D01*
X183512D02*
X183730D01*
X184528D02*
X193089D01*
X159858Y114056D02*
X171830D01*
X173426D02*
X177127D01*
X178360D02*
X182569D01*
X183512D02*
X183730D01*
X184528D02*
X193089D01*
X159858Y113983D02*
X171830D01*
X173426D02*
X177127D01*
X178360D02*
X182641D01*
X184528D02*
X193089D01*
X159858Y113910D02*
X171903D01*
X173426D02*
X177127D01*
X178360D02*
X182641D01*
X184455D02*
X193089D01*
X159858Y113838D02*
X171903D01*
X173354D02*
X177127D01*
X178360D02*
X182641D01*
X184455D02*
X193089D01*
X159858Y113765D02*
X171903D01*
X173354D02*
X177127D01*
X178360D02*
X182641D01*
X184455D02*
X193089D01*
X159858Y113693D02*
X171903D01*
X173354D02*
X177199D01*
X178360D02*
X182714D01*
X184455D02*
X193089D01*
X159858Y113620D02*
X171903D01*
X173354D02*
X177199D01*
X178360D02*
X182714D01*
X184455D02*
X193089D01*
X159858Y113548D02*
X171903D01*
X173281D02*
X177272D01*
X178288D02*
X182714D01*
X184455D02*
X193089D01*
X159858Y113475D02*
X171975D01*
X173281D02*
X177272D01*
X178288D02*
X182714D01*
X184455D02*
X193089D01*
X159858Y113402D02*
X171975D01*
X173281D02*
X177272D01*
X178288D02*
X182714D01*
X184383D02*
X193089D01*
X159858Y113330D02*
X171975D01*
X173281D02*
X177272D01*
X178288D02*
X182714D01*
X184383D02*
X193089D01*
X159858Y113257D02*
X171975D01*
X173281D02*
X177272D01*
X178215D02*
X182714D01*
X184383D02*
X193089D01*
X159858Y113185D02*
X172048D01*
X173281D02*
X177345D01*
X178143D02*
X182714D01*
X184383D02*
X193089D01*
X159858Y113112D02*
X172048D01*
X173281D02*
X177345D01*
X178143D02*
X182714D01*
X184310D02*
X193089D01*
X159858Y113040D02*
X172048D01*
X173281D02*
X177417D01*
X178070D02*
X182786D01*
X184310D02*
X193089D01*
X159858Y112967D02*
X172048D01*
X173281D02*
X177490D01*
X177998D02*
X182786D01*
X184310D02*
X193089D01*
X159858Y112895D02*
X172048D01*
X173281D02*
X177562D01*
X177925D02*
X182786D01*
X184310D02*
X193089D01*
X159858Y112822D02*
X172120D01*
X173281D02*
X182786D01*
X184310D02*
X193089D01*
X159858Y112750D02*
X172120D01*
X173281D02*
X182786D01*
X184310D02*
X193089D01*
X159858Y112677D02*
X172120D01*
X173209D02*
X182786D01*
X184310D02*
X193089D01*
X159858Y112604D02*
X172120D01*
X173209D02*
X182786D01*
X184310D02*
X193089D01*
X159858Y112532D02*
X172120D01*
X173209D02*
X182859D01*
X184310D02*
X193089D01*
X159858Y112459D02*
X172120D01*
X173209D02*
X182859D01*
X184310D02*
X193089D01*
X159858Y112387D02*
X172120D01*
X173209D02*
X182859D01*
X184310D02*
X193089D01*
X159858Y112314D02*
X172193D01*
X173209D02*
X182859D01*
X184238D02*
X193089D01*
X159858Y112242D02*
X164865D01*
X165227D02*
X172193D01*
X173209D02*
X182859D01*
X184238D02*
X187067D01*
X188228D02*
X193089D01*
X159858Y112169D02*
X164574D01*
X165808D02*
X172193D01*
X173209D02*
X182859D01*
X184238D02*
X186922D01*
X188446D02*
X193089D01*
X159858Y112097D02*
X164284D01*
X166171D02*
X172193D01*
X173209D02*
X182931D01*
X184238D02*
X186632D01*
X188663D02*
X193089D01*
X159858Y112024D02*
X164139D01*
X166316D02*
X170306D01*
X171322D02*
X172265D01*
X173209D02*
X174079D01*
X177635D02*
X181408D01*
X182423D02*
X182931D01*
X184238D02*
X186559D01*
X188809D02*
X193089D01*
X159858Y111951D02*
X163921D01*
X166606D02*
X170306D01*
X171322D02*
X172265D01*
X173209D02*
X174079D01*
X177925D02*
X181408D01*
X182423D02*
X182931D01*
X184238D02*
X186342D01*
X188954D02*
X193089D01*
X159858Y111879D02*
X163776D01*
X166679D02*
X170306D01*
X171322D02*
X172265D01*
X173209D02*
X174079D01*
X177998D02*
X181408D01*
X182423D02*
X182931D01*
X184238D02*
X186269D01*
X189026D02*
X193089D01*
X159858Y111806D02*
X163704D01*
X166824D02*
X170306D01*
X171322D02*
X172265D01*
X173209D02*
X174079D01*
X178143D02*
X181408D01*
X182423D02*
X183004D01*
X184238D02*
X186124D01*
X189171D02*
X193089D01*
X159858Y111734D02*
X163558D01*
X166969D02*
X170306D01*
X171322D02*
X172265D01*
X173209D02*
X174079D01*
X178288D02*
X181408D01*
X182423D02*
X183004D01*
X184238D02*
X186051D01*
X189316D02*
X193089D01*
X159858Y111661D02*
X163486D01*
X166969D02*
X170306D01*
X171322D02*
X172265D01*
X173136D02*
X174079D01*
X178288D02*
X181408D01*
X182423D02*
X183077D01*
X184238D02*
X185979D01*
X189389D02*
X193089D01*
X159858Y111589D02*
X163413D01*
X167114D02*
X170306D01*
X171322D02*
X172338D01*
X173064D02*
X174079D01*
X178360D02*
X181408D01*
X182423D02*
X183077D01*
X184238D02*
X185834D01*
X189462D02*
X193089D01*
X159858Y111516D02*
X163341D01*
X167186D02*
X170306D01*
X171322D02*
X172338D01*
X172918D02*
X174079D01*
X178433D02*
X181408D01*
X182423D02*
X183149D01*
X184165D02*
X185834D01*
X189534D02*
X193089D01*
X159858Y111443D02*
X163268D01*
X167259D02*
X170306D01*
X171322D02*
X172338D01*
X172773D02*
X174079D01*
X178505D02*
X181408D01*
X182423D02*
X183222D01*
X184165D02*
X185689D01*
X189607D02*
X193089D01*
X159858Y111371D02*
X163196D01*
X167332D02*
X170306D01*
X171322D02*
X172338D01*
X172701D02*
X174079D01*
X178505D02*
X181408D01*
X182423D02*
X183222D01*
X184165D02*
X185689D01*
X189607D02*
X193089D01*
X159858Y111298D02*
X163123D01*
X167332D02*
X170306D01*
X171322D02*
X172411D01*
X172556D02*
X174079D01*
X174950D02*
X177199D01*
X178578D02*
X181408D01*
X182423D02*
X183294D01*
X184165D02*
X185616D01*
X189679D02*
X193089D01*
X159858Y111226D02*
X163051D01*
X164937D02*
X165518D01*
X167404D02*
X170306D01*
X171322D02*
X172411D01*
X172483D02*
X174079D01*
X174950D02*
X177272D01*
X178650D02*
X181408D01*
X182423D02*
X183367D01*
X184092D02*
X185544D01*
X189752D02*
X193089D01*
X159858Y111153D02*
X163051D01*
X164574D02*
X165808D01*
X167477D02*
X170306D01*
X171322D02*
X174079D01*
X174950D02*
X177417D01*
X178650D02*
X181408D01*
X182423D02*
X183439D01*
X184092D02*
X185544D01*
X187140D02*
X188156D01*
X189752D02*
X193089D01*
X159858Y111081D02*
X162978D01*
X164429D02*
X165953D01*
X167477D02*
X170306D01*
X171322D02*
X174079D01*
X174950D02*
X177490D01*
X178650D02*
X181408D01*
X182423D02*
X183512D01*
X184092D02*
X185471D01*
X186995D02*
X188301D01*
X189897D02*
X193089D01*
X159858Y111008D02*
X162978D01*
X164284D02*
X166098D01*
X167477D02*
X170306D01*
X171322D02*
X174079D01*
X174950D02*
X177562D01*
X178650D02*
X181408D01*
X182423D02*
X183584D01*
X183947D02*
X185471D01*
X186777D02*
X188518D01*
X189897D02*
X193089D01*
X159858Y110936D02*
X162906D01*
X164211D02*
X166243D01*
X167549D02*
X170306D01*
X171322D02*
X174079D01*
X174950D02*
X177635D01*
X178650D02*
X181408D01*
X182423D02*
X185398D01*
X186704D02*
X188591D01*
X189897D02*
X193089D01*
X159858Y110863D02*
X162833D01*
X164139D02*
X166316D01*
X167622D02*
X170306D01*
X171322D02*
X174079D01*
X174950D02*
X177635D01*
X178723D02*
X181408D01*
X182423D02*
X185326D01*
X186632D02*
X188663D01*
X189970D02*
X193089D01*
X159858Y110790D02*
X162833D01*
X164066D02*
X166388D01*
X167622D02*
X170306D01*
X171322D02*
X174079D01*
X174950D02*
X177635D01*
X178723D02*
X181408D01*
X182423D02*
X185326D01*
X186487D02*
X188736D01*
X189970D02*
X193089D01*
X159858Y110718D02*
X162833D01*
X163994D02*
X166461D01*
X167622D02*
X170306D01*
X171322D02*
X174079D01*
X174950D02*
X177707D01*
X178723D02*
X181408D01*
X182423D02*
X185326D01*
X186487D02*
X188809D01*
X189970D02*
X193089D01*
X159858Y110645D02*
X162760D01*
X163921D02*
X166461D01*
X167622D02*
X170306D01*
X171322D02*
X174079D01*
X174950D02*
X177707D01*
X178723D02*
X181408D01*
X182423D02*
X185253D01*
X186414D02*
X188881D01*
X190042D02*
X193089D01*
X159858Y110573D02*
X162688D01*
X163849D02*
X166533D01*
X167622D02*
X170306D01*
X171322D02*
X174079D01*
X174950D02*
X177707D01*
X178723D02*
X181408D01*
X182423D02*
X185253D01*
X186342D02*
X188881D01*
X190042D02*
X193089D01*
X159858Y110500D02*
X162688D01*
X163849D02*
X166606D01*
X167622D02*
X170306D01*
X171322D02*
X174079D01*
X174950D02*
X177707D01*
X178723D02*
X181408D01*
X182423D02*
X185253D01*
X186342D02*
X188954D01*
X190115D02*
X193089D01*
X159858Y110428D02*
X162688D01*
X163776D02*
X166679D01*
X167694D02*
X170306D01*
X171322D02*
X174079D01*
X174950D02*
X177707D01*
X178723D02*
X181408D01*
X182423D02*
X185181D01*
X186269D02*
X188954D01*
X190115D02*
X193089D01*
X159858Y110355D02*
X162688D01*
X163704D02*
X166679D01*
X167694D02*
X170306D01*
X171322D02*
X174079D01*
X174950D02*
X177707D01*
X178723D02*
X181408D01*
X182423D02*
X185181D01*
X186269D02*
X189026D01*
X190115D02*
X193089D01*
X159858Y110283D02*
X162615D01*
X163704D02*
X166679D01*
X167259D02*
X170306D01*
X171322D02*
X174079D01*
X174950D02*
X177707D01*
X178723D02*
X181408D01*
X182423D02*
X185108D01*
X186269D02*
X189099D01*
X190187D02*
X193089D01*
X159858Y110210D02*
X162615D01*
X163704D02*
X166679D01*
X167041D02*
X170306D01*
X171322D02*
X174079D01*
X174950D02*
X177707D01*
X178723D02*
X181408D01*
X182423D02*
X185108D01*
X186197D02*
X189099D01*
X190187D02*
X193089D01*
X159858Y110137D02*
X162615D01*
X163631D02*
X170306D01*
X171322D02*
X174079D01*
X174950D02*
X177707D01*
X178723D02*
X181408D01*
X182423D02*
X185108D01*
X186197D02*
X189099D01*
X190187D02*
X193089D01*
X159858Y110065D02*
X162615D01*
X163631D02*
X170306D01*
X171322D02*
X174079D01*
X174950D02*
X177707D01*
X178650D02*
X181408D01*
X182423D02*
X185108D01*
X186124D02*
X189099D01*
X190260D02*
X193089D01*
X159858Y109992D02*
X162615D01*
X163631D02*
X170306D01*
X171322D02*
X174079D01*
X174950D02*
X177635D01*
X178650D02*
X181408D01*
X182423D02*
X185108D01*
X186124D02*
X189171D01*
X190260D02*
X193089D01*
X159858Y109920D02*
X162543D01*
X163558D02*
X170306D01*
X171322D02*
X174079D01*
X174950D02*
X177635D01*
X178650D02*
X181408D01*
X182423D02*
X185036D01*
X186124D02*
X189244D01*
X190260D02*
X193089D01*
X159858Y109847D02*
X162543D01*
X163558D02*
X170306D01*
X171322D02*
X174079D01*
X174950D02*
X177562D01*
X178650D02*
X181408D01*
X182423D02*
X185036D01*
X186124D02*
X189244D01*
X190260D02*
X193089D01*
X159858Y109775D02*
X162543D01*
X163558D02*
X170306D01*
X171322D02*
X174079D01*
X174950D02*
X177490D01*
X178578D02*
X181408D01*
X182423D02*
X185036D01*
X186051D02*
X189244D01*
X190260D02*
X193089D01*
X159858Y109702D02*
X162543D01*
X163486D02*
X170306D01*
X171322D02*
X174079D01*
X174950D02*
X177417D01*
X178578D02*
X181408D01*
X182423D02*
X184963D01*
X186051D02*
X189244D01*
X190260D02*
X193089D01*
X159858Y109629D02*
X162543D01*
X163486D02*
X170306D01*
X171322D02*
X174079D01*
X174950D02*
X177345D01*
X178505D02*
X181408D01*
X182423D02*
X184963D01*
X186051D02*
X189244D01*
X190332D02*
X193089D01*
X159858Y109557D02*
X162470D01*
X163486D02*
X170306D01*
X171322D02*
X174079D01*
X174950D02*
X177199D01*
X178505D02*
X181408D01*
X182423D02*
X184963D01*
X186051D02*
X189244D01*
X190332D02*
X193089D01*
X159858Y109484D02*
X162470D01*
X163486D02*
X170306D01*
X171322D02*
X174079D01*
X178433D02*
X181408D01*
X182423D02*
X184963D01*
X185979D02*
X189244D01*
X190332D02*
X193089D01*
X159858Y109412D02*
X162470D01*
X163486D02*
X170306D01*
X171322D02*
X174079D01*
X178360D02*
X181408D01*
X182423D02*
X184963D01*
X185979D02*
X189244D01*
X190332D02*
X193089D01*
X159858Y109339D02*
X162470D01*
X163486D02*
X170306D01*
X171322D02*
X174079D01*
X178288D02*
X181408D01*
X182423D02*
X184963D01*
X185979D02*
X189244D01*
X190332D02*
X193089D01*
X159858Y109267D02*
X162470D01*
X163486D02*
X170306D01*
X171322D02*
X174079D01*
X178215D02*
X181408D01*
X182423D02*
X184963D01*
X185979D02*
X189316D01*
X190332D02*
X193089D01*
X159858Y109194D02*
X162470D01*
X163486D02*
X170306D01*
X171322D02*
X174079D01*
X178143D02*
X181408D01*
X182423D02*
X184963D01*
X185979D02*
X189316D01*
X190332D02*
X193089D01*
X159858Y109122D02*
X162470D01*
X163486D02*
X170306D01*
X171322D02*
X174079D01*
X177998D02*
X181408D01*
X182423D02*
X184963D01*
X185979D02*
X189316D01*
X190332D02*
X193089D01*
X159858Y109049D02*
X162470D01*
X163486D02*
X170306D01*
X171322D02*
X174079D01*
X177635D02*
X181408D01*
X182423D02*
X184963D01*
X185979D02*
X189316D01*
X190332D02*
X193089D01*
X159858Y108976D02*
X162470D01*
X163486D02*
X170306D01*
X171322D02*
X174079D01*
X177635D02*
X181408D01*
X182423D02*
X184963D01*
X185979D02*
X189316D01*
X190332D02*
X193089D01*
X159858Y108904D02*
X162470D01*
X163486D02*
X165373D01*
X167694D02*
X170306D01*
X171322D02*
X174079D01*
X177635D02*
X181408D01*
X182423D02*
X184963D01*
X185979D02*
X189316D01*
X190332D02*
X193089D01*
X159858Y108831D02*
X162470D01*
X163486D02*
X165373D01*
X167694D02*
X170306D01*
X171322D02*
X174079D01*
X178143D02*
X181408D01*
X182423D02*
X184963D01*
X185979D02*
X189316D01*
X190332D02*
X193089D01*
X159858Y108759D02*
X162470D01*
X163486D02*
X165373D01*
X167694D02*
X170306D01*
X171322D02*
X174079D01*
X178215D02*
X181408D01*
X182423D02*
X184963D01*
X185979D02*
X189316D01*
X190332D02*
X193089D01*
X159858Y108686D02*
X162470D01*
X163486D02*
X165373D01*
X167694D02*
X170306D01*
X171322D02*
X174079D01*
X178360D02*
X181408D01*
X182423D02*
X184963D01*
X185979D02*
X189316D01*
X190332D02*
X193089D01*
X159858Y108614D02*
X162470D01*
X163486D02*
X165373D01*
X167694D02*
X170306D01*
X171322D02*
X174079D01*
X178433D02*
X181408D01*
X182423D02*
X184963D01*
X185979D02*
X189316D01*
X190332D02*
X193089D01*
X159858Y108541D02*
X162470D01*
X163486D02*
X165373D01*
X167694D02*
X170306D01*
X171322D02*
X174079D01*
X178578D02*
X181408D01*
X182423D02*
X184963D01*
X185979D02*
X189316D01*
X190332D02*
X193089D01*
X159858Y108469D02*
X162470D01*
X163486D02*
X165373D01*
X167694D02*
X170306D01*
X171322D02*
X174079D01*
X178650D02*
X181408D01*
X182423D02*
X184963D01*
X185979D02*
X189316D01*
X190332D02*
X193089D01*
X159858Y108396D02*
X162470D01*
X163486D02*
X165373D01*
X167694D02*
X170306D01*
X171322D02*
X174079D01*
X178723D02*
X181408D01*
X182423D02*
X184963D01*
X185979D02*
X189316D01*
X190332D02*
X193089D01*
X159858Y108324D02*
X162470D01*
X163486D02*
X165373D01*
X167694D02*
X170306D01*
X171322D02*
X174079D01*
X178723D02*
X181408D01*
X182423D02*
X184963D01*
X185979D02*
X189316D01*
X190332D02*
X193089D01*
X159858Y108251D02*
X162470D01*
X163486D02*
X165373D01*
X167694D02*
X170306D01*
X171322D02*
X174079D01*
X174950D02*
X177490D01*
X178796D02*
X181408D01*
X182423D02*
X184963D01*
X185979D02*
X189244D01*
X190332D02*
X193089D01*
X159858Y108178D02*
X162543D01*
X163486D02*
X165373D01*
X167694D02*
X170306D01*
X171322D02*
X174079D01*
X174950D02*
X177635D01*
X178868D02*
X181408D01*
X182423D02*
X184963D01*
X185979D02*
X189244D01*
X190332D02*
X193089D01*
X159858Y108106D02*
X162543D01*
X163486D02*
X165373D01*
X167694D02*
X170306D01*
X171322D02*
X174079D01*
X174950D02*
X177707D01*
X178868D02*
X181408D01*
X182423D02*
X184963D01*
X185979D02*
X189244D01*
X190332D02*
X193089D01*
X159858Y108033D02*
X162543D01*
X163558D02*
X165373D01*
X167694D02*
X170306D01*
X171322D02*
X174079D01*
X174950D02*
X177852D01*
X178868D02*
X181408D01*
X182423D02*
X184963D01*
X186051D02*
X189244D01*
X190332D02*
X193089D01*
X159858Y107961D02*
X162543D01*
X163558D02*
X166679D01*
X167694D02*
X170306D01*
X171322D02*
X174079D01*
X174950D02*
X177925D01*
X178941D02*
X181408D01*
X182423D02*
X184963D01*
X186051D02*
X189244D01*
X190260D02*
X193089D01*
X159858Y107888D02*
X162543D01*
X163558D02*
X166679D01*
X167694D02*
X170306D01*
X171322D02*
X174079D01*
X174950D02*
X177998D01*
X178941D02*
X181408D01*
X182423D02*
X184963D01*
X186051D02*
X189244D01*
X190260D02*
X193089D01*
X159858Y107816D02*
X162615D01*
X163631D02*
X166679D01*
X167694D02*
X170306D01*
X171322D02*
X174079D01*
X174950D02*
X177998D01*
X179013D02*
X181408D01*
X182423D02*
X185036D01*
X186124D02*
X189244D01*
X190260D02*
X193089D01*
X159858Y107743D02*
X162615D01*
X163631D02*
X166679D01*
X167694D02*
X170306D01*
X171322D02*
X174079D01*
X174950D02*
X177998D01*
X179013D02*
X181408D01*
X182423D02*
X185036D01*
X186124D02*
X189244D01*
X190260D02*
X193089D01*
X159858Y107670D02*
X162615D01*
X163631D02*
X166679D01*
X167694D02*
X170306D01*
X171322D02*
X174079D01*
X174950D02*
X178070D01*
X179013D02*
X181408D01*
X182423D02*
X185036D01*
X186124D02*
X189171D01*
X190260D02*
X193089D01*
X159858Y107598D02*
X162615D01*
X163631D02*
X166679D01*
X167694D02*
X170306D01*
X171322D02*
X174079D01*
X174950D02*
X178070D01*
X179013D02*
X181408D01*
X182423D02*
X185108D01*
X186124D02*
X189171D01*
X190260D02*
X193089D01*
X159858Y107525D02*
X162615D01*
X163631D02*
X166679D01*
X167694D02*
X170306D01*
X171322D02*
X174079D01*
X174950D02*
X178070D01*
X179013D02*
X181408D01*
X182423D02*
X185108D01*
X186124D02*
X189099D01*
X190187D02*
X193089D01*
X159858Y107453D02*
X162615D01*
X163704D02*
X166679D01*
X167694D02*
X170306D01*
X171322D02*
X174079D01*
X174950D02*
X178070D01*
X179013D02*
X181408D01*
X182423D02*
X185108D01*
X186197D02*
X189099D01*
X190187D02*
X193089D01*
X159858Y107380D02*
X162688D01*
X163704D02*
X166679D01*
X167694D02*
X170306D01*
X171322D02*
X174079D01*
X174950D02*
X178070D01*
X179013D02*
X181408D01*
X182423D02*
X185108D01*
X186197D02*
X189099D01*
X190187D02*
X193089D01*
X159858Y107308D02*
X162688D01*
X163704D02*
X166679D01*
X167694D02*
X170306D01*
X171322D02*
X174079D01*
X174950D02*
X178070D01*
X179086D02*
X181408D01*
X182423D02*
X185108D01*
X186269D02*
X189026D01*
X190115D02*
X193089D01*
X159858Y107235D02*
X162688D01*
X163776D02*
X166679D01*
X167694D02*
X170306D01*
X171322D02*
X174079D01*
X174950D02*
X178070D01*
X179086D02*
X181408D01*
X182423D02*
X185181D01*
X186269D02*
X189026D01*
X190115D02*
X193089D01*
X159858Y107163D02*
X162688D01*
X163849D02*
X166679D01*
X167694D02*
X170306D01*
X171322D02*
X174079D01*
X174950D02*
X178070D01*
X179086D02*
X181408D01*
X182423D02*
X185181D01*
X186342D02*
X188954D01*
X190115D02*
X193089D01*
X159858Y107090D02*
X162760D01*
X163849D02*
X166679D01*
X167694D02*
X170306D01*
X171322D02*
X174079D01*
X174950D02*
X178070D01*
X179013D02*
X181408D01*
X182423D02*
X185253D01*
X186342D02*
X188954D01*
X190042D02*
X193089D01*
X159858Y107017D02*
X162833D01*
X163921D02*
X166679D01*
X167694D02*
X170306D01*
X171322D02*
X174079D01*
X174950D02*
X178070D01*
X179013D02*
X181408D01*
X182423D02*
X185253D01*
X186414D02*
X188881D01*
X190042D02*
X193089D01*
X159858Y106945D02*
X162833D01*
X163994D02*
X166679D01*
X167694D02*
X170306D01*
X171322D02*
X174079D01*
X174950D02*
X178070D01*
X179013D02*
X181408D01*
X182423D02*
X185253D01*
X186487D02*
X188881D01*
X189970D02*
X193089D01*
X159858Y106872D02*
X162833D01*
X163994D02*
X166606D01*
X167694D02*
X170306D01*
X171322D02*
X174079D01*
X174950D02*
X177998D01*
X179013D02*
X181408D01*
X182423D02*
X185326D01*
X186487D02*
X188809D01*
X189970D02*
X193089D01*
X159858Y106800D02*
X162906D01*
X164066D02*
X166533D01*
X167694D02*
X170306D01*
X171322D02*
X174079D01*
X174950D02*
X177998D01*
X179013D02*
X181408D01*
X182423D02*
X185326D01*
X186632D02*
X188736D01*
X189970D02*
X193089D01*
X159858Y106727D02*
X162978D01*
X164139D02*
X166461D01*
X167694D02*
X170306D01*
X171322D02*
X174079D01*
X174950D02*
X177998D01*
X179013D02*
X181408D01*
X182423D02*
X185398D01*
X186632D02*
X188663D01*
X189897D02*
X193089D01*
X159858Y106655D02*
X162978D01*
X164211D02*
X166388D01*
X167694D02*
X170306D01*
X171322D02*
X174079D01*
X174950D02*
X177925D01*
X178941D02*
X181408D01*
X182423D02*
X185471D01*
X186777D02*
X188518D01*
X189897D02*
X193089D01*
X159858Y106582D02*
X162978D01*
X164357D02*
X166243D01*
X167694D02*
X170306D01*
X171322D02*
X174079D01*
X174950D02*
X177852D01*
X178941D02*
X181408D01*
X182423D02*
X185471D01*
X186922D02*
X188373D01*
X189897D02*
X193089D01*
X159858Y106509D02*
X163051D01*
X164429D02*
X166098D01*
X167622D02*
X170306D01*
X171322D02*
X174079D01*
X174950D02*
X177780D01*
X178868D02*
X181408D01*
X182423D02*
X185544D01*
X187067D02*
X188228D01*
X189824D02*
X193089D01*
X159858Y106437D02*
X163051D01*
X164719D02*
X165880D01*
X167622D02*
X170306D01*
X171322D02*
X174079D01*
X174950D02*
X177707D01*
X178868D02*
X181408D01*
X182423D02*
X185544D01*
X187430D02*
X187865D01*
X189752D02*
X193089D01*
X159858Y106364D02*
X163196D01*
X164937D02*
X165663D01*
X167622D02*
X170306D01*
X171322D02*
X174079D01*
X174950D02*
X177635D01*
X178868D02*
X181408D01*
X182423D02*
X185616D01*
X189679D02*
X193089D01*
X159858Y106292D02*
X163196D01*
X167622D02*
X170306D01*
X171322D02*
X174079D01*
X174950D02*
X177417D01*
X178868D02*
X181408D01*
X182423D02*
X185616D01*
X189679D02*
X193089D01*
X159858Y106219D02*
X163268D01*
X167549D02*
X170306D01*
X171322D02*
X174079D01*
X178796D02*
X181408D01*
X182423D02*
X185689D01*
X189607D02*
X193089D01*
X159858Y106147D02*
X163341D01*
X167477D02*
X170306D01*
X171322D02*
X174079D01*
X178723D02*
X181408D01*
X182423D02*
X185834D01*
X189534D02*
X193089D01*
X159858Y106074D02*
X163413D01*
X167404D02*
X170306D01*
X171322D02*
X174079D01*
X178723D02*
X181408D01*
X182423D02*
X185834D01*
X189462D02*
X193089D01*
X159858Y106002D02*
X163486D01*
X167332D02*
X170306D01*
X171322D02*
X174079D01*
X178650D02*
X181408D01*
X182423D02*
X185979D01*
X189389D02*
X193089D01*
X159858Y105929D02*
X163558D01*
X167259D02*
X170306D01*
X171322D02*
X174079D01*
X178578D02*
X181408D01*
X182423D02*
X185979D01*
X189316D02*
X193089D01*
X159858Y105857D02*
X163704D01*
X167114D02*
X170306D01*
X171322D02*
X174079D01*
X178505D02*
X181408D01*
X182423D02*
X186124D01*
X189244D02*
X193089D01*
X159858Y105784D02*
X163704D01*
X167041D02*
X170306D01*
X171322D02*
X174079D01*
X178360D02*
X181408D01*
X182423D02*
X186197D01*
X189171D02*
X193089D01*
X159858Y105711D02*
X163849D01*
X166896D02*
X170306D01*
X171322D02*
X174079D01*
X178288D02*
X181408D01*
X182423D02*
X186342D01*
X189026D02*
X193089D01*
X159858Y105639D02*
X164066D01*
X166606D02*
X170306D01*
X171322D02*
X174079D01*
X177998D02*
X181408D01*
X182423D02*
X186487D01*
X188809D02*
X193089D01*
X159858Y105566D02*
X164139D01*
X166461D02*
X170306D01*
X171322D02*
X174079D01*
X177780D02*
X181408D01*
X182423D02*
X186559D01*
X188736D02*
X193089D01*
X159858Y105494D02*
X164429D01*
X166171D02*
X186777D01*
X188518D02*
X193089D01*
X159858Y105421D02*
X164647D01*
X165880D02*
X186922D01*
X188373D02*
X193089D01*
X159858Y105349D02*
X187503D01*
X187793D02*
X193089D01*
X159858Y105276D02*
X193089D01*
D38*
X16142Y126575D02*
X17913D01*
X16142D02*
Y136909D01*
X13976D02*
X16142D01*
X119291Y103445D02*
X186221D01*
X119291Y93602D02*
Y103445D01*
Y93602D02*
X186221D01*
Y103445D01*
X35039Y20079D02*
Y21457D01*
Y20079D02*
X35138D01*
X35236D01*
X35138D02*
X35236D01*
X35138D02*
X52067D01*
Y22736D01*
X25197Y19980D02*
Y21358D01*
X10433Y19980D02*
X25197D01*
X1870Y68110D02*
X2953D01*
X1870D02*
Y93307D01*
X5512D01*
X2756Y142913D02*
X4626D01*
X2756Y106102D02*
Y142913D01*
Y106102D02*
X4528D01*
X65354Y22835D02*
X104724D01*
Y58268D01*
X65354D02*
X104724D01*
X65354Y22835D02*
Y58268D01*
Y66142D02*
X104724D01*
Y101575D01*
X65354D02*
X104724D01*
X65354Y66142D02*
Y101575D01*
D39*
X70571Y177657D02*
X72933D01*
X70571Y157972D02*
X72933D01*
X65847Y163878D02*
Y171752D01*
X77658Y163878D02*
Y171752D01*
X115157Y212106D02*
X141732D01*
Y158957D02*
Y212106D01*
X88583Y158957D02*
X141732D01*
X88583D02*
Y209154D01*
X91535Y212106D01*
X115157D01*
X83908Y215032D02*
X85158Y211782D01*
X86408Y215032D01*
X83908D02*
X86408D01*
M02*
