%FSLAX25Y25*%
%MOIN*%
G70*
G01*
G75*
G04 Layer_Color=32896*
%ADD10O,0.02756X0.09843*%
%ADD11R,0.05118X0.05906*%
%ADD12R,0.05906X0.05118*%
%ADD13R,0.05118X0.06299*%
%ADD14R,0.05906X0.01063*%
%ADD15R,0.01063X0.05906*%
%ADD16O,0.05906X0.02362*%
%ADD17O,0.02362X0.05906*%
%ADD18C,0.04000*%
%ADD19C,0.01000*%
%ADD20C,0.02000*%
%ADD21C,0.03000*%
%ADD22C,0.06299*%
%ADD23R,0.07000X0.07000*%
%ADD24C,0.07000*%
%ADD25C,0.07087*%
%ADD26R,0.07087X0.07087*%
%ADD27C,0.08661*%
%ADD28C,0.02400*%
%ADD29R,0.12598X0.08268*%
%ADD30R,0.03543X0.08268*%
%ADD31C,0.01500*%
%ADD32C,0.00984*%
%ADD33C,0.02362*%
%ADD34C,0.00787*%
%ADD35C,0.00500*%
%ADD36C,0.00055*%
%ADD37C,0.00073*%
%ADD38C,0.00614*%
%ADD39C,0.00400*%
%ADD40O,0.03556X0.10642*%
%ADD41R,0.05918X0.06706*%
%ADD42R,0.06706X0.05918*%
%ADD43R,0.05918X0.07099*%
%ADD44R,0.06706X0.01863*%
%ADD45R,0.01863X0.06706*%
%ADD46O,0.06706X0.03162*%
%ADD47O,0.03162X0.06706*%
%ADD48C,0.07099*%
%ADD49R,0.07800X0.07800*%
%ADD50C,0.07800*%
%ADD51C,0.07887*%
%ADD52R,0.07887X0.07887*%
%ADD53C,0.09461*%
%ADD54C,0.03200*%
%ADD55R,0.13398X0.09068*%
%ADD56R,0.04343X0.09068*%
D19*
X154331Y108268D02*
X158268D01*
Y149606D01*
X136614D02*
X158268D01*
X136614Y108268D02*
Y149606D01*
Y108268D02*
X154331D01*
X165838Y134018D02*
X167171D01*
X166505D01*
Y130686D01*
X167171Y130020D01*
X167838D01*
X168504Y130686D01*
X164505Y133352D02*
X163839Y134018D01*
X162506D01*
X161839Y133352D01*
Y132685D01*
X162506Y132019D01*
X161839Y131353D01*
Y130686D01*
X162506Y130020D01*
X163839D01*
X164505Y130686D01*
Y131353D01*
X163839Y132019D01*
X164505Y132685D01*
Y133352D01*
X163839Y132019D02*
X162506D01*
X169685Y79589D02*
Y76257D01*
X169019Y75590D01*
X167686D01*
X167019Y76257D01*
Y79589D01*
X165686Y76257D02*
X165020Y75590D01*
X163687D01*
X163021Y76257D01*
Y78923D01*
X163687Y79589D01*
X165020D01*
X165686Y78923D01*
Y78256D01*
X165020Y77590D01*
X163021D01*
X76566Y105793D02*
X77233Y106459D01*
X78566D01*
X79232Y105793D01*
Y103127D01*
X78566Y102461D01*
X77233D01*
X76566Y103127D01*
X74567Y102461D02*
Y105793D01*
Y104460D01*
X75234D01*
X73901D01*
X74567D01*
Y105793D01*
X73901Y106459D01*
X71901Y101794D02*
X69235D01*
X65237Y106459D02*
X66570Y105793D01*
X67903Y104460D01*
Y103127D01*
X67236Y102461D01*
X65903D01*
X65237Y103127D01*
Y103794D01*
X65903Y104460D01*
X67903D01*
X27059Y70655D02*
X27725Y71322D01*
X29058D01*
X29724Y70655D01*
Y67989D01*
X29058Y67323D01*
X27725D01*
X27059Y67989D01*
X25059Y67323D02*
Y70655D01*
Y69322D01*
X25726D01*
X24393D01*
X25059D01*
Y70655D01*
X24393Y71322D01*
X22393Y66656D02*
X19728D01*
X16395Y67323D02*
Y71322D01*
X18395Y69322D01*
X15729D01*
X73515Y134238D02*
X74182Y134904D01*
X75515D01*
X76181Y134238D01*
Y131572D01*
X75515Y130905D01*
X74182D01*
X73515Y131572D01*
X71516Y130905D02*
Y134238D01*
Y132905D01*
X72182D01*
X70850D01*
X71516D01*
Y134238D01*
X70850Y134904D01*
X68850Y130239D02*
X66184D01*
X64851Y134238D02*
X64185Y134904D01*
X62852D01*
X62186Y134238D01*
Y133571D01*
X62852Y132905D01*
X63519D01*
X62852D01*
X62186Y132238D01*
Y131572D01*
X62852Y130905D01*
X64185D01*
X64851Y131572D01*
X27452Y87584D02*
X28119Y88251D01*
X29452D01*
X30118Y87584D01*
Y84918D01*
X29452Y84252D01*
X28119D01*
X27452Y84918D01*
X25453Y84252D02*
Y87584D01*
Y86251D01*
X26119D01*
X24787D01*
X25453D01*
Y87584D01*
X24787Y88251D01*
X22787Y83586D02*
X20121D01*
X16123Y84252D02*
X18788D01*
X16123Y86918D01*
Y87584D01*
X16789Y88251D01*
X18122D01*
X18788Y87584D01*
X45169Y103332D02*
X45835Y103999D01*
X47168D01*
X47835Y103332D01*
Y100666D01*
X47168Y100000D01*
X45835D01*
X45169Y100666D01*
X43170Y100000D02*
Y103332D01*
Y101999D01*
X43836D01*
X42503D01*
X43170D01*
Y103332D01*
X42503Y103999D01*
X40504Y99334D02*
X37838D01*
X36505Y100000D02*
X35172D01*
X35838D01*
Y103999D01*
X36505Y103332D01*
X167511Y6974D02*
X168178Y7640D01*
X169511D01*
X170177Y6974D01*
Y4308D01*
X169511Y3642D01*
X168178D01*
X167511Y4308D01*
X166179Y2975D02*
X163513D01*
X161513Y3642D02*
X160180D01*
X159514Y4308D01*
Y5641D01*
X160180Y6307D01*
X161513D01*
X162180Y5641D01*
Y4308D01*
X161513Y3642D01*
X158181Y6307D02*
Y4308D01*
X157515Y3642D01*
X155515D01*
Y6307D01*
X153516Y6974D02*
Y6307D01*
X154182D01*
X152849D01*
X153516D01*
Y4308D01*
X152849Y3642D01*
X150850D02*
X149517D01*
X150184D01*
Y7640D01*
X150850Y6974D01*
X126370Y29513D02*
X127036Y30180D01*
X128369D01*
X129035Y29513D01*
Y26848D01*
X128369Y26181D01*
X127036D01*
X126370Y26848D01*
X125037Y25515D02*
X122371D01*
X121038Y26181D02*
X119705D01*
X120372D01*
Y28847D01*
X121038D01*
X117706Y26181D02*
Y28847D01*
X115706D01*
X115040Y28181D01*
Y26181D01*
X113707D02*
X112374D01*
X113041D01*
Y30180D01*
X113707Y29513D01*
X171055Y109435D02*
X171721Y110101D01*
X173054D01*
X173721Y109435D01*
Y106769D01*
X173054Y106102D01*
X171721D01*
X171055Y106769D01*
X167056Y106102D02*
X169722D01*
X167056Y108768D01*
Y109435D01*
X167722Y110101D01*
X169055D01*
X169722Y109435D01*
X163724Y106102D02*
Y110101D01*
X165723Y108102D01*
X163057D01*
X123319Y66718D02*
X123985Y67384D01*
X125318D01*
X125984Y66718D01*
Y64052D01*
X125318Y63386D01*
X123985D01*
X123319Y64052D01*
X119320Y63386D02*
X121985D01*
X119320Y66052D01*
Y66718D01*
X119986Y67384D01*
X121319D01*
X121985Y66718D01*
X117987D02*
X117320Y67384D01*
X115988D01*
X115321Y66718D01*
Y66052D01*
X115988Y65385D01*
X116654D01*
X115988D01*
X115321Y64719D01*
Y64052D01*
X115988Y63386D01*
X117320D01*
X117987Y64052D01*
X156139Y63976D02*
X159471D01*
X160138Y63310D01*
Y61977D01*
X159471Y61311D01*
X156139D01*
X160138Y59978D02*
Y58645D01*
Y59311D01*
X156139D01*
X156806Y59978D01*
Y56645D02*
X156139Y55979D01*
Y54646D01*
X156806Y53980D01*
X159471D01*
X160138Y54646D01*
Y55979D01*
X159471Y56645D01*
X156806D01*
D32*
X161732Y67520D02*
X160994Y67946D01*
Y67093D01*
X161732Y67520D01*
X168405Y24803D02*
X167667Y25229D01*
Y24377D01*
X168405Y24803D01*
D33*
X157480Y75984D02*
X157036Y76908D01*
X156036Y77136D01*
X155235Y76497D01*
Y75472D01*
X156036Y74833D01*
X157036Y75061D01*
X157480Y75984D01*
D34*
X140551Y72047D02*
X160236D01*
X140551Y83071D02*
X160236D01*
Y72047D02*
Y83071D01*
X140551Y72047D02*
Y83071D01*
X141732Y30118D02*
Y41929D01*
X168110Y30118D02*
Y41929D01*
X141732D02*
X168110D01*
X141732Y30118D02*
X168110D01*
X120965Y163790D02*
Y167788D01*
X118965D01*
X118299Y167122D01*
Y165789D01*
X118965Y165122D01*
X120965D01*
X119632D02*
X118299Y163790D01*
X116966D02*
X115633D01*
X116299D01*
Y167788D01*
X116966Y167122D01*
X110968Y167788D02*
X112301Y167122D01*
X113634Y165789D01*
Y164456D01*
X112967Y163790D01*
X111634D01*
X110968Y164456D01*
Y165122D01*
X111634Y165789D01*
X113634D01*
X130799Y180202D02*
X131465Y180869D01*
X132798D01*
X133465Y180202D01*
Y177536D01*
X132798Y176870D01*
X131465D01*
X130799Y177536D01*
X129466Y176870D02*
X128133D01*
X128799D01*
Y180869D01*
X129466Y180202D01*
X123468Y176870D02*
X126134D01*
X123468Y179536D01*
Y180202D01*
X124134Y180869D01*
X125467D01*
X126134Y180202D01*
X140444Y221935D02*
X141111Y222601D01*
X142444D01*
X143110Y221935D01*
Y219269D01*
X142444Y218602D01*
X141111D01*
X140444Y219269D01*
X139111Y218602D02*
X137779D01*
X138445D01*
Y222601D01*
X139111Y221935D01*
X135779Y218602D02*
X134446D01*
X135113D01*
Y222601D01*
X135779Y221935D01*
D35*
X135862Y205350D02*
Y213350D01*
X143862Y205350D02*
Y213350D01*
X143764Y175134D02*
Y183134D01*
X135764Y175134D02*
Y183134D01*
X128677Y61354D02*
Y69354D01*
X136677Y61354D02*
Y69354D01*
X149051Y97378D02*
X157051D01*
X149051Y105378D02*
X157051D01*
X131433Y23559D02*
Y31559D01*
X139433Y23559D02*
Y31559D01*
X159780Y8992D02*
X167780D01*
X159780Y16992D02*
X167780D01*
X37043Y108106D02*
Y116106D01*
X45043Y108106D02*
Y116106D01*
X18933Y89209D02*
X26933D01*
X18933Y97209D02*
X26933D01*
X66571Y128311D02*
X74571D01*
X66571Y120311D02*
X74571D01*
X19721Y73067D02*
X27720D01*
X19721Y81067D02*
X27720D01*
X66866Y92457D02*
X74866D01*
X66866Y100457D02*
X74866D01*
X126315Y170339D02*
X134315D01*
X126315Y162339D02*
X134315D01*
M02*
